<?xml version="1.0" standalone="no"?>
<!DOCTYPE svg PUBLIC "-//W3C//DTD SVG 1.1//EN" "http://www.w3.org/Graphics/SVG/1.1/DTD/svg11.dtd" >
<svg xmlns="http://www.w3.org/2000/svg">
<metadata>
This is a custom SVG webfont generated by Font Squirrel.
Copyright   : junkos typewriter   junkohanhero 2006
</metadata>
<defs>
<font id="webfonto6svfl8E" horiz-adv-x="809" >
<font-face units-per-em="2048" ascent="1638" descent="-410" />
<missing-glyph horiz-adv-x="569" />
<glyph unicode=" "  horiz-adv-x="569" />
<glyph unicode="&#x09;" horiz-adv-x="569" />
<glyph unicode="&#xa0;" horiz-adv-x="569" />
<glyph unicode="!" horiz-adv-x="502" d="M-1174 799v10l24 22l22 -22l-34 -22zM-138 1501l65 87h34l32 -33v-44l-22 -22l-10 12h-12l-65 -22zM-43 118l22 22l22 -22l-22 -24zM78 241v56q63 139 183 139h49q80 0 147 -167v-70q-95 -139 -207 -139q-172 79 -172 181zM90 1259q43 176 143 176h43q86 0 153 -121 l-10 -55l10 -65q-22 -103 -75 -187l10 -12v-87l22 -165q0 -74 -153 -121q-89 37 -89 99l11 242q-33 56 -33 110v65l11 12zM155 -463h34v-24h-34v24zM332 -90q0 17 87 66h22l22 -22v-22q-56 -66 -121 -66l-10 10v34zM490 612l43 -44h10l34 32v22l-34 34h-21l-32 -34v-10z" />
<glyph unicode="&#x22;" horiz-adv-x="644" d="M75 839q18 113 102 113q47 0 71 -153l-32 -129l8 -57q0 -32 -63 -48q-62 19 -62 89l7 104q-21 0 -31 81zM374 855v16q10 81 70 81h16q86 0 86 -145l-15 -73v-113q0 -43 -40 -64h-31q-63 0 -63 242q-15 2 -23 56zM454 196l23 24h24l15 -16v-8l-15 -16h-32z" />
<glyph unicode="#" horiz-adv-x="1176" d="M69 393q44 37 65 37l43 -8l36 8l87 -8v8q46 59 57 165q19 0 29 58l-29 21h-43l-58 -14h-36q-60 0 -93 94v14q16 36 72 36q50 -2 50 -14l36 7h43l80 -14h14q50 66 50 136q11 0 58 152l65 36q27 0 58 -44v-28q0 -72 -72 -180l-8 -22q15 -43 29 -43h7l101 -7l7 7h8l28 -7h15 q50 0 72 122l57 151l37 7h14q65 -40 65 -79l-79 -158q0 -27 100 -51l58 -57v-22q-16 -36 -72 -36h-79l-44 7q-28 -3 -64 -93l7 -29q-15 -49 -43 -87v-14q0 -22 144 -29l57 15h8q56 0 64 -51q-18 -44 -93 -86h-29l-115 14h-87q-27 -8 -57 -151q-12 0 -22 -72q0 -22 -79 -44 q-26 4 -58 65v44l72 122q-9 36 -21 36l-65 -7l-123 7q-26 -29 -43 -101q-12 0 -36 -122q-54 -36 -94 -36q-50 35 -50 79l79 137v14l-22 22h-43q-80 0 -115 93zM227 -60l15 15h29l14 -15v-7l-14 -15h-29l-15 15v7zM422 444q26 -22 50 -22h58l36 8l43 -8h36q38 0 80 188l14 14 v14l-36 36l-101 -7l-79 7q-53 -130 -101 -208v-22z" />
<glyph unicode="$" horiz-adv-x="996" d="M-434 550l11 10h30v-10l-20 -20zM-293 171v9q0 19 70 60q39 -14 39 -29l-10 -31h-19v21h-10l-21 -21l10 -29l-10 -10h-19zM-164 928l11 10h10l19 -19l-10 -10h-9zM-5 310l30 40q32 0 80 -40v10l-10 11l10 49l-10 190l49 40h60q26 0 50 -140v-120q9 -27 110 -79h39l21 20 v79l-11 90l11 40l-11 30l11 30h-11q-39 0 -39 19l29 10l-19 21l-10 -10h-10q-269 61 -269 268q-31 0 -31 101l21 40l-11 30h11q22 0 39 79q146 170 310 170l10 150v19q11 41 99 41l70 -60q-10 -51 -39 -51l9 -9l-9 -80q0 -38 149 -90h10l89 69q91 -33 91 -99v-40l-21 -109 v-20l21 -81q0 -99 -70 -149h-50q-56 0 -70 209q-61 72 -120 101l-29 -10v-260l9 -40l-9 -39v-11q0 -39 169 -70q170 -131 170 -279v-20q-74 -249 -219 -249q0 -20 -101 -40l-19 -40l29 -99q-29 -130 -109 -130h-40l-41 41l11 110l-11 29l21 59v21q0 33 -170 79l-120 -20 q-60 0 -89 70l30 90q-90 7 -90 29zM274 849q60 0 60 -20q0 -19 -40 -19q35 -60 90 -60h10l40 39l-10 170l10 130l-60 19h-20q-80 -63 -80 -120v-139zM574 271l29 -31h20q59 13 129 150v11q-48 129 -159 129l10 -10v-60h-10l-10 10h-9v-199zM1042 1667l10 9h10q60 -5 60 -29 l-10 -10h-40zM1101 1347v11l21 20h20l30 -31l-21 -19h-29zM1142 1647q0 20 30 20l30 -10v-20l-20 -21q-40 16 -40 31zM1211 1418v29h31v-29h-31zM1242 1607v30h20l19 -21l-10 -9h-29zM1301 1407v31h21l19 -20l-10 -11h-30zM1591 1488l20 19h9l20 -19l-29 -21z" />
<glyph unicode="%" horiz-adv-x="1026" d="M56 742q24 153 154 260q39 0 39 19l48 -10h144q62 0 164 87q44 0 116 135q62 48 96 48q67 -28 67 -87v-9q0 -47 -77 -135l-144 -231q-23 -57 -106 -154l-10 -29l39 -20l125 77q221 0 221 -221q-50 -161 -134 -212l-145 -48q-154 65 -154 212l39 125v19h-20 q-144 -187 -144 -260q-153 -286 -174 -289l-57 -19h-20l-38 39v48q0 69 221 356q75 132 183 270q0 68 97 183v19q0 19 -29 19q-106 0 -106 -135q0 -116 -154 -221l-116 -19q0 15 -96 86q-29 50 -29 97zM181 770q15 -77 68 -77q58 20 115 97v19q0 52 -48 77q-135 0 -135 -116 zM624 414l29 -29h19q97 20 97 145v9l-20 20h-28q-97 -66 -97 -145zM826 886l10 10h19v-29h-9zM932 896v9l29 29l39 -29v-9l-19 -20h-29zM1058 925v9q6 29 77 29h19l19 -19v-19l-106 -10zM1106 1098v10l9 9h10l10 -9v-10l-10 -10h-10zM1192 982l10 10h19l20 -19v-20l-20 -19 q-22 0 -29 48z" />
<glyph unicode="&#x26;" horiz-adv-x="1274" d="M-310 901v19q10 30 59 30h40l29 -30q0 -24 -118 -29zM-260 1088v29h9l20 -20v-9h-29zM-172 960l30 29h9l20 -19v-40l-20 -19zM83 281v40q0 226 108 226q0 48 158 128l10 9v69q-69 82 -69 217q105 236 216 236h138q125 0 187 -207v-98l-69 -187q-158 -67 -158 -157 q25 -77 59 -89h20q25 3 89 207q125 108 167 108h29q226 -76 226 -167v-20q0 -77 -59 -108h-19q-117 0 -158 88l-9 10h-69q-43 0 -79 -157v-148q53 -87 148 -137q47 0 108 157l10 10h39q52 0 108 -79q0 -43 -79 -108q0 -177 -127 -177h-10q-143 0 -256 128h-29l-99 -98 l-157 -30h-30l-9 10l-10 -10h-10q-315 105 -315 334zM103 901l20 19l19 -19l-19 -20zM231 321q0 -92 167 -187q216 7 236 118v10q-13 58 -167 245q-236 -69 -236 -127v-59zM457 861q20 -88 49 -88h59q98 43 98 167l10 10v10q0 69 -118 69h-19q-79 -35 -79 -168z" />
<glyph unicode="'" horiz-adv-x="330" d="M62 1220l32 91q-20 5 -9 79q44 95 120 75q43 -12 27 -154l-59 -106l-7 -52q-7 -28 -69 -27q-52 32 -35 94zM335 885l13 13h13l9 -9v-4l-9 -9h-17z" />
<glyph unicode="(" horiz-adv-x="700" d="M-204 589v32l20 21h10l20 -21v-10q0 -16 -40 -32zM-144 1179v21h20l20 -21l-20 -21zM120 1634v11q0 19 90 52l10 -10v-11q-20 0 -40 -63h-40zM125 579q10 220 119 474q122 178 140 178q53 0 109 -84v-31q0 -46 -89 -169q0 -46 -90 -147q0 -85 -30 -116l10 -10v-11 l-10 -95q0 -200 40 -200l20 -21l-30 -10v-21q50 0 50 -21v-11h-30q41 -133 199 -273v-11q-72 -105 -139 -105q-131 114 -160 252q-61 0 -109 432zM254 1358q14 42 90 42l10 -11v-21l-30 -31h-50zM324 453h30v-21h-10zM354 1316v21l40 42l10 -11v-10q-20 -48 -40 -53z M404 1305l20 21l10 42l10 11h10l19 -21v-32l-39 -42h-10zM584 -130l79 36q14 0 14 -36q0 -85 -50 -85h-7q-36 36 -36 85zM812 1189l20 21h10l20 -21l-20 -21h-10zM822 147v11l60 53l20 -21v-11l-50 -53h-10zM842 42l10 11h20l20 -21l-10 -11h-20zM928 1329v32l20 21h30 l19 -21v-21l-29 -32h-20zM982 1547v21h20l19 -21l-19 -21zM1002 632v31q34 63 89 63h10v-21q-31 0 -60 -52l20 -32l-10 -10h-30zM1265 70v10l60 42l19 -21q-16 -42 -69 -42zM1520 568h20v11l-20 21v-32zM1609 1126v11l20 21l20 -21v-11l-20 -21z" />
<glyph unicode=")" horiz-adv-x="801" d="M-1361 648v34l22 23h11l22 -23v-11q0 -17 -44 -34zM-1295 1283v23h22l22 -23l-22 -23zM-856 1476q15 45 98 45l11 -11v-23l-32 -34h-55zM-779 501h32v-23h-11zM-747 1430v23l44 45l11 -11v-11q-21 -52 -44 -57zM-692 1419l22 23l11 45l11 11h11l22 -22v-34l-44 -46h-11z M-396 217l121 34q22 0 22 -34q0 -79 -77 -79h-11q-55 34 -55 79zM-242 1294l22 23h11l22 -23l-22 -22h-11zM-231 172v11l65 57l22 -23v-11l-54 -57h-11zM-209 59l11 11h22l21 -23l-11 -11h-21zM-56 1680v22h22l22 -22l-22 -23zM-34 693v34q38 68 98 68h11v-22q-34 0 -66 -57 l22 -34l-11 -11h-32zM-12 1827q0 32 98 46l22 -34q0 -27 -99 -46zM108 36l154 193q109 222 109 453q-5 150 -109 340q-154 171 -154 216v22q38 68 99 68q68 0 208 -204q88 -215 121 -385v-34q87 -28 87 -114l-76 -34v-22l-11 -34h11q43 0 43 -23q-109 -38 -109 -147 q-36 -191 -132 -307q-76 -124 -153 -124q-88 72 -88 136zM367 -188l66 34h19l10 -34l66 46h10l19 -23v-23q0 -24 -48 -24q0 -34 -19 -34h-38q-47 0 -85 58zM503 966v11l66 45l21 -22q-17 -46 -76 -46zM503 1453v34l22 23h33l21 -23v-23l-32 -34h-22zM536 625h22v12l-22 22 v-34zM601 73l8 9h9q10 -42 32 -46l-16 100l8 10h16l97 -83v-27l-40 -45h-41l-8 9l-8 -9h-16q-41 25 -41 82zM634 1226v12l22 22l22 -22v-12l-22 -22zM908 1578v11q0 21 99 57l11 -12v-11q-22 0 -44 -68h-44z" />
<glyph unicode="*" horiz-adv-x="869" d="M80 1367v9l18 18h17l63 -18q28 6 45 54l-17 80q0 24 44 45l80 -54q54 0 116 116l28 9q32 0 53 -71q108 0 108 -80l-9 -63q120 -49 125 -72v-9q0 -66 -116 -117l-9 -26l9 -54l-63 -53h-9l-89 9q-23 -72 -81 -72q-54 0 -63 98l-80 37l-63 -37h-18l-26 37q0 20 89 89 q-26 63 -89 63l-28 -10q-35 38 -35 72zM296 1334q32 -161 134 -161q90 0 125 126l40 10q-79 132 -111 132h-9q-179 -34 -179 -107z" />
<glyph unicode="+" horiz-adv-x="973" d="M-15 1033v10l21 21l20 -21l-30 -20zM13 1756q-9 10 18 27q16 2 28 -3l30 -35q14 -4 21 -11l8 -9l-1 -2l22 -9q15 -27 -7 -35l-10 -3q-18 -7 -47 4l-5 7l-10 8q-9 15 -7 30l-7 3zM112 1519l62 82h31l31 -31v-41l-21 -20l-10 10h-11l-62 -20zM119 881q31 71 94 71h144 q42 0 52 142q31 153 62 153h31q104 -75 104 -143v-132q0 -32 227 -51q42 -28 42 -71q-43 -122 -166 -122l-93 21l-31 -41v-51h10l11 10h10l10 -10v-10q-46 -163 -134 -163q-104 18 -104 92l31 152q0 36 -237 51q-63 50 -63 102zM190 13v27q0 22 71 63l6 -9v-36 q-28 -54 -71 -54zM356 255v7q0 31 30 39h8q16 0 24 -46v-10q-17 -32 -32 -32q-30 16 -30 42zM461 860l41 -40h11l31 30v21l-31 30h-21l-31 -30v-11zM1051 403l20 20l21 -20l-21 -20zM1226 -135h52v-20h-31z" />
<glyph unicode="," horiz-adv-x="569" d="M123 -69l26 115q-25 4 -23 95q39 122 134 108q54 -8 56 -181l-56 -138v-64q-5 -36 -79 -43q-69 31 -58 108zM372 8l12 12h12l8 -8v-4l-8 -8h-16z" />
<glyph unicode="-" d="M52 605q0 45 117 84q27 -13 171 -18l19 -13l63 7h10l71 -6l36 7q208 -5 208 -43l2 -45q-35 -53 -80 -57l-55 13l-9 -2v-5q45 0 45 -64l-18 -13q-33 0 -64 89q-62 6 -63 19l-108 -8h-28l-82 5l-98 -25q-135 24 -135 50z" />
<glyph unicode="." horiz-adv-x="412" d="M-37 468v4l8 8l8 -8l-12 -8zM-17 444l24 32h12l12 -12v-16l-8 -8l-4 4h-4l-24 -8zM89 132v33q37 82 106 82h28q47 0 85 -98v-41q-55 -82 -120 -82q-99 47 -99 106zM147 400l16 -16h4l12 12v8l-12 12h-8l-12 -12v-4zM375 220l8 8l8 -8l-8 -8zM447 0v8h12v-8h-12zM511 132 v12q0 6 32 24h8l8 -8v-8q-20 -24 -44 -24z" />
<glyph unicode="/" horiz-adv-x="884" d="M-353 1506v37h19v-37h-19zM80 122v10q0 45 109 208q179 408 288 597l130 289q50 169 99 169h20q90 -13 90 -90l-189 -398q-26 -6 -110 -248q-33 0 -149 -259q-99 -161 -99 -288q-65 -60 -110 -60h-10zM411 1313l28 18h9q22 0 73 -147l-9 -9h-18q-66 59 -83 138zM512 1341 v18l19 18l18 -18l-18 -18h-19zM702 -24l19 19h92l18 -19v-18q0 -16 -46 -28q-83 21 -83 37v9zM1082 1548v12q0 11 58 36h7q12 0 36 -42q0 -27 -50 -48q-18 1 -51 42z" />
<glyph unicode="0" horiz-adv-x="1273" d="M71 -281q39 66 91 66q53 -20 53 -39q0 -20 -118 -79l-26 26v26zM97 542v196q0 136 79 457q0 26 156 183v13h-13l-78 -39l-13 13v13l26 65l13 -13h26l52 40l66 -27l26 27h104l131 26q379 -63 379 -222q91 -151 91 -209h-13l39 -170l-13 -144l13 -118l-26 -78l13 -78 q-70 -280 -209 -445q-57 -109 -130 -143h-13v26q40 0 91 79l-13 12h-39q-85 -51 -157 -51l-91 26l-79 -13h-52q-104 116 -248 221zM241 -180l30 30q24 0 31 -51l30 21l10 -11v-10q0 -61 -40 -61q-35 8 -61 61v21zM293 764q0 -221 118 -274l-40 -13q92 -236 262 -236h65 q261 73 261 445l13 13l-13 78l13 79q-99 378 -235 378q-153 0 -287 -117q-157 -51 -157 -353zM1390 454q13 65 84 65h13l34 -26l9 -26q-13 -65 -84 -65h-13l-35 26z" />
<glyph unicode="1" horiz-adv-x="1101" d="M-479 365v20q26 50 80 50h10l20 -20v-20q-26 -49 -80 -49h-10zM-112 753q0 42 79 101h24l31 -31v-23q-54 -86 -103 -86zM68 405q0 86 130 110l159 -30h90q39 0 49 119l-20 299l20 348q-13 50 -69 50h-30l-159 -20l-90 50l-10 -10h-10l-10 10v50q23 99 90 99l358 10 q45 0 80 -80l-10 -39l10 -110v-60l-10 -109l10 -30l-10 -79l10 -110l-20 -30l20 -79l-10 -80l20 -80l-30 -79l169 -40l119 40h10q60 -31 90 -100q-28 -119 -120 -119l-189 20l-79 -10l-70 20l-60 -10l-39 10q-73 -30 -279 -30q-110 20 -110 99zM78 1520q15 40 30 40l30 -30 v-10l-30 -30zM427 166l10 10h20v-30h-10zM685 624v20h40l50 -50l-20 -20q0 34 -70 50zM892 911l34 40q65 -21 109 -60l28 6q23 -30 23 -47l-34 -27h-6l-6 7h-5q0 -25 -29 -41q0 -18 -40 -40h-6l-11 13q37 40 40 68h-11l-18 -14h-11l-23 54q-17 0 -34 41zM934 72v9 q19 64 31 69h10l15 -26l31 18h10l10 -18l36 18q33 0 46 -53l-15 -26l-26 9l-41 -26l-10 17h-10l-20 -26h-16v17h-5l-25 -8q0 17 -16 17zM960 1678q8 50 30 50q46 -19 50 -40l-10 -69h-40q-30 10 -30 59z" />
<glyph unicode="2" horiz-adv-x="884" d="M-593 -137l53 20q44 3 45 -15l70 21q45 2 74 -41v-9q1 -26 -34 -28l-37 16q1 -20 -69 -39q-1 18 -63 14zM-505 232l17 18l10 -8l1 -27l-17 -18l-9 8zM-386 1226q-2 44 33 46l37 -25l1 -9l-6 -62l-36 -2q-27 8 -29 52zM-81 1001l17 19l19 -17v-9l-17 -19l-18 17zM18 1318 q11 72 32 73h9l28 -25q1 -15 -43 -29q1 -27 -16 -28zM104 868q37 138 149 212l130 61q251 -23 255 -103q27 1 97 -164q10 -190 -162 -302q-11 -38 -42 -56l-36 7q-163 -103 -177 -187l1 -36l45 -6l36 2l87 31l27 1l9 -8l148 61l72 -14l35 10q38 -35 40 -69q2 -50 -102 -94 l-45 6q-268 -40 -371 -72l-26 -1q-90 13 -93 84q-10 195 93 263q74 80 256 209q76 96 72 173q-46 113 -148 108l-10 8h-9q-193 -56 -185 -205q-36 -38 -69 -40q-74 55 -77 121zM395 37l51 47l18 1q46 -34 50 -103l-52 -30l-10 9q0 17 -46 33zM704 1130l9 10l26 1 q28 -25 108 -21q1 -18 -69 -31q-73 20 -74 41zM763 -15l25 28l29 -34l-26 -19h-9l-19 16v9zM876 -320l25 36l9 -8l1 -18l-16 -18l-18 -1z" />
<glyph unicode="3" horiz-adv-x="1228" d="M75 -133q0 112 306 136l243 117q34 50 190 137l106 190l10 116q0 179 -243 179l-137 11q-185 -158 -253 -158q-56 0 -106 74v73q72 101 275 212q73 122 211 242v64q-17 42 -74 42q-17 -21 -327 -42l-11 -11h-11q-158 45 -158 148q52 116 127 116q317 -13 317 -42l73 32 l11 -11l53 11h10l43 -22l232 11q84 -40 84 -106q-14 -109 -221 -316v-53q0 -16 179 -127q112 -138 148 -316v-11q-48 -285 -116 -285q-23 -75 -169 -222l-285 -200q-155 -74 -349 -127q-73 0 -158 127v11zM974 -235q0 21 32 21q116 0 116 -74h-10l10 -11v-10 q-22 -43 -53 -43q-91 29 -95 53v64zM1236 301l45 19h8q48 -12 82 -94l15 -14l-45 -24h-8q-44 13 -44 52q-53 41 -53 61z" />
<glyph unicode="4" horiz-adv-x="951" d="M-82 213v7q11 12 47 12q31 0 74 -63l6 -3v-3l-40 -13h-6q-47 13 -47 41zM74 457l426 759l52 21q125 -27 125 -104l-21 -270l31 -83l-51 -239q0 -29 218 -52q41 -29 41 -73q0 -48 -114 -73h-94q-31 -6 -31 -73l11 -145q-38 -80 -94 -114h-21q-52 0 -62 145q31 50 31 156 q-21 42 -52 42l-312 -21q-52 0 -83 124zM124 -239q0 13 21 13q72 -5 72 -27v-40q0 -14 -22 -14q-53 0 -71 34v34zM293 520l41 -42q146 0 187 73v21l-10 104l31 135v62l-21 21h-31l-197 -364v-10zM904 27q36 67 56 67l6 -17v-33l-17 -50h-34z" />
<glyph unicode="5" horiz-adv-x="816" d="M-255 28q56 35 87 35l9 -9v-17l-26 -26h-52zM75 471l8 165v52l18 95v52l-26 113q0 39 61 70l8 -9l87 17l87 -17l69 17l78 -17l174 9q56 0 69 -79q-17 -95 -87 -95q-30 17 -303 26q-78 -5 -78 -43l17 -52l-17 -79v-26l26 -34l121 26q189 0 287 -122q47 0 95 -191 q-12 -106 -191 -303q-18 -47 -156 -130q-112 -69 -217 -96q-113 35 -113 61v61q0 53 61 78l78 -9q81 0 226 104q18 0 95 122q23 0 35 69q0 170 -122 217l-312 -122q-50 0 -78 70zM1437 610v17l44 9l8 -9l-26 -35h-8z" />
<glyph unicode="6" horiz-adv-x="1457" d="M0 1499v39h26v-39h-26zM52 1236l40 118l-13 40l105 65q95 0 170 -78q-79 -53 -79 -105l13 -13h14q91 175 275 354q0 43 223 157q137 118 288 118h26q131 -77 131 -171q0 -61 -367 -118q-268 -140 -380 -445q22 -66 66 -66l262 39h65q252 0 407 -249l79 -275 q-30 -164 -132 -328l40 -13l78 26h14l65 -65v-26q0 -40 -144 -53l-53 79l-65 -39l-13 13q-180 -96 -354 -131q-498 156 -498 354q-53 58 -79 262l13 118l-13 92l13 209h-13l-39 -26q-92 61 -145 157zM131 25q0 28 68 110h60l25 -22l-8 -66l42 -44q-27 -42 -59 -59h-26 q-52 0 -102 81zM371 -208q0 29 65 124q84 -22 84 -83l-45 -69l-26 28l-13 -28l-13 28l-20 -42h-13zM472 568q13 -57 144 -184q5 -49 197 -78h26q202 0 262 196l26 131q0 184 -262 289l-92 13q-235 -39 -235 -197l-53 -26l13 -13v-13l-26 -26l13 -14v-13zM511 2167l53 53 l39 -40v-26l-39 -39zM1193 1027v26l26 26l26 -26l-26 -26h-26zM1770 -90l22 27h12l95 -108q-30 -34 -67 -34q-46 0 -62 115z" />
<glyph unicode="7" horiz-adv-x="906" d="M97 1046l25 58l-8 9v42q0 50 58 75l9 -8l58 8l67 -8l142 16l168 -16l66 16h17q85 0 101 -134v-8q-36 -152 -109 -192q-109 -217 -109 -268l-58 -259l8 -134l-17 -50q11 0 34 -76l8 -8v-17l-42 -33l-42 42v42l9 8l-17 42l-67 -9q-50 55 -50 151q67 216 92 368q16 6 33 75 l-8 9v8l134 268v16l-9 9v8q-317 -16 -317 -67q0 -109 -67 -109h-17q-76 0 -92 126zM104 -2l15 22h8l64 -89q-20 -28 -45 -28q-31 0 -42 95zM1012 321v17l50 42l25 -34l-42 -50h-8z" />
<glyph unicode="8" horiz-adv-x="1220" d="M-248 199v25l17 26h26l33 -51v-13l-17 -25h-8q-44 0 -51 38zM-105 -153q12 37 45 56l45 -48v-16l-30 -32h-23zM48 185v85q0 216 178 318l12 48q-142 113 -142 220v24q0 222 154 293q69 86 273 86l35 12h36l95 -25l47 13q184 0 320 -305v-74q0 -39 -118 -244 q0 -41 154 -268l12 -37l-12 -12v-12l35 -98q-52 -184 -189 -255q0 -25 -178 -98l-12 12l-297 -24q-403 170 -403 341zM274 319q0 -256 237 -256h154q249 56 249 220q0 118 -202 231l-249 13l-106 -86q-11 -56 -83 -122zM333 819q0 -85 249 -134q284 0 284 159v61 q0 95 -154 146h-23q-321 -30 -321 -85zM752 -592q18 49 35 49l36 -37v-12l-36 -37zM1055 1196v24l71 61l36 -48l-59 -74h-12z" />
<glyph unicode="9" horiz-adv-x="1595" d="M68 1141v13q31 259 107 401q97 152 241 201q176 121 281 121h40q201 0 509 -215q160 -263 200 -401l14 -67v-147l26 -147v-188q0 -135 -160 -428q-261 -425 -442 -468q-104 -160 -388 -160q-147 107 -147 160q0 72 201 121v-14q51 32 200 54q0 25 188 147 q241 307 241 468v27l-27 53h-13q-90 0 -281 -80h-134q-495 73 -495 227q-45 12 -148 308zM376 1274q38 -414 388 -414l67 -14q254 53 254 174q54 129 54 214v81q0 105 -215 240q0 27 -133 27v14q-250 0 -348 -121l13 -13v-14q-40 -49 -67 -174h-13zM839 -274q11 71 26 71h36 q53 0 53 -71l9 14h26v-14l-71 -70h-35zM1139 -384l13 13h67v-13l-27 -27h-27zM1272 -384l27 26h27l40 -40v-13l-27 -27l-67 13v41zM1393 -572l13 14h14l40 -14v-27h-40zM1552 -132q54 85 119 85q29 -72 29 -136l-10 -17h-10l-39 17l-59 -34zM1647 -397l31 42l78 -10l16 21h8 l47 -106l-16 -21q-94 0 -94 42l-23 -21h-8z" />
<glyph unicode=":" horiz-adv-x="382" d="M77 492q13 16 15 61q10 0 20 50l30 21l22 -1l23 -7l23 5l5 -1q67 -20 62 -117l3 -45q-2 -38 -112 -74q-94 47 -91 108zM101 916q25 113 80 109q101 -26 98 -85q10 0 9 -28l-1 -23q-35 -112 -80 -109h-5q-47 3 -82 67q-20 43 -19 69z" />
<glyph unicode=";" horiz-adv-x="390" d="M105 318l29 84q-18 5 -8 73q41 88 111 69q40 -11 25 -142l-55 -98l-6 -48q-7 -26 -64 -25q-48 30 -32 87zM132 916q24 113 80 109q100 -26 97 -85q10 0 10 -28l-1 -23q-36 -112 -80 -109h-6q-46 3 -81 67q-21 43 -19 69zM357 8l12 12h12l8 -8v-4l-8 -8h-16z" />
<glyph unicode="&#x37e;" horiz-adv-x="390" d="M105 318l29 84q-18 5 -8 73q41 88 111 69q40 -11 25 -142l-55 -98l-6 -48q-7 -26 -64 -25q-48 30 -32 87zM132 916q24 113 80 109q100 -26 97 -85q10 0 10 -28l-1 -23q-36 -112 -80 -109h-6q-46 3 -81 67q-21 43 -19 69zM357 8l12 12h12l8 -8v-4l-8 -8h-16z" />
<glyph unicode="&#x3c;" horiz-adv-x="847" d="M74 631q66 193 439 470q57 98 123 98q28 0 102 -98q0 -120 -180 -210q-38 -81 -180 -173l-34 -87q0 -41 191 -135q48 -65 225 -136l23 -50v-24q0 -59 -68 -124h-79q-78 74 -450 284q-112 127 -112 185zM659 -143q21 95 53 95h31l22 -21v-21q-47 -85 -64 -85h-10z" />
<glyph unicode="=" horiz-adv-x="913" d="M65 500v19q53 96 87 96l193 -29h221l116 20q144 0 144 -106v-29q-19 -106 -106 -106q-101 38 -241 48l-48 -10l-106 10l-144 -10q-88 26 -116 97zM84 827v10q0 73 97 87l96 -10l68 10l19 -20h48l29 20l144 -29l174 9q67 -28 67 -86q-35 -135 -77 -135h-19l-231 38 l-97 -19l-135 19h-96q-87 13 -87 106z" />
<glyph unicode="&#x3e;" horiz-adv-x="972" d="M-15 1637q26 116 65 116h38l26 -26v-26q-57 -103 -77 -103h-13zM101 200q0 69 245 193q70 82 220 156l13 64q-420 279 -427 323v13q0 104 181 104h13l401 -298q108 0 129 -155q0 -143 -413 -375l-207 -155h-65q-90 58 -90 130z" />
<glyph unicode="?" horiz-adv-x="1108" d="M142 1031q83 270 173 270q0 50 241 86l10 10h10q209 0 308 -125q100 0 145 -193q-84 -202 -145 -241q-81 -154 -164 -173l-19 -29l10 -10l-10 -48l19 -68v-9l-58 -58h-57q-145 0 -145 96v19q0 218 270 347q67 52 67 174q0 51 -154 116h-67q-145 0 -145 -97 q68 -85 68 -115q-25 -87 -87 -87h-125q-91 0 -145 135zM365 183q18 173 164 173q164 0 164 -116q16 0 39 -57q-48 -82 -135 -145h-68q-82 0 -164 145z" />
<glyph unicode="@" horiz-adv-x="1138" d="M89 608q14 16 14 80q22 0 29 94q139 203 232 203q0 41 159 72q0 11 80 22q326 -94 326 -159q13 0 43 -51v-51q35 0 44 -72q29 0 36 -123v-73q0 -206 -174 -333h-29q-30 0 -101 58h-14l-80 -36q-40 -15 -203 -15h-14q-131 67 -131 210q0 30 94 138v7q-65 78 -65 109 q26 123 102 123l101 51l36 -7h73q63 -47 130 -51q41 -24 80 -167q-22 0 -22 -101l7 -102l-7 -43l36 -22q47 0 80 160v87q0 40 -73 195q-50 100 -217 145l-22 7l-29 -7l-43 7q-196 -52 -196 -94q-157 -60 -159 -261q-14 0 -14 -94q0 -183 79 -239q62 -116 160 -116 q0 -24 130 -50l203 21l21 -29q-36 -79 -72 -79l-7 7q0 -22 -29 -22l-29 7l-29 -14l-87 22h-72l-181 65q0 19 -44 36q0 31 -58 51q-62 108 -87 195v87zM285 1050l21 22h44v-15q-12 -29 -51 -29zM444 377l36 -37h22l79 8l29 -8q124 48 124 131q0 23 -51 50q-64 -36 -152 -36 q-68 -19 -87 -58v-50zM487 616q0 -32 102 -37q113 45 130 73v7q0 58 -80 72l-36 -7l-51 15q-46 0 -65 -123z" />
<glyph unicode="A" horiz-adv-x="1403" d="M-907 874v16h16l12 -12q-12 0 -12 -8zM-891 474v12l28 24h8l8 -8v-12l-32 -24h-4zM-883 978v4l8 8h8v-12l-8 -8zM-859 1038l4 4h4l20 -4l-4 -4l16 -40q-6 -16 -12 -16h-16zM-847 702v12l8 8h12v-20h-20zM-723 462l12 12h12l4 -16l-4 -4h-16zM-671 162l96 92l4 -4v-4 q-88 -81 -88 -92h-4zM-659 150l92 92v-4q-77 -88 -92 -88zM-527 434q6 16 12 16l24 -4q0 16 8 16l8 -8v-4l-4 -4v-4h8v-4l24 8l4 -4v-4q0 -12 -16 -12v-4q20 0 28 -20l-8 -8l-12 8h-8v-8h16v-8l-8 -8h-4l-40 28v16h-8l-12 -8q-6 0 -12 20zM-507 826v8h16v-12q17 12 40 12v-4 l4 -12l24 12v-4q-10 -32 -20 -32h-12v12l-4 -4h-4q-28 0 -44 24zM-479 418h16v4h-16v-4zM-471 466l8 8h12l8 -8l-8 -8h-12zM-435 -354h4l24 -16v-8l-8 -12h4l12 12l-28 32v4l36 -32l4 4v4q-13 0 -36 36h4l36 -32q28 22 28 32h12l8 -8l4 4h8l-8 -12l4 -4l4 4h4l12 -8l8 8v-4 l-12 -16l20 -20v4q0 8 -12 8v8h4l16 -16l-4 -4l4 -12h4v12h8v-8l-4 -4l4 -12h4q0 13 20 24v-4q-16 -18 -16 -28l8 -8v-4l-16 12l-24 -28l12 -12h-4l-12 8l-16 -16q12 0 12 -8l-4 -4h-4v8h-8l-12 -12q12 0 12 -8h-8l-4 4l-4 -4h-8v4l4 4v4q-21 0 -40 24h4l4 -4h8v4l-8 8 l-20 -16l-4 4v4q16 0 16 12v4l-12 -8h-4v8l4 4v4h-4l-12 -8h-4l12 16h-4l-4 -4h-4v8h8v4l-8 8h-4v-8l-8 8l4 4l-8 24h4l-12 20v4zM-435 786v8l8 8l4 16l4 4h8l16 -12q-5 -16 -20 -24h-20zM-403 -330h4l16 -12v4l-12 16v4l4 -4h4v4l-12 12v4h4l28 -32v-4l-12 8v-4l4 -16 l-4 -4h-4q-8 16 -20 16v8zM-323 370l32 12h24q-8 -40 -20 -40h-20q-16 7 -16 28zM-307 186v8h4q36 -24 36 -36h-8zM-303 114l24 32h8v-4l-28 -28h-4zM-303 -458h4l8 -8h-4zM-295 206h4l32 -32h-12zM-287 110v4l88 92h4q0 -10 -92 -96zM-283 -434h4l20 -20v-4l-20 16l-4 -4 v12zM-281 -154l58 61l-6 6v2l9 -5l9 5h3l-9 -11l69 -66q0 8 23 26q9 0 9 -9h3v6l-23 23v3q26 -21 26 -26l29 26l3 -3v-3q-21 -20 -26 -20v-3q52 -45 52 -52l3 3h2q14 -23 55 -23l3 2q0 -11 40 -26l66 70l-23 23h3q20 -15 20 -20h6l20 23l-28 29h2l26 -26l18 11v-3l-12 -14 l9 -6l17 15l3 -3v-3l-14 -15v-3h3l20 18v-3l-18 -20l18 -18v-3l-20 18l-18 -18l15 -11v-3h-3l-18 12v8q9 0 21 18l-3 2h-3l-17 -20q-7 0 -75 -72l31 -32v-3h-6q0 12 -34 35v6q8 0 72 69l6 6q8 0 8 11l12 3l-9 9q-92 -88 -92 -95h-3l-3 3h-3v-3l61 -55l6 6v-3l-3 -3v-3 q20 -25 20 -49h-3l12 -32l-21 -43l6 -15l3 3h6l-6 -6l3 -2v-3l-3 -3l3 -3v-3l-3 -3v-3q9 -3 9 -17v-9q-9 0 -9 -8l6 -6v-3l-12 9v-3l9 -12h-3l-11 9l-21 -23l6 -6v-3h-3l-8 6v-3l2 -9l-8 6l-6 -9h9q0 -5 -35 -14l-9 -9h-5l-3 3h-3l-9 -9h-3l12 15l-12 11l-14 -14v3l11 14 l-14 15v3l-5 -6v-3q14 -1 14 -9l-6 -5h-3l3 2v6l-3 -3h-2q-7 0 -9 15l6 6l-6 5l-9 -3l3 3v9q-9 0 -9 6q0 9 24 46v6l-52 55l-9 -3l3 3v8l-12 -8v3l3 2l-3 18h-3v-6h-2q-17 17 -26 17l5 6l21 -17v6h-6q0 10 -18 17l-5 -6h-3l3 3v3q-11 22 -23 26q-17 34 -38 34l-12 -2 q-3 10 -54 57l-3 3v3h3l2 -3h3l12 18v5l6 -5l-12 -15v-3l20 20l-5 6h2l3 -3h6v3h-6v3l6 6l9 -3l3 3v3l-3 3v3h3l3 -3h2q0 7 18 20l11 -9h3q0 6 26 32l-6 6l-11 -12l3 -8l-15 -12l-20 26l-52 49l-6 -6l6 -5h-3l-8 2l-50 -49v3zM-279 90l96 96h4l-96 -96h-4zM-279 102v4l96 96 v-4zM-271 82l104 104v-4l-100 -100h-4zM-271 146v4l24 24h4v-4l-24 -24h-4zM-267 346v4q0 8 20 24v4h16v-12q-12 -20 -32 -24zM-267 -426l20 -20h-4l-16 16v4zM-267 750l8 8h12v-16h-12zM-259 78l16 16v-4l-12 -12h-4zM-247 202v4h4l8 -8v-4h-4zM-243 174v8h8q0 14 24 28h4 l-32 -36h-4zM-227 74l12 12l76 -76v-4l-76 72zM-207 90h4l84 -80v-4h-4zM-199 -38l80 -80q-21 0 -32 -28l-8 8l28 28l-68 68v4zM-199 98v4l20 20h4l84 -80h-4l-84 76zM-195 538q8 40 40 40h4q12 0 12 -16q0 -9 -24 -24l-8 -12q-24 5 -24 12zM-187 -86l12 12h4l4 -16l-12 -8 h-4l8 12h-12zM-171 -94h8v-4l-8 -8v12zM-171 -130l24 24v-4l-20 -20h-4zM-171 546h8l4 12l-12 -4v-8zM-163 62h4l36 -36h-4zM-163 122h4l68 -68v-4zM-155 146h4l80 -80v-4zM-151 -66v-4l48 -44v4zM-127 946v20h16v-20h-16zM-103 110v8q48 -26 48 -44h-12zM-67 102v4l16 -16 v-4zM-59 110h4l12 -12v-4zM-55 630q12 0 12 8h16q28 0 28 -24l-8 -8q-48 4 -48 24zM-15 74l40 -40v8l-40 36v-4zM-15 1006v16h16l8 -8l-8 -8h-16zM-11 98v4l8 8h4zM1 302l4 4h4l20 -28l32 32l-8 8l-16 -24h-12v8q13 0 24 20h-8v12h8l48 -52l44 36h4q-28 -36 -36 -36v-8 l20 -24h-12q0 12 -16 20l-32 -32q12 0 32 -28l-4 -4h-4l-28 28l-24 -20v4l56 60l-32 28l-4 -4l4 -4v-4l-12 -12v-4h-4l-4 4h-4l-4 -4l4 -4v-8h-4zM1 634v12l28 12h8l4 -4h4q-17 -32 -36 -32zM9 74v4q20 28 36 28l-32 -32h-4zM13 238v4l20 12h4l-20 -20zM13 254v4l8 8h4z M17 1042l4 12h12l4 -12l-4 -4h-8l-4 4h-4zM21 66v4l16 16h4zM21 906v8l8 8h4l8 -8v-8h-20zM25 218v4l24 20v-4l-20 -24zM25 1006v8l12 12l8 -8l-4 -12h-16zM41 266h8q0 -12 8 -12l28 24v-4l-28 -28q-16 4 -16 20zM53 270v4l20 20v-4zM53 346l12 16q16 0 16 -16l28 -12h8v-12 l-12 -4l-12 4l-4 -4v-4h4l4 4v-12l12 8v-4l-12 -12q0 6 -16 12v8l-4 -4h-4q0 8 -12 8q-3 24 -8 24zM53 898v12q0 7 20 12l4 -4v-24h-4zM53 1058v12l8 8h8l8 -8v-20l-8 -8zM69 270v4l8 8h4zM85 858v4h8l8 -8v-4h-8zM85 898l4 4v4l-4 4v4l4 4h16l12 -12l-8 -8h-24zM89 234v8h4 l8 -8l-4 -4h-4zM97 254l16 -16v-4h-4q-9 0 -12 20zM101 290v4l12 12v-4l-4 -12h-8zM109 -146v-4l60 -56v4zM115 53q0 135 190 135q81 0 143 515l60 135q59 204 83 453q60 110 191 110q81 0 119 -318l95 -196l-12 -98l71 -98v-86q72 -261 84 -392q43 -49 190 -49 q48 -66 48 -111q-42 -135 -143 -135l-95 37q-182 -12 -238 -37q0 33 -167 99h-12q-66 -74 -143 -74l-214 12l-143 -12q-107 37 -107 110zM121 278v4q16 -4 16 -20zM129 778v12h12q0 -16 8 -16l4 4h4v-4q16 12 36 12l4 4v4l-4 4h-20l-12 -8h-8l-16 16v12l8 8h16q0 -12 40 -12 l8 -36l24 8l16 -16v-12q-44 -15 -44 -24h-4q-10 0 -12 16h-4q0 -28 -16 -28l-12 12l8 24h-4l-12 -4q-9 24 -20 24zM133 -154v-4l52 -48v4zM157 -510l16 16h4l-16 -16h-4zM233 730v12q22 0 28 -16h-8v-4q0 -8 16 -8v-4l-4 -4v-4q-32 0 -32 28zM261 102v4h4l8 -8v-4h-4z M273 90v4h4l28 -32v-4zM273 -118h12l-8 -8h-4v8zM277 -442l4 4h4l4 -4v-4l-4 -4h-4l-4 4v4zM281 1054v24q10 0 20 24h4l8 -16l-4 -12l4 4h28l8 -8v-8l-4 -4v-4l4 -4h4l8 12l-4 12l4 4h4l4 -4h4l16 4l20 -12l-4 -4v-4l4 -16q-18 -16 -28 -16v16q-8 0 -8 -16l-4 -4h-4l-28 8 l-24 -4q-14 0 -32 28zM293 -434h4l8 -8h-4zM297 -18l24 24h4l-24 -24h-4zM297 1054l16 -4v4l-8 8zM301 94v4l20 -20v-4zM329 10v8h4l28 -28v-4h-4q-20 24 -28 24zM333 1086v20l4 -4h8l8 8l12 -4l4 4h4q18 -8 20 -16zM345 1006v4l8 8h4v-4l-8 -8h-4zM349 370v20h12v12h-12v4 l16 16v-8q11 0 16 28l-4 16v4l8 8q8 0 8 -12l12 8q12 -2 12 -28h4q0 9 16 24l-8 12h12l-4 4l12 16h8l24 -12q-11 -16 -20 -16v-8q18 0 28 -20v-8l-8 -8h-8v4l4 4q0 12 -16 12v4q-32 -15 -32 -28q-3 -20 -32 -20l-8 8h-8v-24l-12 -12h-20zM349 422v20h8l8 -8v-4l-8 -8h-8z M361 1006v8h12v-8h-12zM365 30h4l8 -8h-4zM405 1090v12h12v-12h-12zM509 -654v-4l12 -8v4zM529 -682h4l8 -8v-4l-4 4h-4l-4 -4v12zM532 200q0 -40 166 -49l96 25l59 -12q0 61 36 61l36 -12v12q0 122 -191 122h-71q-64 0 -131 -98v-49zM549 122v4l12 12l-12 16h4q17 0 88 -80 v-4h-8l-12 8h-4q0 -13 -20 -24v4l16 20v4l-28 -24v4l24 28v4l-44 -40h-4l40 44v4h-8q0 12 -8 12q0 -12 -20 -24h-4v4l20 24q-8 0 -8 12l-4 4h-4l-12 -16zM553 174h4l92 -88h4l-84 92h4q12 0 12 -16l12 12v8l-16 20h4q18 -16 28 -16l4 4v8l-4 -4h-8l4 4v8l-8 12h4 q16 -8 16 -20l8 8l-4 4h12q0 -8 68 -72v4l-64 68v8h12l12 -8h4v4h-8l-8 8l4 4v4l4 -4h12v4l-12 16h4q28 -20 28 -32l36 32h4l-32 -32l20 -24v-4l24 20v-4l-16 -20v-4l12 -4l8 8h4l-12 -16l28 -28h-4l-28 24h-4v-8q10 0 36 -36v-4h-4l-40 40q-7 -16 -16 -16v-4l20 -20v4 l-8 12v4l16 -16q-5 -20 -12 -20l-20 32l-8 -8l16 -20v-4l-20 16l-12 -12l8 -12v-4l-16 12q-16 -20 -28 -20zM557 106v4l8 8h4zM561 74v4l28 24h4v-4q-16 -24 -32 -24zM577 186h4l8 -8v-4zM585 -674h4l16 -16h-4l-16 8v8zM593 162l52 -52l12 4v-8h-8l12 -12l4 16l-40 36v-4 l16 -16v-4h-8l-24 28l-4 4h-4v8h4l4 -4h4v4l-12 8zM593 -162h4l36 40h-4zM597 -662q17 -5 24 -20v-4q-13 12 -24 12v12zM609 -654h4l12 -12v-4h-8zM613 178h4l8 8h-4zM627 544q0 -28 155 -37q54 24 59 49q0 58 -36 86l12 61v110l-35 37h-48q-55 0 -71 -233l-36 -37v-36z M629 190l20 -12l-12 20h-8v-8zM649 -106h4l16 20h-4zM669 206q29 -36 36 -36h4v4q-8 0 -36 32h-4zM673 218l56 -52h4l-52 60zM689 226v4l20 20l4 -4q-8 -18 -16 -20h-8zM697 82v8h4l8 -8l-4 -4h-4zM709 158l12 -4v4l-8 8h-4v-8zM710 1009l48 -12v37l-24 24h-12zM713 202v4 l24 24h4v-4l-24 -24h-4zM789 -30l4 4h4l4 -4l32 24l4 -4v-4l-20 -20l12 -8q0 10 16 16h4l-16 -20l8 -8q2 16 12 16h4v-4l-12 -16l20 -20l32 28v-4l-28 -32l12 -12v-4l-16 12h-4l24 -24v-4h-4q-31 22 -92 88zM793 710v12h4l8 -8v-4h-12zM793 750l4 20q20 0 20 -20 q12 0 32 -28h8v-16h-8l-4 4l-20 -8l-4 4v12l4 4v4h-4l-4 -4q-13 0 -24 28zM793 790v20h8l8 -8v-4l-8 -8h-8zM793 826q27 52 52 52q0 8 20 24v4h16l12 -12v-8l-8 -12v-4l4 -4v-4l4 4h4l16 -24v-4l-4 -4v-4h8v-4l-12 -4l-4 4h-4l-12 -4l-24 4h-4q-26 -16 -40 -16q-16 0 -24 16 zM821 -50v-4l8 -8h4v8l-4 4h-8zM829 722l12 -4v4l-4 4h-8v-4zM829 846h4l8 8l-4 4h-8v-12zM837 -62v-8l20 -12v4zM853 -58l16 16l4 -4v-4l-16 -12h-4v4zM857 874h4q12 3 16 16l-4 4h-4zM861 -66l16 16v-4l-16 -16v4zM865 846l16 -8q0 8 12 8v4l-20 4zM1181 -193l4 2l2 -1 q7 -1 5 -12l20 11l-3 1l-12 -5l-3 1l10 5l-2 3l2 6l2 -1l7 -8l5 -1l-3 9l2 -1l2 -3l5 -1l1 2l-5 2l55 9q69 36 123 79q5 -2 34 21l3 -1q4 18 0 19l6 12l9 31l-16 110l3 -1l2 -3l2 -1q2 8 10 6q13 13 20 11l2 5l-6 1l2 6l8 -3l-2 -5l10 6l-7 13v3l10 -14l19 8l3 -1l-67 -39 l3 -1l46 26l10 -14l1 5l6 -1q-4 -11 11 -20l-4 -2l-1 -3l2 -3l3 -1l7 4l2 -1l-7 -6l-1 -3q12 -4 8 -38q8 -13 6 -96l-5 -10l1 -3v-2l-5 -7l-1 -14l-3 1l2 -4l-1 -2l-3 -2l2 -3q-7 -22 -90 -72q-5 -10 -11 -8l-2 3q-3 -12 -118 -72l-2 4l-2 1l-1 -3l2 -3l-1 -3l-3 1l-1 3 q-64 -7 -77 -3zM1323 316l11 42l9 7q34 28 214 -125l-12 -42l-9 -7q-26 -21 -213 125z" />
<glyph unicode="B" horiz-adv-x="1325" d="M-179 1589l65 65h11q81 -14 86 -44q-7 -151 -32 -151l-43 33l-11 -11h-11q-21 1 -65 108zM80 1330q0 90 173 129l205 -11h21l238 11q399 -29 399 -183q22 0 22 -54q100 0 119 -173l-141 -119l-21 -75v-22q0 -63 140 -259l-11 -54l11 -140q-31 0 -65 -173 q-40 -32 -226 -97l-11 -32l11 -54q-17 -1 -76 -97q-43 0 -54 86h-11v-21h-21l-33 53h11l-11 43h-151l-86 22l-65 -22h-75l-98 11l-86 -32q-74 30 -97 75v11q13 140 108 140l151 -21l54 32l-22 292l11 291l11 11v11l-22 86l11 54l-11 86l22 65l-43 54l-54 -11l-54 11l-65 -11 h-11q-97 0 -97 87zM123 909v21q87 0 87 76q-44 0 -44 21l33 33h21l33 -33v-43l-65 -97h-43zM188 1859l32 21l22 -21l-22 -22h-10zM199 736v22q60 75 108 75l21 -32q-19 -49 -75 -87h-33zM220 1664q37 76 54 76h11q22 0 22 -32q-18 -49 -65 -76q-22 0 -22 32zM339 1664 q8 119 43 119h54l54 -65q-108 -86 -140 -86zM544 326q0 -29 54 -54l97 11l11 -11h11l129 32l11 -11h11q162 55 162 281q-71 140 -151 140l-108 -10q-11 32 -65 32h-97q-39 0 -54 -335zM555 1049q0 -123 65 -162h86q270 33 270 151h-11q-151 25 -151 54l22 22h10l130 -43v54 l11 10q-28 119 -205 119h-130l-43 11q-54 -14 -54 -32v-184zM857 -285v-10h11l43 21l32 -11l-32 33h-22zM914 1582l3 11l50 20l-8 13l3 10l26 16l-6 57l50 20l10 -2q21 -6 16 -150q-17 4 -64 -72l-69 -4zM944 1600v10l21 22l11 -11v-21h-32zM1017 -221q16 54 140 54h11 l54 -76v-43q0 -22 -87 -22l-32 -43q-11 54 -65 54l-21 33v43zM1343 -397l11 11h11l10 -11v-11l-10 -11h-11l-11 11v11zM1527 99l21 22h33l21 -22v-11l-21 -21h-22zM1624 477v32l21 22h11l22 -22v-10l-22 -22h-32z" />
<glyph unicode="C" horiz-adv-x="1064" d="M-336 30v10l20 20h20l20 -20v-10l-20 -20h-20zM-256 388v30l20 20h10l20 -20v-10l-20 -20h-30zM-166 607l30 20h10q36 0 69 -189l-30 -20h-10q-27 0 -69 189zM-19 -201q7 89 29 89h36l36 -45l-51 -37q0 -15 -43 -22l-7 7v8zM76 1186v10l20 30l-10 50l49 40 q50 -57 50 -110v-30l-30 -29h-40zM82 538v39l20 90l-10 70q100 311 199 358q104 80 209 80q74 0 219 -60l80 60h10q76 0 89 -100l-29 -119q6 -90 20 -90q81 -6 89 -40q-7 -139 -30 -139l-30 20q-6 -100 -89 -100q-101 0 -160 170l10 89q-63 110 -139 110q-169 -26 -169 -80 q-31 -10 -130 -229l30 -80l-10 -39l20 -60l-10 -100q63 -146 150 -199h49q140 0 209 149l-10 50q0 74 130 90h10q83 0 99 -120q-55 -102 -79 -199q-86 -149 -269 -149l-80 -10q-123 22 -179 70q-199 151 -199 368q-18 0 -20 100zM1108 189l9 50l10 -10h10l-10 -10v-20h30 l30 70q-40 0 -40 20v10l20 20h30l30 -30v-40q-43 -78 -70 -90h-30q-19 0 -19 30zM1167 1055l30 20l20 -20l-20 -20h-10zM1197 866v10l50 70h30v-10q0 -50 -50 -90h-10z" />
<glyph unicode="D" horiz-adv-x="1723" d="M-196 -57l26 26l26 -26l52 103h-13l-26 26l39 39h13q51 -21 51 -91q-72 -129 -116 -129q-52 20 -52 39v13zM-54 1053l26 25h13l26 -25l-26 -26h-13zM-28 807v13l64 91h26l26 -26l-77 -103h-13zM-15 666l26 25h13l38 -38l-26 -26h-12zM75 -96q64 77 142 103l181 -12 q78 0 116 129l-26 103l26 103l-13 90q26 34 26 129h12l-25 104v25l51 207l-13 13v77q52 77 52 194q0 61 -129 77l-129 -26q-129 34 -129 142q68 91 129 91h77l-13 64v26l52 52h13q26 0 52 -91l-26 -26v-12l335 -39l-90 103v13q57 64 103 64q33 -3 90 -90q-56 -64 -90 -64 l39 -39l90 13q294 -39 426 -129l90 -103l13 12h26q29 0 39 -64l-39 -39q90 -108 155 -490l-39 -116l13 -65v-51l-155 -349q-56 -44 -129 -219q-206 -142 -309 -142h-26q-63 0 -129 39l-65 -26l-439 52l-116 -13h-90q-129 72 -129 180zM114 820q0 117 77 142q68 0 103 -77 v-13q0 -25 -77 -52q0 -38 -26 -38h-52q-25 0 -25 38zM152 1582l26 64l-13 13v13q25 59 52 65h13l51 -52l-12 -13l25 -129l-38 -26h-52q-52 27 -52 65zM191 614v13l26 26l13 -13v-13l-26 -26zM333 872l39 26h26l38 -52q-19 -51 -38 -51h-13q-52 25 -52 77zM359 1685v39h26 l25 -26v-13l-25 -26zM669 33q0 -82 141 -116q82 12 129 142l-12 116q54 65 116 65q116 -43 116 -155h-13l13 -39q155 84 155 258q41 0 103 258l-13 13v91q-74 425 -194 425q0 52 -167 104l-39 -13l-155 25q-53 -17 -77 -64v-13l26 -103l-26 -258l13 -65q0 -151 -65 -232 l26 -116l-39 -142l13 -90q-21 0 -51 -91zM862 1078v26l26 26l77 -77l-38 -26h-13zM1069 485l38 26l13 -13h13l26 26l64 -52l13 13l39 -39l26 26h13q51 -26 51 -77q-96 -39 -167 -39q-129 47 -129 129zM1546 59v13l13 13h13l13 -13v-13l-13 -13h-13zM1592 -325l26 26h13 l39 -39v-13l-39 -38l-39 13v51zM1719 335l26 25h13l26 -25l-26 -26h-13zM1785 170v26l26 26h39l25 -26v-26l-25 -25h-39zM2023 1375l26 26h13l26 -26v-13l-13 -13v-12q-52 19 -52 38zM2028 395l38 38l13 -12v-26l-26 -26z" />
<glyph unicode="E" horiz-adv-x="1161" d="M-105 585l19 19h10l28 -28l-9 -9h-29zM17 708l10 9h9v-28zM46 567v28h18v-28h-18zM83 199q24 76 57 76l85 -10q106 0 122 142l-19 75v141q0 46 28 94q-28 311 -56 311h-19v9l-75 -19q-123 0 -123 85q0 43 47 94l-9 47v19l38 38l37 -47l-19 -47q70 0 95 -19l84 9l66 -9 l76 19h103l38 -10l28 10l122 -10l113 19q113 -69 113 -141v-38l-9 -56q19 -32 28 -160q-48 -104 -113 -104q-45 0 -94 141l19 76v37q-59 76 -113 76h-217q-28 0 -37 -76l9 -84l-19 -66q12 -76 38 -76h56l76 85l-10 28q13 85 85 85h19q38 -19 38 -47l-10 -28l19 -113v-85 l28 -66l-19 -56l19 -85q-48 -28 -94 -28h-9q-70 0 -94 141q0 28 -104 28h-9q-38 0 -38 -160q22 -160 66 -160h103l113 -28q113 0 113 113q19 0 19 56l-19 66q19 0 19 57l94 75h38q38 -19 38 -56l-19 -38l9 -57l-28 -235l19 -47q0 -94 -283 -94l-414 -10l-75 -28 q-98 0 -170 141zM130 755v19l19 19h19l28 -29v-19l-19 -28q-42 18 -47 38zM1298 1301l19 19h9l19 -19l-19 -19h-9zM1345 849v19l19 19l9 -10v-19l-19 -18zM1354 312v19l19 19h28l19 -19v-19l-19 -18h-28zM1401 651v19l19 19h10l28 -28v-10l-19 -19h-19zM1467 858l19 19h19 l47 -56v-10l-19 -18h-9l-38 47zM1571 454l19 18h9l19 -18l-19 -19h-9zM1580 246v10l19 19l19 -19v-10l-19 -18z" />
<glyph unicode="F" horiz-adv-x="1341" d="M-360 1581l24 23h11l24 -23l-24 -24h-11zM-301 1021v23l23 23l12 -11v-24l-24 -23zM-290 356v23l24 24h35l23 -24v-23l-23 -23h-35zM-231 601v35l58 58h47l116 -81q0 -24 -35 -24q-15 -58 -35 -58h-105zM-231 776v23l23 23h12l35 -35v-11l-24 -24h-23zM-150 1032v12 l24 23h11q22 0 70 -81v-12l-23 -23h-12zM-138 1149v12q0 93 105 93l23 -35v-23l-11 -12l23 -70v-23l-23 -24h-12q-105 63 -105 82zM-10 274v12l23 23l24 -23v-12l-24 -23zM76 1294q26 134 183 134h12l74 -24l73 12l97 -12l98 24h256q86 -4 86 -24l158 48q147 -77 147 -317 l-13 -37l49 -158v-12q0 -67 -61 -98h-97q-45 0 -86 146v13l25 97q-19 140 -232 159l-220 -37l-36 -110l12 -85q-37 -62 -37 -122l61 -61h86q97 70 97 207l73 49q67 0 110 -207l-12 -122q29 0 37 -86l-25 -73l37 -97q0 -74 -159 -74h-12q-64 0 -85 244l-37 25h-12 q-147 -21 -147 -61q49 -73 49 -110l-49 -61v-12l61 -73v-25l-36 -49v-36q12 -37 73 -37l146 12q55 0 110 -97q0 -109 -207 -134l-208 24l-231 -37q-164 0 -196 135q0 69 110 97l98 -24q134 49 134 183l-37 61l13 183v61q0 50 36 97l-12 13v134l-49 244l-73 24l-134 -12 q-98 41 -98 98zM107 484v12l23 23h12l23 -23l-35 -35zM212 1091v35h11l24 -24v-11h-35zM538 1802l12 12v12l-12 35l105 70l-12 11v24l35 35h24q23 0 23 -35q0 -139 -105 -199l-12 12l-11 -12h-24q-23 0 -23 35zM748 1569v105q26 58 117 58h23l93 -46l35 -94v-81l-46 -47h-47 q-43 70 -128 70l-12 12q-35 0 -35 23zM1401 111v12l24 23h23l23 -23v-12l-23 -23h-23zM1495 -238q0 20 58 35l12 -12l58 12q128 -20 128 -129l-11 -11h-12l-12 11h-11l-47 -11l-70 46v12l-58 -12h-12l-23 24v35zM1635 916h11l-11 11v12l23 23h58q163 0 163 -128v-35l-11 -12 h-12l-35 24q-12 -47 -81 -47q-105 0 -105 152zM1670 1581v46q0 24 70 24l-24 35l24 23h-24v23q5 24 58 47q82 -12 82 -35q-25 -47 -105 -47l12 -11v-12l-12 -12v-11h35q0 35 23 35l24 -24l-24 -23q70 0 70 -35v-82l-11 -11l-82 -94h-12l-23 24v23l12 12v11q-48 0 -93 94z M1774 1557l24 -23h11l35 35v12h-11z" />
<glyph unicode="G" horiz-adv-x="1948" d="M-705 1228l29 28h14l28 -28l-28 -29h-14zM-634 547v29l29 28l14 -14v-29l-28 -28zM-549 -204l29 28h28l29 -28v-14l-29 -29h-28l-29 29v14zM-435 -643q0 28 99 42v-14l14 14h71q128 -52 128 -155l-14 -15h-29l-14 15l-57 -29l-85 85l-71 -14h-14l-28 28v43zM-265 785h8 l-8 8v8l16 16h40q103 0 103 -64l24 -24v-16l-40 -8l-8 8h-8q-8 -31 -56 -31q-71 0 -71 103zM-253 1563q61 1 100 -75l6 17l12 6l18 -5l12 6l-17 34q-36 -19 -48 3l13 35l36 -10q-39 76 15 120q51 25 225 -26l5 -11l-12 -34l-24 -13l-18 5l-12 -6q34 -66 -39 -103l-13 -35 l-47 -24q-25 -13 -58 54l-25 -41l-36 10l12 -22l-25 -12l-71 20q-33 95 -9 107zM-208 -341q75 71 125 71q35 -15 39 -31v-24q-24 -28 -24 -55v-23l8 -39q-47 -31 -86 -31q-62 21 -62 132zM-95 1540l28 -29h15l42 43v14h-14zM89 320v383q127 525 241 525q0 122 340 354 l255 85h15q85 -9 85 -42l14 14h14q67 -39 326 -85h184l85 -99l-14 -71v-85l29 -114l-43 -227q-95 -99 -198 -99q-93 66 -142 326q0 92 -312 170l-99 15q-144 0 -298 -213l57 14q85 0 85 -57l-15 -42l15 14h14q99 -20 99 -57v-14q0 -77 -57 -113h-14l-28 28l14 14l-14 43 l28 56v15h-14v-29h-14l-43 29v-15l14 -85h-14q-28 0 -28 57h-14q0 -79 -156 -184l-71 -184v-227q85 -208 85 -383q188 -227 284 -227h99q368 52 368 213l15 71v70q0 156 -199 156q-95 0 -156 114v57q0 70 255 99l596 -71l99 -113q0 -171 -269 -171l-29 -56v-525 q0 -87 -156 -184h-42l-213 71q-150 0 -269 -71h-99q-436 161 -553 383q-128 324 -128 453zM408 -973l61 20l21 -20v-31l-31 -31h-20q-31 10 -31 62zM1074 -919l71 71h14l28 -28v-15l-71 -71l-42 15v28zM1379 -1167q17 122 35 122q78 -38 78 -61l17 -61l-52 -43h-17z" />
<glyph unicode="H" horiz-adv-x="1371" d="M0 101v48h9l18 -19v-10l-18 -19h-9zM82 293v9l19 20h9l18 -20l-27 -28zM101 965q27 106 100 106h46q46 0 46 -19l46 9h27l55 -9l55 19q183 -10 183 -29l101 29h91q65 0 101 -19l55 9h18l37 -9l73 19q128 0 128 -96l9 -10l10 10h27l18 -19v-19l-18 -20h-18q-19 0 -19 29 h-9q0 -43 -73 -58l-101 10q-73 0 -73 -192l-9 -38v-116l18 -29v-38l9 -192q-15 0 -27 -48q0 -85 101 -135l82 20q73 -25 73 -87v-19q0 -44 -146 -77l-156 29l-64 -9h-91l-147 19h-27l-28 -19h-101l-82 9l-165 -29q-146 0 -146 115q0 18 46 58l45 -10h46q86 0 119 135 q-12 48 -27 48l9 192v38l18 29v116q-20 230 -64 230h-18l-128 -10q-55 46 -55 77zM165 792v29h9l18 -19v-10h-27zM476 235q29 -105 55 -105h64q27 0 82 -39q61 48 183 48q27 40 28 106l-9 29l18 48l-9 105l9 10q-23 0 -27 38l-302 10q-62 0 -92 -48l9 -10v-9l-9 -87l9 -57z M485 619l55 -19l28 10l64 -10l64 10l64 -10l36 10l46 -10l55 29q-11 99 -27 115v20l9 9l-9 10v9l18 20q0 96 -110 96l-119 38q-40 -48 -146 -48l-28 -77l18 -67l-18 -29l9 -48v-38l-9 -10v-10zM1181 792v10l18 19h9v-29h-27zM1245 283v19l18 20h9l19 -20v-9l-19 -19z M1300 437l9 58h9q71 0 92 -48v-10l-28 -29h-46zM1346 120v10l18 19l18 -19v-10l-18 -19z" />
<glyph unicode="I" horiz-adv-x="1033" d="M-165 506v31q0 12 19 12q43 -8 43 -24v-19l-12 -12h-37zM-140 298v18l12 12l13 -12v-6l-13 -12h-12zM56 93v41q79 101 152 101l101 -31q122 8 122 31l-20 30v31l-11 405l21 20v11q0 71 -21 71l11 50v21l-21 30v142q41 54 41 91l-31 20h-101q-34 0 -71 -30h-51 q-104 44 -121 81v51l71 61l101 -11h335q110 0 243 31h30q34 -25 51 -81q0 -39 -122 -132l-30 10l-51 -10h-40l-31 20h-40l-20 -142l30 -30v-41l-30 -50l40 -61v-51l-20 -30v-152l20 -31l-40 -121l30 -31v-81q0 -20 -30 -20q20 -102 101 -102h30q34 0 71 31h61q26 -31 91 -31 l61 -81q-20 -71 -61 -71l-91 -30h-91q-37 30 -71 30h-162l-112 -20h-30l-31 20q-10 -30 -60 -30q-203 37 -203 71zM595 702l12 13l13 -13l-13 -12zM748 206v18h19v-18h-19zM816 500v12l12 13h12l13 -13v-12l-13 -12h-12zM834 427v12l12 12h7l18 -18v-6l-18 -19z" />
<glyph unicode="J" horiz-adv-x="1654" d="M-264 -164l15 14h15l14 -14v-29h-14zM-104 518v14l29 29h29l29 -29v-29l-29 -29h-14zM-60 329v29l29 29h14l44 -44v-14l-44 -44zM50 230q47 363 249 363l83 17q109 -44 181 -149v-66q-89 -181 -231 -181v-35h-18q0 -100 266 -180h16q265 0 265 347l-50 99v49 q66 89 66 149v66l-33 182v150l33 181v50l-66 66l-248 -17q-82 95 -82 166v16q84 132 280 132l149 -66l381 66h17q280 -99 280 -231q0 -51 -181 -116l-182 50q-117 -40 -117 -66v-33l51 -99q-33 -87 -51 -431l67 -215l-67 -198l33 -100q-160 -378 -214 -378l-265 -84h-66 q-256 0 -480 281zM145 760v14l29 29h14q102 -78 102 -159l-29 -29h-29q-87 68 -87 145zM331 -615l29 29l29 -29l-29 -29zM809 -884l73 102h44v-15q0 -72 -73 -131h-44v44zM970 -770q13 62 66 62h19l47 -75q-95 -100 -122 -100l-10 13v62l10 13l-10 12v13zM1159 1723v29 q116 0 116 101q-58 0 -58 29v15l29 29h44l43 -44v-29q0 -81 -101 -159h-44zM1943 -164l15 14h14l15 -14v-29h-15zM2098 502h9l-9 9v55q55 63 110 63q55 -98 55 -146q-15 0 -64 -82q-37 0 -46 73h-9v-18h-18z" />
<glyph unicode="K" horiz-adv-x="1386" d="M-41 1001l45 19h6l13 -13l25 -6l7 -7v-6l32 13l19 -26v-6q0 -16 -77 -26q-52 0 -70 58zM52 357h6l-6 7v38q38 44 77 44q38 -68 38 -102q-27 -17 -45 -57q-29 12 -32 26l7 6v6l-7 7l-6 -7h-13zM93 91v46q38 55 73 55l73 -19q85 0 101 64l-19 403l9 110l-9 100l9 174 q0 46 -82 64l-82 -18q-64 30 -64 73q15 54 82 91l156 -9h192q117 -36 173 -36l74 36l347 19q92 -37 92 -128q0 -28 -83 -83q-109 9 -109 28q-77 -21 -119 -92q-43 -150 -165 -229l-9 -27l9 -9v-28l-9 -9q0 -23 91 -100l156 -293q58 -73 110 -73l128 18q100 -27 100 -91 q-29 -110 -109 -110q-458 14 -458 45h-9l-192 -27l-375 -9q-63 25 -82 64zM358 147l19 6l19 -6l-19 19h-6l-13 -13v-6zM449 740q15 -50 46 -73h18q88 61 119 156q138 170 138 210v18l-37 28l-110 -9l-27 9q-119 -15 -119 -55l27 -128zM495 292h73l46 -64v-46l64 10l128 -10 l18 28v36q-101 109 -128 193q-58 73 -82 73q-119 0 -119 -156v-64zM721 1335q15 0 19 35l-13 36q33 25 57 25q63 -11 63 -50h-6l13 -31q-60 -51 -102 -51q-31 8 -31 36z" />
<glyph unicode="L" horiz-adv-x="1191" d="M67 106q61 106 149 106l74 -10q117 30 117 63v54l-11 148l11 106q0 75 -21 75l10 53v149l11 169q-11 43 -64 43h-212l-43 42v22q0 69 117 127l138 -21q43 10 43 74l-22 75q55 53 96 53q106 -25 106 -107h-10l21 -63l-32 -32h11l244 21q53 -15 53 -74v-21 q-95 -107 -181 -107h-21l-42 11q-64 0 -64 -255q32 -68 42 -308l-10 -149q0 -148 117 -148l85 -11h31q128 31 128 64v32q2 127 21 127l-32 106q21 117 106 117h53q43 -21 43 -64l-21 -63v-53l32 -160l-54 -95l22 -85q-46 -106 -128 -106h-212l-244 -11l-213 11l-42 -11 q-202 0 -202 106zM471 1646l74 32h11l21 -21l42 -11l11 -11v-10l53 21l32 -42v-11q0 -27 -128 -43q-88 0 -116 96z" />
<glyph unicode="M" horiz-adv-x="1460" d="M63 93q35 111 139 111q59 0 75 93v19l-19 102v93l19 102v28q-28 34 -28 65v9l28 74l-10 47l10 74l-10 102l10 121q-22 28 -158 37q-47 48 -47 83q23 93 158 93l93 -28l149 38q102 -3 102 -214q37 -30 37 -84l-9 -65l46 -83l-9 -93q0 -70 46 -93h19q35 0 65 186l37 46 l-10 84q18 297 140 297l232 19q167 0 167 -112v-9q0 -51 -56 -84h-93q-24 0 -37 -74q28 -32 28 -93l-9 -121l9 -55l-28 -84q37 -37 37 -343l-27 -93q0 -84 204 -84q37 -39 37 -74q0 -87 -84 -121q-510 0 -510 65v65q0 49 176 93q0 28 19 28l-10 9v10l10 9l-47 74v19 q0 30 47 93q-19 24 -47 185q0 35 47 112v46l-37 56l9 46v121l-19 18h-9q-15 0 -46 -195q-38 -37 -38 -102l10 -130q-56 -82 -56 -204q-28 -28 -148 -56h-19q-56 30 -56 65l10 84q-42 0 -65 241q-56 46 -56 158l-28 19h-9q-15 0 -37 -93l-19 -19v-9l19 -74l-10 -10l37 -92 v-93l28 -93l-37 -93v-111q50 -28 149 -37l65 -56v-84q-30 -48 -84 -65l-46 10h-251l-93 -19q-69 0 -102 93z" />
<glyph unicode="N" horiz-adv-x="1079" d="M-127 1089l44 35h7q54 -7 58 -23q-5 -81 -22 -81q-72 16 -72 46zM93 190v16q48 74 74 74l49 -16q28 0 58 24l-17 322l17 74l-25 41l8 74l-8 33l17 66v17q-31 66 -75 66l-41 -17q-53 22 -57 41v17q0 39 41 66l8 33l8 -8h9l-9 -9v-16q50 21 50 57q-33 0 -33 17v8l16 17h25 l25 -25l-9 -58h9l66 -8l66 8l148 -132v-115q49 -29 66 -124l57 -115l50 -33h16l17 17v8q0 39 -25 58l8 41v24q0 28 -24 58q0 37 33 66q0 115 -50 115q-11 17 -123 33l-9 9v49q0 28 107 50h9l66 -17h33l90 17l-8 41q19 0 25 57l-17 58q43 41 74 41q77 0 91 -132 q-74 -74 -99 -74v-8q91 -22 91 -82q0 -27 -58 -58l-58 8q-34 -1 -65 -33l16 -165l-25 -288l9 -107v-50q0 -57 98 -98l9 -33q-29 -75 -83 -75q-16 17 -107 17q-82 53 -82 165q-131 245 -140 329q-20 0 -42 99l-65 58h-25l-17 -17v-33q0 -100 42 -197v-9l-9 -90l17 -50 l-25 -49v-33q0 -19 115 -41q50 -32 50 -99l-25 -17l-115 -8l-91 8l-74 -16h-33q-80 0 -115 58zM183 1797l25 16l16 -16l-16 -17h-8zM208 1640v8l41 58h8q17 0 17 -25q-28 -58 -41 -58h-9zM299 1632v8q0 99 57 99h17l41 -50q-83 -66 -107 -66zM332 1426l16 16l17 -16l-17 -17 zM356 931q12 -57 33 -57l17 16v25l-33 33zM917 1475l57 25h9l16 -17l33 -8l8 -8v-8l41 16l25 -33v-8q0 -21 -99 -33q-68 0 -90 74zM958 104v24q9 29 76 29h5l30 -41v-23q0 -12 -47 -12l-17 -23h-6q0 29 -29 29zM991 140l16 -16q0 24 25 24l25 -8l-25 25h-16zM991 832v33 l16 17l33 -8l9 8h8l49 -17l33 9l8 -9v-8q-30 -25 -57 -25h-41l-9 9l-41 -17zM999 16l41 33h41l17 -16q-13 -33 -58 -33h-24zM1057 808l16 16h17l8 -8l8 8h41l25 -25l-16 -16l-25 16h-17q0 -24 -16 -24q-38 16 -41 33zM1065 66v8l8 8h8l9 -8v-8l-9 -8h-8zM1106 923l17 16h16 l17 -16l-17 -16h-16zM1123 758l16 17l17 -17l-17 -16zM1180 750l17 16h8l17 -16l-17 -17h-8z" />
<glyph unicode="O" horiz-adv-x="1307" d="M-23 1487q34 70 109 71h14l28 -27l1 -27q-34 -70 -109 -72h-14l-28 27zM111 948l26 84l-16 82q70 297 213 475q63 118 136 155h14v-28q-43 0 -95 -84v-14h28v-14q126 72 192 73l98 -26l82 16l56 1q112 -123 267 -231l131 -371l5 -221q1 -99 -75 -486l-162 -183v-14l96 43 l14 -13v-14l-26 -70l-14 14l-28 -1l-54 -42l-56 26l-290 -60q-388 61 -391 200q-133 223 -146 426l11 153zM158 126v14q-1 83 54 84q47 -10 84 -81l1 -28l-41 -42q-42 13 -43 82l-27 -1v-27zM319 883l16 -83l-12 -83q112 -400 256 -397q163 3 302 130q165 57 159 377 q-4 234 -130 288l42 15q-102 247 -282 244l-69 -2q-275 -82 -268 -475zM1289 1466v14l109 71l29 -27v-28q-34 -70 -109 -71z" />
<glyph unicode="P" horiz-adv-x="1087" d="M-201 1273l38 31h6q47 -8 51 -25q-5 -88 -19 -88q-76 22 -76 82zM82 873l9 45l9 -9h9l-9 -9v-18h9l9 9h9l-9 45v36q56 64 163 64l99 -19l82 10l126 -10l91 10q127 -19 181 -55l9 36l-18 82q54 36 81 36q87 0 99 -145l-81 -81h-27v-9q79 -88 90 -154q0 -123 -81 -181 q0 -127 -199 -172h-36l-109 27h-27l-27 -27v-18l18 -90l-18 -100l54 -18h9q0 78 82 100l36 9l63 -154q24 0 36 -72q0 -50 -54 -81l-181 18h-117l-145 -9l-36 9l-9 -9h-9q-154 0 -154 90q37 99 99 99h109q51 0 63 45l-18 245l18 54q-27 46 -27 90l18 100l-18 72l18 73l-36 18 l-54 -9q-43 27 -118 36q-13 -36 -27 -36h-36q-18 0 -18 27zM136 1660l18 18h9l18 -18l-18 -18h-9zM163 1479q0 45 45 81h27v-9q0 -47 -54 -90zM366 1475v29l6 5l-6 6v6q11 25 23 28h28l28 -34q-51 -45 -73 -45zM534 674l27 -45l-9 -46l154 -27q145 36 145 118v36 q0 104 -127 154h-9l-45 -18l-100 9h-9l-27 -27v-154zM844 -169q10 33 85 33h7l33 -46v-27l-13 -13h-40q0 -26 -20 -26q-6 33 -39 33l-13 19v27zM870 -182v-7h7l26 13l20 -6l-20 19h-13zM941 1331l17 23l6 -11h5l12 23h5q12 0 12 -35l34 -23l11 23h6l23 -46v-11 q0 -31 -80 -58q0 19 -40 46zM1104 -230l9 9h9l9 -9v-18h-9z" />
<glyph unicode="Q" horiz-adv-x="1610" d="M-165 437l13 13l-13 13l37 32q97 -63 97 -103l-30 -19q-104 20 -104 64zM-113 610v26q68 84 256 180q72 397 155 514q0 145 360 334q445 -17 501 -102q196 -275 283 -489l38 -38v-52l-38 -180l25 -25v-296q-115 -84 -115 -244q-81 -133 -180 -232v-89q0 -22 103 -64h13 l38 25h103q128 -55 128 -128v-26l-77 -51q0 -78 -192 -78h-65q-165 81 -257 258l-141 25l-13 13h-26l-51 -13q-209 48 -322 180l-128 193q-52 244 -103 321l13 64q-19 0 -39 52l-13 12h-12l-231 -102zM413 559l39 -51l219 38h12q235 0 335 -180h64q38 0 116 154v52 q0 91 25 141l-25 103v26l25 90q-134 463 -321 463q-50 38 -103 38h-39q-105 -30 -244 -231q-35 0 -90 -257h-13l13 -13v-347l-13 -13v-13zM503 405q84 -180 193 -180h39q90 0 90 77q-9 65 -232 154q-90 -22 -90 -51zM889 83l39 -25h51q64 33 64 103v12l-25 26h-52 q-77 -45 -77 -116zM1177 1937v30q10 37 82 37h6l31 -52v-30q0 -15 -50 -15q-9 -30 -18 -30q-7 37 -38 37zM1485 1829l64 52h64l26 -26l-51 -51h-78zM1802 2192v12l13 13h12l13 -13v-12l-13 -13h-12z" />
<glyph unicode="R" horiz-adv-x="1401" d="M97 71q38 93 81 93l105 -12q69 71 69 116l-11 291l11 69l-23 82l12 58l-12 116l23 104v70q0 46 -197 58l-58 93q0 65 186 116l81 -12h174l279 12q255 -78 255 -197q105 -100 105 -221q-48 -193 -186 -279q-23 0 -23 -58q23 -29 46 -302l-11 -11v-12q23 -104 104 -104 q79 58 116 58q54 0 116 -151q-31 -93 -197 -93q-290 50 -290 186q-24 0 -24 35l24 69l-35 70l11 93q0 174 -278 174h-12l-23 -46l-12 -209l12 -12v-12l-12 -46v-12q0 -46 186 -81q116 0 116 -139l-58 -58l-116 23l-70 -11h-69l-70 11q-75 -35 -139 -35q-149 0 -186 116z M492 942q31 -186 127 -186l70 -11h23q244 56 244 197v81q0 42 -162 93h-93q-186 0 -186 -128zM1560 83v11l23 24h12l23 -24v-11l-23 -24h-12z" />
<glyph unicode="S" horiz-adv-x="1108" d="M-348 166v11l22 22h11l22 -22v-11l-22 -22h-11zM-42 629l6 11l7 -4q-16 -27 32 -126l9 -10l13 7q-1 36 -12 67l15 9l11 147l2 3l7 -4l3 -11q16 -3 19 3l9 101l4 7l7 -4l-4 -30l-6 -2q6 -6 -2 -91l4 -2l12 -2l7 19l10 -6l32 -112l-2 -3l-3 2l-25 61l-11 -3l-2 -4 q11 -103 17 -106l51 -95q-3 -6 16 -37l-2 -3l33 -15l19 -16l15 -4l4 -2l-2 -4l-28 8l-4 2l-22 17l-13 -6l5 -40l-6 -1l-3 2q4 8 -27 34l-19 38l-20 -2q5 -3 -1 -138l-6 -1l-3 2q12 38 -29 86l-29 54l-16 -5l-2 -3q-5 -70 22 -193q11 -14 8 -19l-6 -1q-33 73 -33 190 q13 65 -23 111q-46 98 -38 124zM-39 650l4 16l6 2l3 -2l2 -6l-8 -14zM-23 997l2 4l106 63l144 73l12 35l-28 16q-44 26 -164 -20l-4 2l2 4q73 45 163 25l38 -22l20 -30q5 9 37 1l-2 -3q-8 -7 -57 -4l-49 -36q8 -5 -4 -30l-9 -8l-9 -32l-16 -19l-7 -28l-7 4l9 32l22 29l-1 14 l13 15l4 7l-11 12q-126 -60 -188 -108l-5 -2zM-6 1635v50q34 38 83 38q38 -54 42 -101l-14 -12q0 -13 -21 -13q0 -31 -21 -31l-28 25l7 6v7l-7 6l-7 -6h-14zM31 517q-6 -75 28 -95l27 -57l3 -2l14 1q15 98 -26 121q3 5 -31 42zM39 619q-9 -64 23 -97q-4 -7 20 -21l3 -11 l3 -2l4 7l4 -2q5 9 -39 125l-4 2zM99 591q15 54 76 54q130 -101 174 -261q82 -142 197 -142q196 0 250 207v11q0 207 -261 207q-360 83 -360 196q-65 69 -65 164q67 250 141 250q156 77 251 77q53 0 262 -120q54 15 54 76q-65 0 -65 22l54 44h55q152 -46 152 -229l-43 -98 l11 -55l-11 -54l21 -88v-10l-43 -44h-44q-106 0 -174 218q-102 119 -218 142h-98q-109 -66 -109 -142q35 -153 152 -153l327 -98q34 -37 131 -76q76 -80 76 -153l33 -120q0 -137 -185 -294q-210 -120 -294 -120l-66 22l-43 -32l-22 21v44l11 11v11l-87 32h-11l-88 -54h-10 q-88 0 -120 142l22 87v109zM109 897q-9 10 1 27l22 29l9 32l7 -4l-17 -46l-18 -22zM211 1296l2 4l40 13l4 -2l-6 -1l-4 -7l3 -11q90 -6 111 0l2 -6l-2 -3l-131 -2l-4 2zM228 657l5 1l4 -2l51 -71l-2 -3l-4 2q-48 47 -54 73zM256 363l4 7l16 -5l-4 -7zM289 1431l16 -14l10 -6 l-4 -7l-17 10zM316 1461l2 4l31 5l17 -10l-4 -7q-17 10 -42 6zM320 1404l4 7l10 -6l-11 -3zM340 531l3 -2l3 -10l-3 2zM345 1399l4 7q14 -9 110 -9l7 -4l-2 -4q-6 -10 -119 10zM347 870l4 7l10 -39l-2 -3l-3 2zM347 893l28 49l19 16l6 20l4 -2l-2 5l2 3l23 15l4 7 q-4 25 2 36l7 -4l-4 -7l10 -6q23 7 73 45l4 -2l-2 -3l-80 -65q-18 -62 -13 -150l-2 -3l-3 2q-15 86 6 121l-11 6l-11 -2l-8 -23l-15 -10l-13 -30l-15 -18l-5 -16zM348 513l4 7l36 -17l87 -50l-6 -10zM384 1450l4 7l37 -8l3 -2q-4 -8 -44 3zM436 1063l2 4l7 -4l-6 -11z M439 1441l4 7l18 -1l1 -6l-2 -3l-14 -1zM442 1073l11 27q8 -5 -4 -31zM450 1111l2 26l2 4l9 -24l-6 -10zM485 702l10 8q45 145 8 166l5 80l14 16l7 -4l-9 -23l16 -5l2 4l17 36l11 3q7 33 2 36l-10 6l-3 -12l-5 -2l-7 -19l-4 -7l-11 -3l-4 2q23 66 19 87l-7 4q-6 -11 -13 -7 l14 25q31 14 41 31l-3 11q11 18 23 15q9 -15 3 -26l-35 -21q-25 -44 -4 -62q39 51 50 45l3 -11l-5 -7l-23 -23l1 -15q21 -12 87 61q26 18 64 23l1 -6l-2 -3q-7 1 -49 -36l-51 -26l-17 -36l-26 -45l-7 4q8 14 -4 25l-21 -20l4 -17l7 -4l4 7l4 -2l4 -16l-13 -15l-10 -32 l-10 -3l-4 -7q10 -6 4 -16l3 -2q21 -12 75 49q42 32 75 72q125 58 158 42l2 -5q8 9 33 -6l28 -16q28 -44 33 -70l6 1l3 -2q9 -5 19 -62l-3 2q-11 51 -75 118l-12 2l-17 19l-10 6q-22 13 -71 -10q-18 11 -66 -17q-19 -10 -47 -42q-7 4 -17 -13l-15 -33q-47 -26 -56 -42 q-19 -21 -25 -18q-9 -17 74 -144l-4 -7l-4 2l-73 121q-17 3 -20 -2l-4 -7q-18 -43 49 -163l-2 -3l-3 2q-33 45 -52 109l-11 6l-9 -9q3 -51 23 -110l-5 -2l-4 2q-10 38 -25 52l-8 -14q3 -30 47 -125l-2 -3l-3 2l-37 72q-24 69 -16 84zM535 -52l22 22h43l44 -22v-32l-22 -22 q-82 29 -87 54zM593 1157q2 20 19 49l16 4l-13 -15l-13 -38l-6 -2zM606 830l7 -4l43 -62l-4 -7l-4 2q-38 42 -42 71zM616 1102l3 12l41 64l15 1l3 -2l-19 -17l-10 -17l14 -8l8 14l7 -4l-6 -11l-49 -36zM644 -41l22 22q76 0 76 -65h-11q-46 32 -87 32v11zM666 -150l21 22h11 l22 -22l-33 -22zM669 835l4 7q59 -2 77 -12q-6 -10 -40 4q-6 -10 -41 1zM698 1509v28q11 35 91 35h7l35 -49v-28l-14 -14h-42q0 -28 -21 -28l-14 14l7 7v7q-37 0 -49 28zM742 1485h11l43 21l33 -11l-33 33h-22l-32 -33v-10zM751 825l4 6l37 -16l7 -4q-6 -11 -45 12zM805 807 l4 7l53 -22l14 -8l-2 -3l-62 22zM840 1408l11 11h22v-33h-11zM876 784q5 9 53 -12l-2 -3q-6 -11 -44 11z" />
<glyph unicode="T" horiz-adv-x="1393" d="M-105 -200h26l26 -26l-13 -13h-13l-26 26v13zM100 -8l12 8h39l25 -16v-8l-12 -41q38 -9 38 -50v-24l-26 -17h-25q-39 0 -51 148zM113 952v140l76 295l-12 64v25q0 116 256 116l102 -26h26l192 38l128 -12l153 12q218 0 218 -115v-64l-13 -13l51 -166q-8 -102 -25 -102 q64 -135 64 -218q-26 -90 -103 -90h-25q-154 0 -154 167v205q0 192 -141 192h-13q-115 0 -115 -218l51 -77v-38l-38 -51l26 -333v-64l-13 -116l13 -89l-13 -39q25 -58 51 -64h51l154 39l64 -26l64 26q102 -102 102 -141q0 -68 -166 -115l-51 25l-154 -25h-38l-167 13 l-102 -13l-103 25q-65 -38 -128 -38q-108 42 -128 102v52q0 76 320 89q39 47 39 90v205l13 166q-13 158 -52 231l26 89l-13 64l26 90q-30 153 -77 153q-192 0 -192 -179l-13 -64l39 -89q0 -185 -116 -231l-51 -13q-89 22 -89 116zM138 619q0 51 128 140h26v-12l-103 -116 q0 -25 39 -25v-39h-51zM855 350v13l51 38h26v-13q-6 -26 -64 -51zM919 518q0 101 152 101q19 0 33 -59l34 -34v-34q-8 -25 -51 -25h-8l-67 17l-34 -8q-52 17 -59 42zM944 526q9 -25 51 -25q4 33 25 33l25 -16h9q17 0 17 25q-6 22 -42 42h-43l-42 -42v-17zM1303 606l26 25 q115 -28 115 -64l-13 -12h-13q-115 12 -115 51zM1410 460q46 38 89 38h13l51 -64v-25q0 -39 -128 -51z" />
<glyph unicode="U" horiz-adv-x="1857" d="M73 -76l30 29l15 -15l15 15h29l30 -134q-59 -20 -59 -74h-30l-30 134v45zM95 1442v30q60 89 149 89h134q105 0 163 -30q127 60 194 60q105 -43 149 -119l-15 -15l15 -15v-60q-43 -74 -90 -74l-148 15l-45 -60l15 -178v-30l-15 -194q0 -172 74 -297v-75l-59 -119 q0 -165 283 -268h29q189 0 328 283l-30 119l15 60l-74 164q34 118 89 193l-15 15v312q0 57 -253 134l-30 45v60q45 74 119 74l119 -30l134 45l104 -15l149 30q115 0 179 -149q0 -67 -119 -119l-134 45q-68 -29 -75 -60v-60l75 -461l-15 -74l15 -90l-104 -550l15 -15v-15 q0 -95 -402 -193l-149 30l-15 -15h-15q-215 0 -476 356l-15 45q45 73 45 194v44l-60 253l60 149l-30 134l30 149q0 164 -268 164zM705 -478l15 15h15l15 -15v-15l-15 -14h-15l-15 14v15zM1137 1814v15l30 30l29 -30v-15l-29 -30zM1529 1904v45l44 45h30l45 -45v-60l-30 -29 h-45zM1584 290v15l44 44h30q164 -86 164 -208l-30 -74h-30q-104 21 -104 178q-74 0 -74 45zM1760 -329l30 30h15l45 -45v-14l-30 -30h-30l-30 30v29zM1819 -426l30 30h89l45 -44l-30 -30h-89zM1866 1993l30 29h15l30 -29l-30 -30h-15zM1934 547v31q0 30 31 62h16l21 -6l21 6 q37 -15 37 -49q-1 -20 -53 -44l-16 -37q-57 14 -57 37zM1967 -261l30 30h45l44 -45v-14l-44 -45h-15l-60 59v15zM2104 -552l15 15h15l15 -15v-15l-15 -15h-15l-15 15v15z" />
<glyph unicode="V" horiz-adv-x="1386" d="M-247 742l102 91q132 -16 132 -61q0 -20 -41 -20q0 -30 -20 -30h-10l-31 20l-40 -10l-10 10l-31 -30h-20zM-226 1051q33 103 78 117h31l32 -23l-8 -39v-24l39 -55q-26 -44 -55 -62h-23q-48 0 -94 86zM67 914v10q0 67 81 132l193 -20l40 10l51 -20l71 10q160 0 202 -91 q-38 -142 -182 -142l-10 -31q85 -243 152 -243l30 -40l-30 -51q0 -89 50 -111l41 40v31l-20 30v10q0 20 60 20q41 61 92 284l10 10v10q0 79 -132 102l-51 60q0 57 71 102h152l122 10v20l-20 81l40 41h20l203 -173v-40q-66 -122 -192 -122q-50 -30 -82 -192l-20 -51l10 -30 l-10 -10l20 -21v-30q-60 -61 -151 -273l10 -71q-20 -182 -142 -182q0 -21 -61 -21q-122 30 -122 203q-70 97 -70 222q-19 0 -31 92q-20 0 -20 71q-61 62 -61 172q-49 132 -121 132l-112 -51q-81 61 -81 111zM553 1309q31 51 71 51l41 -40l40 30h21q60 -35 60 -61 q0 -46 -111 -51l-30 41l10 10v10l-10 10l-61 -40z" />
<glyph unicode="W" horiz-adv-x="1416" d="M-68 1330v23l36 36h11l35 -36v-11l-35 -35h-23zM71 1285q59 129 164 129h129q198 -59 198 -164q-128 -119 -128 -152l35 -175l-12 -175l35 -24q47 0 70 105l-11 71q13 175 140 175q85 0 105 -269l35 -23h35l24 23l-24 164l70 198q0 52 -116 106l-24 70q0 78 152 105 l47 -23l117 23q93 -35 210 -152v-12q-210 -184 -210 -210q-35 -361 -94 -561l-23 -187v-94l12 -105q-44 -105 -141 -105q-102 0 -152 222l12 70v59q0 63 -47 93h-35q-19 -82 -35 -82l24 -105q0 -186 -141 -257h-35q-105 59 -105 152v140l-47 199l12 82l-58 222l11 82 q-44 257 -117 257q-82 64 -82 128zM118 724l35 35h12l23 -23v-23l-23 -24h-12zM504 514l23 -35l141 93h70q35 0 105 -46l23 35v35q0 82 -93 82q-46 35 -94 35v11q-175 -127 -175 -210zM1123 409v11l24 24h11l24 -24v-11l-24 -24h-11z" />
<glyph unicode="X" horiz-adv-x="1539" d="M91 238q32 98 115 93l78 -34q90 19 145 110q2 30 150 190q5 88 97 124l16 99q-124 262 -122 305l-93 115h-10l-138 18l-40 -7l-65 73q5 86 87 124q207 -22 206 -42l150 21l20 -1q39 -2 174 -89l20 -1l100 14l415 -34q40 -3 95 -85q-5 -85 -146 -111q-108 14 -107 36 q-47 2 -65 -96q-116 -50 -192 -217q-92 -51 -96 -114l-2 -30q34 -67 111 -145l-15 -89q71 -99 89 -174q37 -62 281 -136q47 -53 44 -92q-39 -96 -174 -89q-513 59 -512 89l-169 -10l-49 23l-79 -5l-158 19l-81 -16q-85 73 -80 164zM626 298q0 -54 49 -80h50q179 30 179 60 l10 30q-56 136 -149 198q-139 -137 -139 -208zM695 1171q19 -123 80 -198h10l59 69q43 0 89 79v50q0 20 -148 60h-10q-80 -13 -80 -60zM1492 1698l46 38h7q58 -9 62 -30q-6 -107 -23 -107q-92 27 -92 99zM1688 1250v10l10 10v10l10 -10h29l30 70q-40 0 -40 20v9l20 20h30 q30 -10 30 -59q-8 -53 -70 -99h-29zM1777 1935l20 20h10l20 -20l-20 -20h-10z" />
<glyph unicode="Y" horiz-adv-x="1348" d="M-69 890l18 19l19 1l29 -27v-19q2 -49 -52 -94h-10v18l25 75q-28 -1 -28 18zM69 1154q41 85 99 87l103 -16l91 31l84 -16l56 2l-22 92q55 39 82 40q94 -19 96 -90h-9l20 -55l-27 -29l9 1q41 1 128 59l130 -5q89 31 193 35q160 -60 162 -125q2 -59 -256 -119 q2 -37 -35 -39q-28 -176 -95 -225q1 -35 -42 -131l2 -74q-63 -56 -61 -95l1 -27l21 -92l-16 -75l1 -46l48 -45l19 1l129 13q131 -48 134 -125q2 -72 -127 -97l-9 -9h-9q-42 -2 -84 24l-55 -29l-222 -7l-28 17l-74 -20l-27 -1q-100 -4 -153 133q-1 38 80 95l139 -4 q49 1 73 48l-3 84l7 83l-13 92l-2 84q-1 26 -108 172l-88 146q-13 52 -125 134l-9 -9l-55 -2q-90 -3 -153 134zM140 405v13q41 45 83 46q37 -53 46 -99q-43 -34 -47 -57q-24 -1 -37 43l-7 -7h-14zM528 1002q86 -119 127 -209l10 1q79 40 114 189q28 6 25 75l-47 35l-102 -3 q-59 -9 -127 -69v-19zM566 1596l74 44l11 1l34 -53l10 14h11l22 -26l54 29l34 -66l-20 -55l-33 12l-75 -17q-90 -3 -122 117zM711 -75l45 38l47 2l19 -18l-36 -38l-56 -2zM1014 870l18 19h9l19 -18l1 -27l-18 -20h-9l-19 18zM1252 89q-1 33 47 66l21 24l11 1q16 -6 17 -35 q0 -9 -47 -42q0 -17 -21 -30h-11z" />
<glyph unicode="Z" horiz-adv-x="1430" d="M-456 8v51l107 82l36 31h23q36 -11 36 -62q0 -16 -107 -71q0 -30 -47 -51h-24zM58 44q0 35 156 267l267 401q66 151 123 201q96 174 133 200q39 39 123 234v11q0 48 -178 78q-212 -61 -212 -78l-78 -100v-189q-59 -78 -100 -78q-145 27 -145 133v67l22 89l-11 78l34 90 l-12 11v11q46 189 190 189l122 11h290l33 -22h56l34 22h133q212 -59 212 -167q-57 -23 -123 -189q-42 0 -100 -178q-98 -76 -134 -134l34 -78v-45q-31 -50 -190 -156q-53 -186 -111 -200q-58 -181 -167 -256v-45q0 -31 111 -56l179 11h167q133 99 133 190v267q36 67 123 67 h22q84 0 145 -167q0 -111 -56 -290l23 -89v-78q0 -124 -156 -167l-134 34l-167 -22h-223l-345 -12q-223 45 -223 134z" />
<glyph unicode="[" horiz-adv-x="898" d="M-51 273v12l25 25l12 -13v-12l-24 -24zM97 1291l24 74v61q0 330 159 330h220l123 24q85 0 159 -73v-37q0 -62 -245 -97l-12 -13h-12l-98 25l-74 -49l13 -269l-25 -25v-49l25 -110l-37 -122l73 -171l-24 -110l12 -86v-233l25 -97v-37q-49 -55 -49 -86l73 -49l208 25 q196 -65 196 -134q-46 -98 -110 -98l-172 12l-146 -24q-197 0 -233 85v37q37 52 37 97q-40 96 -86 123l37 122q-37 72 -37 318l12 86l-24 146l37 111l-37 85l37 74zM776 -225l24 25h61l25 -25v-12q-12 -36 -74 -36l-36 36v12zM956 1234l15 50l66 -20l41 -76l-10 -33l-21 -11 q-38 -7 -67 47zM1223 868l25 24h24v-24l-24 -25zM2213 1988v62h61v-37l-24 -25h-37z" />
<glyph unicode="\" horiz-adv-x="1071" d="M128 1764q15 49 30 49h41q123 0 282 -610q58 -49 142 -329q27 0 101 -244l212 -488l30 -61q-49 -134 -131 -134q-61 0 -152 341l-353 891q-56 192 -101 280q-101 176 -101 305zM791 991v13q65 73 123 73l13 -12v-24l-99 -74h-12zM939 1704l24 25l25 -25l-25 -24zM958 631 v24q0 25 123 50l12 -13v-61l-49 -49h-37z" />
<glyph unicode="]" horiz-adv-x="839" d="M66 1614v37q0 122 196 122h85l98 -24h135q64 0 98 -86l-13 -12l25 -171l-25 -37l13 -12v-98q-37 -45 -37 -86v-12q49 -79 49 -134l-25 -86l37 -73v-74l-12 -12l49 -122l-49 -86l12 -134l-49 -160l61 -97l-12 -257q-52 -56 -147 -61q0 -32 -232 -61q-220 29 -220 86v36 q55 147 134 147l135 -13q134 46 134 135q-24 79 -36 306l24 36l-37 98l37 86q-24 48 -24 134v13l12 12l-37 134v13l25 98l-37 61q0 41 37 85v25l-37 147l-37 24l-195 -24q-46 0 -135 97zM783 1218l49 49h86l24 -24v-25q-12 -36 -73 -36h-49zM886 1003l24 24h25v-24l-25 -25z M910 685v12l25 24h61l24 -24v-12q-12 -37 -73 -37zM1081 1981v62h61v-37l-24 -25h-37zM1191 1847v12l25 25l12 -13v-12l-24 -24z" />
<glyph unicode="^" horiz-adv-x="854" d="M71 1191l4 23q4 30 71 96q195 284 279 277l25 4q138 -113 209 -293q90 -109 84 -151l-4 -24l-64 -48l-8 1q-62 10 -109 147q-26 12 -99 154l-46 23q-32 5 -98 -107q-62 -46 -112 -147q-38 -27 -69 -22t-63 67zM796 723v8q7 24 48 25l49 -48v-8l-24 -24l-8 -1 q-65 35 -65 48z" />
<glyph unicode="_" horiz-adv-x="1116" d="M74 75v62q49 75 113 80l75 -17h13v9q-63 0 50 -18q85 -9 88 -27l151 9h37l113 -9l139 36q188 -36 188 -72v-35q0 -64 -163 -116q-37 18 -239 27l-25 18l-88 -9h-13l-100 9l-50 -9q-289 9 -289 62z" />
<glyph unicode="`" horiz-adv-x="510" d="M123 1447q-42 92 21 134q36 25 129 -76l41 -110l34 -38q16 -24 -23 -67q-57 -18 -92 33l-46 80q-16 -11 -64 44zM380 1l12 12h12l8 -8v-4l-8 -8h-16z" />
<glyph unicode="a" horiz-adv-x="1056" d="M90 14v8l16 17l15 -17l39 17l-8 8v8l16 17h7l16 -17v-16q-20 -41 -62 -41h-23zM160 329q0 166 70 166q164 99 341 99q21 22 78 25h23l24 58q-33 83 -101 83q0 17 -24 17l-39 -8q0 16 -69 33q-61 -21 -78 -50l8 -33q-16 -100 -93 -100h-8q-42 0 -93 75v33q51 133 85 133 q79 55 163 66q223 -21 303 -83q39 0 62 -116l-16 -75l8 -74l-23 -266l62 -25q75 59 101 59h8q38 -22 38 -67q0 -113 -93 -133q0 -16 -54 -24q-101 21 -101 33l-78 58q-67 -75 -163 -75l-108 -16l-8 8h-8l-8 -8h-7q-194 81 -194 182zM284 362q0 -67 140 -124l62 16v9 q-31 0 -31 16v8l54 50h8q31 0 31 -58q132 26 132 108l16 75q-14 58 -32 58h-15q-110 -50 -171 -50h-70q-55 -1 -124 -108zM401 329q33 25 62 25l7 -8v-9q-7 -25 -46 -25h-8zM463 437l7 8h8l16 -17v-8h-16zM494 -284q0 24 46 24q21 59 39 59h39q31 -17 31 -50 q-15 -92 -78 -92v9l-7 -9h-16q-54 0 -54 59zM576 759l2 1l2 -1l2 1q-5 9 1 22l1 -2l-1 -2l2 -4l1 1l2 5l-11 5l1 2l1 1q4 -6 9 -4l1 1l-6 3v2l3 2l2 -1l2 1l-1 2l-6 3l-1 1l9 -1v2h-3l-1 2l3 2l2 -3l2 1l1 5l-1 1l-3 -2l2 6l2 -1l8 8l1 -1l6 9l1 1l1 -1l-1 -14l-3 -2l-7 1 l1 -2l8 -2l6 19l2 1l-5 -22l3 -1l1 1q-3 5 7 23l1 -2q-3 -18 -6 -20l1 -2q15 -7 19 -4l5 -9l-4 -1l3 -1l2 -3h-7l-1 -2l3 -1l1 -2l-1 -6l5 -2l-1 -1l-11 1l-2 -10l1 -1q3 2 1 6l1 1l5 -1l-5 -10l-3 1l-4 -4l1 -2l5 3l2 -3l-3 -2l-3 1l-4 -5l1 -1q5 2 14 -3l-1 -1l-14 1 l-3 -6l-1 -1l1 9l-17 4l-2 -8l-1 2v7l-10 3q3 -5 0 -7l-3 1l-1 1l4 2l-1 2l-5 1l-2 -1l-1 -2l-1 -1l-2 3v3l-2 1zM596 750l1 1l3 -5l-1 -2l-1 -1l-1 1zM608 732q-1 8 3 10h-2l-1 2l5 3l1 -2l-4 -13h-2zM615 731l3 10l1 1l-3 -13zM622 807q4 3 5 14l2 -3l-1 -9h2l3 9l2 1 l-1 -3l1 -1l2 1l2 7l2 1l1 -2l-7 -18l-2 -1l1 7l-2 -1l-6 -6l-2 1zM643 657l3 -1l2 1l-3 1l-2 3l10 -3v-3l1 -1l1 1l3 10l-12 4l-1 1l3 2q3 -5 11 -5l4 13l1 1l-5 1h-1q4 -9 -1 -11l-5 1l-1 2l3 -1l3 2l-3 1v1q-2 4 5 10l5 -2l2 5l-5 4h3l5 2q-3 5 0 7q5 3 34 1l3 2l15 47 l-4 4l2 -1l5 3l-8 4h1h3l9 7l-1 1l-3 -1l-1 1q5 15 2 20h6l2 1l-6 3l-1 1h3l1 1q10 12 8 21q15 20 8 32l-5 6q5 5 15 49l1 2l3 2v-6l13 -2l4 2l-2 -5l-12 2l-1 -1l17 -5l2 5l2 -3q5 3 7 -1l1 -6h2l2 1v2l2 1l1 -2l-1 -2l1 -2q4 2 17 -3l-1 -10l1 -1q3 1 26 -5l1 5l-10 3 l-4 -4l-11 4l9 20l11 45l-5 1q3 -5 -14 -52l-1 -1q15 50 12 55l-43 13l1 1l53 -14l1 5l2 1l-1 -7l6 -3l1 -2l-9 2l-2 -9h2l2 6l1 -2l-15 -51l-2 -1l4 20l-1 -1l-5 -22q4 2 22 -5q2 -5 -3 -8l1 -2l4 2l5 21h2q-3 -21 -7 -22l24 -9l-1 -2l-1 -1q-18 5 -20 8l-1 -1 q-10 -43 -14 -45l3 -1l2 -3q-12 -7 3 -37l2 -1q-6 -3 -2 -31l60 -16l5 22l2 1l1 -2q-3 -19 -6 -20l1 -4l20 -4l7 25l1 -1l-6 -23l12 -6l-2 -1l-12 2l-1 -7l14 -5l-1 -3l-1 -1l-13 4l-2 -1l1 -1l16 -7h-1l-17 3l-5 -15l-1 -1l3 17l-12 4q-5 -3 -3 -8v-3l-4 -1l-1 1l2 14l5 2 q2 -5 16 -6v3v1l-17 4q-2 4 -65 20l-8 -28l-2 -1l-1 4q6 3 9 30l3 2q2 -5 62 -20l5 -1q2 -5 9 -1l5 -6l3 8l-13 3l-4 -4v7q-3 -2 -48 14l-18 3l-1 1v3l-1 1l-1 -1l-13 -51l6 -2l-1 -2l-2 -1l-1 2q-16 -22 -24 -26l-1 1l-14 -16l-31 -2l-7 -8l3 -1l2 -3l-5 1l-1 -2l-2 -1 l-2 1l-1 -3l-2 -1l-2 1l-2 -1q1 -6 -7 -10l-5 -3q-3 5 -8 2l-2 -7l-1 1l2 10l-2 -1l-4 -9l-1 2l2 9l-5 -3l-4 -6v2q-2 3 3 6l-1 2l-13 3l-1 -5l-2 -1l-1 2l1 7l-2 -1l-4 -4l1 6l-7 1l3 -5q-3 -2 -19 15l-8 2l-2 4l1 2l-1 2l-8 2zM687 576l5 3l-2 -5l-1 -1zM688 355l5 2l1 -1 l-1 -5l-2 -1l1 2l-1 2zM698 364l2 1v7l-1 -1zM703 -143l24 24q46 0 46 -74q31 0 31 -17v-16q0 -17 -23 -17q-78 30 -78 91v9zM706 326v8l3 2l1 -1l-3 -11zM710 322q5 3 2 9l5 3q1 -8 -3 -14l-2 -1zM718 324l5 7l1 -2l-3 -7l-1 -1zM732 513l2 1l5 -1l-1 -3l-2 -1l-2 1z M761 757l1 5l18 -5q-2 3 13 43l1 1l-15 -51h-1v2q-3 6 -17 5zM763 769l15 -4l-2 -1l-12 3zM764 661l3 2l2 5l1 9l-1 -1zM768 1032l58 -17l1 -1l-3 -2q-2 3 -54 17zM769 1035l1 5l60 -19l-1 -2l-3 -2q-3 4 -57 18zM772 776l1 1l5 -1l1 -2l-1 -1l-5 1zM773 781h7l-3 5l3 1 l2 -3l3 -1l-1 -2l-4 -5l-6 4zM773 1034v8l39 42h31v-17h-16l24 -41l-16 -17h-39zM787 755l2 1l4 19l-1 -1zM808 612l1 1l10 37h-2zM811 606l2 1l8 32l-2 -1zM826 787l12 47l-2 1l-2 3l7 -2l-11 -49l-3 -2zM827 858l4 2q2 -5 54 -18l8 -4h-1l-64 18zM828 852l10 -3l-1 -1 l-8 2zM829 780l16 53l1 -1l-14 -53l-2 -1zM829 863l61 -18l1 -2l-61 18zM833 878l19 -3l2 -3l-2 -1l-18 5zM834 866h1l61 -17l1 -2zM835 871l2 1l27 -7l2 1l-12 5v1l1 1l15 -4v-7q4 2 24 -6l1 -2l-3 -1l-56 16zM837 786l6 23l1 -2l-6 -23zM847 1195l2 6h2l9 3l-1 -2l1 -2 l10 -3l2 -3l-2 -5l-5 -3l-17 8zM850 777l13 51l-13 4l2 1l13 -1l1 -2l-15 -55zM858 877l4 19l3 2l1 -2q-2 -20 -7 -23zM864 588l3 1l3 -5l-5 2zM865 878l8 18l1 -2l-6 -20zM870 772l7 23l3 2q0 -26 -7 -30zM871 798l1 1l2 12l-1 -1zM871 867l4 2l1 -4q6 4 17 -3l1 -2l-22 5z M874 725l3 2l6 25l-1 -1zM878 768l3 11h2l-3 -10zM880 870l3 7h2l1 -2l-3 -6l-2 -1zM880 1120v1q-2 4 4 11l8 -10l1 -2l-5 -3zM883 767l3 10l1 -2l-2 -7zM886 734l2 1l10 -3l1 -1l-3 -2zM887 741l2 1q3 2 17 -5l2 1l-1 -3l1 -2l-20 6zM892 755l2 1l8 -3v-1l-3 -2zM905 412 l62 16v-16l-23 -25h-16zM906 1010l3 -1l1 1l-3 13h3l7 3l-2 4l-6 3q-2 2 5 9h9l4 -12l2 1q5 3 7 -1l1 -3l-4 -3l-3 1l-2 -1l2 -3l-1 -1l8 -8l-1 -3l-1 -1l-7 1l-3 -2q3 -6 -2 -12l-5 2v2l-1 2v-2l-4 -2l-5 1l-1 4zM913 860v41q0 20 54 25v-8l16 -17v-25l-16 -16h-54z M914 602l15 -4l1 -2l-15 4zM919 1019l3 -7l2 1l-4 7zM921 448l1 -2l25 -5l-1 1zM926 931q-2 4 9 15l5 -9l6 -4l5 -9l-1 -1q-17 -5 -20 0zM929 578q5 14 4 17l3 2l1 -2l-5 -17l-2 -1zM936 913l1 2l1 1q8 2 15 -2h1l4 -6l-5 -3l-14 1l1 3l-1 2h-2zM937 895l1 2l-1 2l6 1l2 -3 l-2 -1zM937 1020l3 6l3 2l5 -8l-2 -5l-3 -2zM947 580l2 5l1 -2l-2 -5zM947 616l6 20l1 1l1 -2l-7 -18zM949 764l1 3l1 1q7 -5 12 -2l2 -4l-2 -1zM952 759l1 1l16 -2q-4 9 4 13l2 -3q-5 -3 -3 -6l16 -6l-2 -1l-14 3l-2 -1l20 -6l5 19l-3 1l-1 -3l-1 -1l-8 3l-1 -1l-1 1v3v2 h-3l-1 -2l-3 -2l-1 2l7 23l2 -1l1 -2l-7 -14l21 -6l1 5l-13 1l-3 5l3 2q3 -5 14 -6l-2 4l5 2l2 -3l-11 -31l25 -10l1 -2l-2 -1l-21 8l-3 -2l-6 -14l-3 5q5 3 5 11l-20 6q2 -5 -5 -19l-2 1l-1 1l5 18zM952 1234l5 2q3 2 9 -3l-1 -3l-8 -4zM954 637v2l1 5l2 1l1 -2l-2 -5z M954 774v1l3 2l9 -5l1 -2zM957 438l1 -2l12 -2l-1 2zM957 613l4 13h1l-4 -15zM962 780l1 1l5 -2l1 -1zM970 742l1 2l3 2l1 -2l-2 -5l-2 1zM973 735l7 12l1 -2l-4 -12h-3zM975 404l39 16v-8l-24 -25zM977 767l2 1l13 -4l-2 -1zM981 760l2 1l5 -1l1 -2zM993 731l3 10l2 1 q1 -8 -5 -11zM996 752l2 1l8 -3h-2l-6 -2zM999 755q2 2 1 9l3 2l-2 1l-1 2q3 1 0 6q10 7 9 9q7 2 10 -3q-5 -19 -1 -26l-5 -3l-4 4l-1 6l-3 1l-2 -1l1 -2h3l-5 -3l6 -3l-2 -1zM1003 510l27 -7l1 1l-1 3q5 3 3 6q-5 -2 -15 3v2l1 1l15 -3q-2 3 3 6v2v2l-8 -2l-1 2l2 5l7 -2 l4 8l1 -1q4 -8 -13 -55h-2l-1 3v7l-1 1q-4 -2 -11 1l-1 -1l-2 3l1 1l12 -2l2 1l-16 6l-1 1l3 2q3 -5 16 -6l2 1l-26 9zM1011 514l2 1l16 -6l1 -2h-2q-13 1 -17 7zM1012 1290q-3 7 3 12l5 -8l-3 -10l-1 2l1 2l-1 2h-3h-1zM1013 358l2 1l2 11l-3 -1zM1015 374l1 -2l4 2v2l-2 4 l-1 -1zM1019 359l2 1l10 -3l-2 -1zM1021 364l1 1l11 -3l-1 -3l-2 -1l-8 4zM1023 523l2 1l5 -1l1 -2zM1031 482q6 4 16 56l3 2l1 -2l-15 -57l1 -2l18 55l1 -1q3 -5 -3 -9l7 -2l3 2l5 11l1 -2l-1 -9l1 -2l9 3l1 5l1 -1q0 -9 -5 -12l5 -1l1 3l3 -5q-3 -2 -14 -45l1 1l14 42l3 2 l3 -5l-1 -7l1 -2l2 1l-2 4l1 5l3 -1l2 1l-1 -3l3 -5l1 1l5 11l1 -1q-3 -19 -8 -21l21 -8l1 -2l-20 6l-5 -13l-2 -1l14 -6l-2 -1l-12 3l-2 -1l1 -6l6 1l2 -3l-2 -1l-9 1q-1 -16 -7 -19l5 20l-1 1l-4 -1q3 -5 -6 -23l-2 -1l-1 1l8 26q-8 -1 -10 3l-2 -1l-4 -13l2 1l3 6l2 1 q1 -6 -3 -10q-10 -3 -11 0l8 16l-5 1l-4 -11l-2 -1l2 12l-8 2l-3 -6l-1 -1l1 10q-12 2 -15 8zM1031 931q13 -2 23 4l1 -2l-7 -3l9 -8l1 -2l-2 -8q-7 -4 -17 4l-5 1h-2zM1039 1345l3 2l3 -5l-3 -2zM1040 921l2 -3l6 1l-4 4zM1042 478l7 2l6 24l-2 -1l-3 -10l-1 -1l-2 3 q3 2 6 21l3 2l1 -2l-1 -3l1 -1l2 1v6l-5 2l-9 -33l4 -4l-3 -2l-2 3zM1044 458l1 2l3 2l1 -2l-1 -5l-3 1zM1056 1305l2 6h1l5 -1l1 -2l-1 -5zM1058 525l3 8l1 1l-2 -8zM1065 516l1 -1l5 -2l-1 2zM1066 1296l22 18l6 1l-1 -11h3l-2 -1h-2l-13 -15q-8 -1 -10 1zM1068 520l5 -2 l1 1l-5 2zM1070 1081l4 1l1 -1l-2 -5zM1076 578v16l31 17h23v-17q-31 0 -31 -16l8 -8l-8 -9h-8zM1076 1113l3 2q-2 5 1 7l3 2l4 -7l-5 -3q8 -3 15 -15l-3 1l-4 -4l10 -8l-3 -1l3 -1l-2 -14q-8 -1 -14 3l-4 8q3 2 -2 10l5 3l-5 2zM1079 472l1 -5h1l2 6l-1 1zM1082 1068l1 5 l2 1l-2 -6h-1zM1083 477l1 -2l1 1q-1 3 5 22l-1 2q-8 -20 -6 -23zM1087 464l13 35l-5 2l-8 -35v-2zM1087 660q-2 8 3 15q5 -8 9 -6l2 1l-1 6q6 1 10 -3l-3 -2l4 -4l2 1v3l7 -1l7 6l2 1l8 -2l-6 -5l1 -2q5 3 8 -4v-2l-2 -1h-3l-1 -1l2 -3l-1 -2l2 -1l7 -1l-2 4l4 1l2 -5l1 3 l9 -1l4 -7q-5 -3 -1 -9q-9 1 -11 4l-4 -1l2 -4l3 2l2 -3l-2 -1l-2 1l-2 -1q2 -6 -7 -15l-2 1l-4 7l2 1l2 -1l4 4l-1 2l-2 1l1 2l-2 3q-2 4 -7 1l-2 1l-1 1v3v1q-14 -7 -21 6l2 6l-5 1l-5 -3l-1 -2l-2 -1zM1096 877q-1 6 5 15l13 -12q-3 -11 -7 -14l-7 4l1 3l-1 2h-3z M1098 481h1l16 -4v-2l-1 -1q-9 0 -15 5zM1099 1002v2l5 3l3 -1l1 1l2 -7l-6 -4zM1102 496l2 1l13 -4l-1 -3q-9 0 -12 3zM1105 679l4 4q5 3 8 -4l3 2l1 -2l-8 -4zM1107 -114q12 43 51 43h16q47 0 47 -38v-5q0 -48 -47 -66h-10l-6 6l-4 -6h-16q-31 20 -31 66zM1110 867h3v2 l7 4q5 -8 9 -6l4 -6l-1 -3l1 -1q-16 -1 -22 9zM1115 404l23 33q39 -11 39 -25v-17l-16 -16h-23zM1118 880l5 3l3 -5l-4 -2zM1131 634v1l1 5l3 -5zM1149 660l5 3l2 -3l-5 -3zM1187 824l4 5l12 2l-1 1l-7 5q12 6 8 13l5 3l3 -5q-7 -4 -5 -7l2 -1l1 -2h-1q8 -4 13 -13h2l2 1 l1 2l-3 1l-1 2l-2 7l-5 1l-2 4v8l5 3l9 3l6 -31l-2 1l-4 -2q2 -3 -6 -8l11 -9l-1 -1q-4 -10 -12 -14l-1 3l3 2l-1 1q-3 -1 -6 4l-2 -1q4 -8 1 -17l-6 -1l1 -6l-1 -1l-3 1l-2 -1l-4 15l3 -1l1 3l10 5l-1 6l-10 5l-2 4q5 2 3 6q-7 -4 -13 1zM1212 983l3 1l1 -5l-3 -2z M1215 993l8 4l3 -6l-8 -5zM1223 880l1 5l4 2l1 -3l-1 -5zM1231 923l4 2q3 2 6 -3l1 -6l-6 -1zM1235 908l2 1l9 3l-1 -3l1 -1l3 -1l1 -2l-1 -2l2 -1l-1 -1l-6 -1l1 -2l-7 1zM1242 895l3 -1l2 1v3l6 1l2 -8l4 -4l-6 -3l-5 1zM1260 960l1 3l2 1q7 1 9 -2l2 -5l-1 -5zM1273 944 l9 3l1 -2l-2 -8l-3 -1zM1283 953h3l1 1l-1 1l6 1l3 -5l-4 -4zM1290 945l3 1l5 -4l-5 -2zM1295 935v1h2h2l2 8l2 1q8 4 10 1q1 -8 -2 -9l-8 -5zM1324 562l5 3l1 -2l-1 -5l-2 -1zM1328 547l1 3l5 2l2 -1l2 1l-1 2l-2 1q-3 5 7 18q1 -3 8 1q4 -8 -4 -13q3 -5 -4 -19l3 1l1 -1 l-5 -7l-3 -2l-3 5l1 3zM1337 550l1 -6l2 1l1 2l-2 4zM1345 812l2 1l5 -1l1 -2l-2 -1l-5 2zM1346 830q-3 6 5 20l9 5q4 -7 14 -1l2 -4l-5 -6h-3l-3 -1l1 -2l3 2q6 -16 2 -19l-2 -1l-2 1l-2 -1l-1 -2l1 -2l7 -1l6 6l2 -1l1 -2l-2 -5l8 -9l-3 -7h-2l-2 -1l-6 -5q-10 4 -12 8 l6 4q-2 3 -8 -1l-3 1l-1 2l-2 11zM1349 806l3 2l3 -5l-3 -2zM1354 843l2 -8l2 1l1 5zM1357 580l8 4l2 -3l-1 -5l-2 -1l-5 2zM1371 575q-4 6 1 13q26 2 33 -10q3 2 14 -3l2 1l4 -6l-3 -8l-3 -2l-7 1v-3l-3 1l-1 -2l3 -1l1 -2l1 -6h-2h-2l-2 -1l-1 -5l-2 -1l-3 1l-1 -1l2 -5 l-1 -1l-5 6v3l-1 1l-4 4l-4 11l-1 2q-12 7 -15 13zM1375 835l2 1l6 5l1 -1l2 -8h2l2 1l1 -6l2 -1l1 -2q1 -9 -2 -11l-5 1l2 1l-3 1l-1 1l-3 9zM1388 578l1 -2l5 -1l1 2l-2 3zM1393 807l5 2l3 -5l-5 -2zM1396 563l1 -8q3 1 6 -4l1 1l-3 9zM1410 570l7 -2l1 2l-1 2l-3 1z M1456 229q16 34 47 34l31 -25v-67q-8 -25 -47 -25q-21 0 -31 83z" />
<glyph unicode="b" horiz-adv-x="1025" d="M-570 1016l1 19l38 46l45 -2l-1 -19l-18 1l26 -39l-1 -10l-18 -18l-54 2zM-414 858v10q1 22 64 26v-10l25 -39l-9 -9l-63 3zM-337 297v9l9 9h9l9 -10v-9l-10 -10l-9 1zM-240 492l1 9q10 28 55 26h9l-1 -19q-36 1 -37 -17l9 -10l-10 -9h-9zM-203 291q15 38 29 37 q44 -14 43 -30v-19q-1 -22 -46 -27zM50 1020q25 74 93 72l27 -1l89 -23l81 16q115 -59 113 -99q-2 -66 -20 -66l15 -76l-21 -75l26 -20l118 43q159 -44 202 -122q89 -38 86 -107l40 -116q-5 -134 -79 -413q-210 -96 -291 -93q-46 31 -169 54l-9 1l-109 -34q-45 2 -67 126 q49 102 51 140q6 161 -21 162l-46 -36l-27 1l-17 19v10q7 28 73 25l27 -1l42 160l-15 85l22 85l1 19q6 153 -57 172l-46 -26h-18l-8 10l-9 -9l-27 1q-53 36 -50 116zM66 63l1 9l18 19l26 -30l-18 -18h-9zM405 447q-11 -283 79 -287l97 -32q112 93 116 213l5 104 q2 63 -102 165h-9q-143 6 -149 -127zM882 -12l24 51l-6 37l58 36q52 -3 91 -48q-44 -29 -45 -59q28 -15 26 -45q-28 0 -29 -37l-52 -28zM934 426l1 10l19 18l8 -10v-9l-19 -19zM1223 670l37 37l35 -39l-38 -37z" />
<glyph unicode="c" horiz-adv-x="712" d="M-457 834v6l26 26h7v-38l-13 -13zM-405 519v7l13 13l6 -7v-6l-13 -13zM-379 288l6 -6h13l-7 19zM-206 693l26 25l25 -25l-25 -26zM-75 152q33 43 44 40q17 -39 30 -45l20 12l9 -4q29 -44 32 -78q-57 -35 -78 -26l-14 6l-12 17l-26 5q-13 47 -5 73zM89 474v7 q48 225 135 225q12 23 38 32l45 -7l58 13h13l109 -26l26 7q36 0 77 -96q-5 -129 -51 -129q0 -11 -39 -26q-71 21 -71 71v6q2 45 13 45q0 33 -90 52h-19l-77 -58q-32 -102 -32 -193q26 -11 51 -70l90 -45q39 0 161 128h6q90 0 90 -64q-101 -148 -244 -148q0 -13 -45 -13h-6 q-93 8 -174 71q-58 88 -58 193zM127 147l13 13l13 -13l-13 -13z" />
<glyph unicode="d" horiz-adv-x="1056" d="M-515 1219l48 39h10v-67l-19 -19h-10q-22 0 -29 47zM-428 722v19l19 19l9 -10v-9l-19 -19h-9zM-198 70q67 59 104 52l27 -6l25 -20l22 2l21 -64q-10 -51 -60 -82q-18 48 -46 53l-33 -22l-7 2q-55 70 -53 85zM79 454v134l47 95l-9 10v9q0 29 182 144l143 48l115 -48l29 10 v105q-42 57 -105 57q-69 -28 -153 -28q-44 33 -58 95q0 46 67 96q108 -9 144 -29l105 10h38q153 -12 153 -124l-9 -202l9 -114l-9 -106q29 -49 29 -95v-96l-20 -77v-9q12 -125 125 -125l10 10h19q51 0 67 -39v-67q-65 -76 -154 -76l-38 19l-9 -10h-48l-163 29l-163 -48h-38 q-239 90 -259 125l10 57q-36 60 -57 240zM280 568q10 -296 86 -296l48 -39h9q163 0 163 144l10 29v19l-10 57l10 48v10q-45 45 -67 134q-60 38 -106 38v10q-134 -72 -134 -154h-9zM375 -369h29v-19h-29v19zM452 1229l19 19l29 -38l-10 -10h-9zM500 1727v19h38l10 -10h9 q0 39 19 39l20 -39l-29 -19zM519 1622l19 19h10v-19h-29zM538 1794v9l10 10h9l10 -10v-9l-10 -10h-9zM787 1296l86 67h10q57 -17 57 -86v-10l-76 -67q-77 48 -77 96zM1026 999l58 39l9 -10h10l38 10h10l48 -48l-67 -48q-75 0 -106 57z" />
<glyph unicode="e" horiz-adv-x="1311" d="M-580 285l4 33l20 30l-5 26q57 35 94 31q67 -39 68 -58q-47 -38 -49 -60l22 -28l-2 -15q-39 -58 -91 -72q-66 79 -61 113zM-517 1288l1 10l48 37l10 -1l-8 -64l-24 -19zM-492 764v10l24 18l10 -11l-2 -11l-23 -18zM-304 274l1 11l23 19l10 -2l20 -23l-3 -21l-25 -18z M-188 272l4 31l21 -3l-4 -31zM85 537l5 42l31 82l13 115q15 131 239 312l212 93l73 -8l31 -16l53 6l126 -15q137 -79 203 -87l32 7q77 -9 83 -212q82 -115 73 -189l-22 -93l1 -85q-23 -104 -117 -93l-9 12l-11 -9l-10 1q-52 38 -103 43l-31 5q-128 14 -234 -6l-42 5l-83 31 l-50 6l-98 -10l-82 30q-84 2 -91 -63q-10 -84 58 -146q98 117 171 109l10 -12l-2 -10q-10 -37 -154 -132q60 -187 283 -213q5 32 112 41l81 -31q107 6 126 166l81 54l73 -8l75 -82l-4 -42q-107 -254 -282 -233q-189 -149 -209 -147l-75 84l-73 9q-298 87 -292 150 q-169 188 -144 398q-34 4 -27 141zM337 747q-6 -62 36 -86l123 -15l83 26q64 -14 97 -47l56 -6l37 19l79 -10l166 -31q51 46 54 76q19 161 -231 270q-214 14 -217 -9l-21 3l-66 31q-95 11 -196 -221zM569 120l3 32l24 18l11 -1l-18 -51zM1493 204l5 43l34 28l11 -2l-9 -74 l-23 -18z" />
<glyph unicode="f" horiz-adv-x="824" d="M-403 864v7l28 28h7v-42l-14 -14zM-368 224v21l14 21l-7 34q45 35 77 35q61 -26 62 -42q-34 -37 -34 -55l20 -21v-14q-34 -53 -69 -70q-63 61 -63 91zM-347 523v7l14 14l7 -7v-7l-14 -14zM-319 272l7 -6h14l-7 20zM-222 1059l42 41h7q52 -8 56 -28q-5 -97 -21 -97l-28 21 l-7 -7h-7q-13 1 -42 70zM-76 307v28q0 28 83 28l14 -21v-7l-76 -42h-7zM-27 620v14q55 0 55 49q-28 0 -28 14l21 21h14l21 -21v-14q0 -39 -49 -77h-20zM0 -33h14l14 -14l-7 -7h-7l-14 14v7zM14 1232l21 14l14 -14l-14 -13h-7zM35 1107q24 49 35 49h7q14 0 14 -21 q-12 -31 -42 -49q-14 0 -14 21zM49 606v7q24 42 63 42l139 -21l14 21v70q49 146 167 146l41 7h42q188 -50 188 -167l-63 -63l-41 -7q-91 24 -91 91q0 48 -28 48h-7q-111 -26 -111 -83v-35q0 -23 195 -35l14 -21v-34q0 -24 -84 -35l-111 14l-14 -21l7 -42l-7 -49l7 -41 l-7 -49l21 -83l-7 -56q0 -21 42 -42l118 28q20 -14 84 -14l13 -28q0 -66 -111 -83h-21q0 -29 -34 -56l-14 -27q-28 0 -35 55h-7v-14h-14l-21 35l7 7l-35 -7l-69 7q-35 0 -35 -14l-49 7h-21l-41 -7q-70 16 -70 69q0 43 49 63l83 -21h28q56 0 56 49v21l-14 83l14 56l-14 49 l7 97q-12 35 -35 35l-111 -28q-77 28 -77 76zM112 1107q5 77 28 77h34l35 -42q-70 -56 -90 -56zM633 961l49 21h7q11 0 21 -28l7 7h7l14 -14l35 14l20 -28v-7q0 -14 -90 -34q0 11 -56 27zM668 -151q11 34 91 34h7l34 -48v-28q0 -14 -55 -14q-11 -28 -21 -28q-7 35 -42 35 l-14 21v28zM696 -165v-7h7l28 14l21 -7l-21 21h-14zM703 -270l35 28h35l13 -14l-27 -28h-42zM731 509v14l21 21h7q37 0 48 -28v-14q0 -21 -27 -21q-49 10 -49 28zM759 -221l7 7h7l7 -7v-7l-7 -7h-7l-7 7v7zM995 342l21 14h7v-49l-14 -14z" />
<glyph unicode="g" horiz-adv-x="1142" d="M18 10l10 146l5 4q18 15 71 -33q37 -45 -38 -133l-39 5zM62 511v17q16 104 80 150l9 36l-62 97q29 194 132 194l9 9v62l-17 124q0 199 282 282h9q80 0 186 -61h35q63 61 185 61q168 -71 168 -194q-35 -97 -115 -97l-132 53l-9 -9v-53l18 -35q-30 -248 -124 -248l-44 -44 v-26q0 -36 141 -45q168 -59 168 -194q18 0 18 -53q0 -151 -159 -238q-59 -89 -265 -89l-89 9l-106 -9q-282 98 -282 177q-15 0 -36 124zM239 820q12 -36 80 -36h61q64 0 71 53q0 36 -115 62q-97 -20 -97 -44v-35zM248 511q0 -87 132 -106h133q268 0 291 141q-48 97 -159 97 l-70 -9l-133 9h-26q-168 -37 -168 -88v-44zM380 1138q0 -112 168 -150h9q97 0 97 141l9 106q-52 53 -150 62q-133 -26 -133 -97v-62zM557 864h27l-18 18h-9v-18zM963 939v27l18 17h26l18 -17v-27l-18 -18h-26zM1114 396v9l26 26l71 -53v-18l-18 -17h-17zM1246 184v18l53 44 l26 -35v-9l-44 -44h-9z" />
<glyph unicode="h" horiz-adv-x="891" d="M-252 -139l1 21l16 14l14 -1l14 -15l-1 -21l-15 -14h-15zM-200 -120l23 23h11l78 -93l-1 -6q-1 -21 -55 -27q-44 2 -56 103zM53 35q17 64 39 63l14 -1l50 -16q44 16 47 63v22l-10 80l1 36l17 57l-19 52l28 150l-11 66l8 29q-12 33 -27 37l-58 -5q-20 1 -48 53v22 q2 39 32 49l43 -2l65 5q108 -27 105 -92l-2 -36l-9 -43l31 -110h8l67 47l58 -2q161 -8 196 -140l14 -29l-10 -58l6 -22l-17 -57l-2 -36l12 -66l-10 -50q-1 -23 114 -56l19 -65q-12 -44 -126 -52l-57 17l-145 6l-64 17l-59 -11l-57 2l-80 11l-80 -11q-86 26 -83 76zM248 1170 l76 62q93 -16 92 -48q-1 -14 -30 -13q-1 -21 -15 -21l-8 1l-21 15l-29 -6l-7 8l-22 -21l-15 1zM285 213q-7 -159 109 -165l21 -8l37 20h15l43 -10q44 13 46 56l-5 58l16 43l5 109q-14 138 -66 140l-14 1q-107 5 -204 -194zM1030 20v14l45 35l21 -30v-8l-38 -34l-7 1z" />
<glyph unicode="i" horiz-adv-x="906" d="M-165 53l30 32h15l111 -119v-8q0 -28 -74 -41q-60 0 -82 136zM86 178v40q39 64 96 64l111 -16h52q30 16 30 40l-7 64l7 56l-15 88l15 73v88q0 40 -30 48l-118 -16q-97 0 -134 80q0 96 126 96q39 -22 238 -32q81 -51 89 -96l-8 -209q-29 0 -29 -96v-24l37 -88l-8 -48 l23 -16h141q89 -15 89 -88q0 -74 -134 -88l-7 -8h-38l-59 16h-7l-23 -16h-44l-89 24h-82l-29 -16q-193 0 -193 80zM301 1100q36 88 96 88h60q76 0 111 -152q0 -71 -104 -81q-156 16 -156 105zM1095 186v24l44 40l23 -32v-8l-38 -40h-14z" />
<glyph unicode="j" horiz-adv-x="802" d="M65 -65q19 56 108 98q148 -42 148 -127l-30 -118l40 -30q137 0 157 246v59l-20 108v79l20 108v177q0 79 -108 79l-128 -30q-128 20 -128 89q0 82 108 98q302 -33 374 -59l30 -39v-20l-10 -108l20 -49l-10 -148q39 -71 39 -108l-49 -79l29 -216q0 -108 -108 -226 q-59 -109 -167 -109q-122 0 -246 89q-69 91 -69 236zM390 958q25 128 118 128h39q95 -98 177 -98v-10q-59 -49 -98 -128l-49 -10h-69q-102 61 -118 118zM1275 338v40l40 39h20l29 -30v-9l-69 -59zM1384 -84l29 29l30 -39v-10l-49 -49l-10 10v59z" />
<glyph unicode="k" horiz-adv-x="1393" d="M-106 475v57l46 45h22l34 -34v-11q-50 -68 -90 -68zM75 159v11q0 62 57 91l90 -23q52 22 57 45v125l22 124v11l-22 125v283l34 90q-31 75 -68 91h-80q-90 0 -90 113v34l57 56h33l159 -11l34 11q113 -72 113 -124q-23 -240 -57 -362v-102q28 -113 80 -113q158 89 158 170 v11l-68 68v34l57 56l158 -11l136 34h79q89 0 124 -68q0 -136 -294 -170q-52 -131 -90 -169q0 -58 147 -306l90 -34h34l23 23l-102 79v23l113 90q19 0 34 -68q45 0 45 -22l-11 -34l57 -68l-23 -45l23 -80q0 -50 -91 -90l-124 11l-238 -34q-56 0 -56 23q-41 -23 -204 -34 l-45 23l-125 -23q-226 0 -226 136zM414 283q0 -36 113 -68q193 0 193 46v33q-76 132 -147 181h-23q-136 -108 -136 -181v-11zM969 1462v26l7 17l20 -17l4 8v9q74 -17 74 -51q0 -35 -19 -68l-82 68zM1647 883v45l23 23l23 -34v-12l-23 -22h-23zM1715 306v68l34 34l34 -46v-11 l-56 -57z" />
<glyph unicode="l" horiz-adv-x="1026" d="M-188 256v9q11 27 74 54h7l50 -45q23 0 23 45h8l16 -18v-27l-33 -55h-7l-33 18l-48 -36h-16zM-50 137v10l16 36h15v-28l-24 -26zM-34 1216v28l15 18l9 -9v-18l-16 -19h-8zM62 247q27 117 104 117l227 -36l31 46v171l-15 82l24 182v45l-9 54l17 55v109l-24 44l-210 -8 q-69 0 -89 127q0 39 129 72h65q59 -4 81 -27l40 9h17l48 -18l24 9q53 0 88 -72l-7 -218l7 -27q-16 -143 -40 -182q28 -50 49 -172q-33 -98 -33 -173v-72l33 -45l80 9l57 -27l96 18h41q56 -44 56 -100v-8q-23 -74 -112 -74q-81 0 -81 -26v-18h-8l8 -10v-8q-29 -110 -98 -110 q-60 25 -64 46v28l64 36v8q-37 7 -79 64l-41 18l-153 -28q-49 28 -114 38l-64 -20h-65q-80 14 -80 92zM86 717q0 51 65 92h32l33 -36q0 -74 -89 -92h-9zM651 1044v36h24v-26l-17 -18zM675 745l48 46h25l89 -74q0 -18 -33 -18l-8 -8v-28h32v-18l-24 -27q-20 0 -24 37l-32 -28 q-11 36 -49 36zM723 1461l16 18h9l15 -18l-24 -18zM756 1044v10l24 26q13 0 48 -72v-9l-15 -18h-9zM772 1134v10q0 64 56 64h16l17 -18l-9 -37l16 -45l-24 -36h-7zM909 881l24 18h9l24 -27v-18l-17 -19h-16q-18 0 -24 46zM942 1190v26l15 19q61 -11 65 -37v-8l-25 -28h-31z M997 817v28l33 27q32 -14 32 -27v-36l-15 -18h-25zM997 1316v27l25 28h16l40 -46v-18l-40 -18h-16zM1102 247v27l25 27l24 -27v-27l-16 -18h-16zM1176 709v18l24 26h32q29 0 56 -108l-32 -36l-17 18l17 28l-32 54l-41 -10zM1264 1597v10l16 18l-8 9v9q0 27 48 27v18 q22 0 33 64h32q16 0 16 -28q-16 -145 -96 -145h-25z" />
<glyph unicode="m" horiz-adv-x="1109" d="M-135 376l26 16l24 -2q45 -44 42 -82l-1 -12l-20 -16l-12 1l-11 13l14 23l-15 37l-12 1l-19 -11q-14 2 -16 32zM-4 1031l1 6l13 17l-5 18l37 9q1 14 27 29q2 36 20 34l18 -1q10 -1 17 -26q-40 -105 -75 -103l-42 4zM26 430l13 11q46 -4 53 -29l-1 -6l-6 -5l-1 -6 q-58 23 -58 35zM102 919v6q22 47 76 43l18 -2q59 -20 56 -64l14 -44q-3 -45 -53 -62q-17 1 -50 52q-66 5 -61 71zM110 30q4 54 113 63l14 18l-3 42l18 222l13 17l9 103q2 36 -34 39l-42 3q-35 16 -31 63l1 12q4 48 65 61l66 -11l24 -2l57 -47l12 -1q73 49 106 46 q93 -18 117 -58l11 -12l24 -2q67 49 136 43q100 -8 148 -120l-4 -127l-21 -35l16 -25l-18 -144l-2 -30l-13 -17l-4 -42q4 -25 107 -99q22 -27 20 -50q-4 -55 -108 -70l-64 29l-97 2l-46 28l-61 -13l-30 2l-59 23l-56 -14l-24 2q-30 27 -58 29q-1 -13 -56 -20l-72 6l-11 13 l-61 -1l-12 1q-71 5 -90 73zM120 392l1 12l13 11l17 -19l-1 -6l-13 -12l-6 1zM338 163q-5 -61 35 -88l121 -3l6 5l9 115l22 40l1 85l1 24l24 71l4 42l-56 64l-12 1q-121 -3 -136 -188l-9 -36l10 -37l-3 -30zM599 172q33 -36 27 -111l59 -16l37 3l17 -8q30 -2 36 70l2 103 q12 74 39 111l-3 31l9 35q1 14 -59 102l-18 1q-55 -33 -84 -66q36 -2 43 -69l11 -13l-1 -12l-25 -11l-6 1l-17 13l-12 1l6 -6l-1 -12l-37 -3l-7 -84zM943 478q5 58 49 74l5 -6l6 -1l31 4q24 -10 33 -33l-6 -5l-1 -7q24 -1 24 -13l-20 -17q-12 1 -11 19h-6l-7 -17l11 -13 l-1 -12l-13 -11l-11 13h-6q-2 -30 -44 -26q-35 15 -33 51zM974 481l5 -18l12 -1l-4 30l18 5l1 12h-6q-25 -10 -26 -28zM992 335l2 18q24 40 51 38l6 -7l-1 -12q-25 -13 -28 -46l-6 -5l-12 1zM1040 325q2 18 39 33l6 -7l-1 -12l-33 -27zM1060 420v6l7 5l-6 7l1 6q2 33 34 46 l6 -1l11 -13l-2 -24q-3 -33 -34 -46l-6 1zM1062 293v6q18 29 51 26q-1 -12 29 -14l4 -19l-7 -17l6 -1l11 -13l-13 -11q-12 1 -10 25l-43 -3l-12 1z" />
<glyph unicode="n" horiz-adv-x="1213" d="M21 -114q0 42 32 55h7l16 -16v-8l-8 -23l8 -40v-31q0 -41 -23 -48h-8l-24 24v87zM68 792v16q16 79 119 79q168 0 220 -79h32q33 55 110 55l71 47l229 -63q47 0 71 -157l-24 -48l16 -260q-24 -5 -24 -63v-24q36 -55 63 -55l71 8h16l8 -8l8 8h8q86 -18 86 -79 q0 -48 -39 -94l-79 7l-47 -15q-89 8 -111 23l-63 -15h-63l-8 7l-63 -15h-23q-30 23 -71 23l-63 -23h-32q-39 0 -39 15l-79 -7h-103l-118 -32q-55 28 -55 79v31q0 41 39 71l87 -15l47 31l-7 95v189l15 71q0 142 -63 142q-142 0 -142 55zM123 -83l16 16l16 -16l-16 -15z M352 -130l32 24q71 -10 71 -32v-39l-40 -40h-39q-24 0 -24 87zM392 477l23 -142l-16 -87l32 -24h63l110 -8l71 16l63 -16h8q32 17 32 40l-8 63l8 8v8l-16 63v71q3 55 16 55l-16 102l16 64q-64 47 -95 47h-16q-32 -24 -102 -24q0 -12 -79 -23q-28 0 -71 -166zM1330 366v32h8 l23 -24l-8 -23h8l16 -16l-16 -16z" />
<glyph unicode="o" horiz-adv-x="1273" d="M97 705q131 391 282 452l212 84q54 -39 310 -56q70 -46 70 -113q108 0 198 -381l14 -14l-56 -183l14 -57q-121 -310 -170 -310l-282 -113l-56 -14q-536 106 -536 705zM299 579q19 -205 157 -205q52 -142 189 -142q204 0 315 299q0 357 -220 473h-189q-164 0 -252 -268 v-157z" />
<glyph unicode="p" horiz-adv-x="1385" d="M67 -24q41 156 138 153l121 -15l38 47l3 97l18 194l-6 231l23 376l-47 38l-110 -21q-108 40 -105 137q3 124 174 141l60 -14l122 8l95 -76h24l172 68l243 -20q166 -123 163 -235q61 -2 66 -221l35 -50q-28 -424 -133 -421q-122 -167 -273 -162l-72 2l-194 42 q-49 -11 -50 -71q-2 -44 58 -75l62 22q194 -5 188 -223q-86 -83 -282 -77l-85 15l-122 -9l-109 15l-97 -21q-121 32 -118 125zM470 36l11 -12h12l25 23l-11 13h-12zM525 1104l36 -37l50 47l-24 25l-36 1l-25 -24zM541 411l24 -25l37 11v24l-47 50l-12 -11zM600 762 q-4 -146 198 -298h24q172 46 177 225l29 145l1 49q2 74 -152 211l-24 1q-248 -164 -251 -272z" />
<glyph unicode="q" horiz-adv-x="1026" d="M49 656l9 9v10q46 0 73 -46l-27 -18q-38 12 -55 45zM85 729v27l37 37h9q73 -38 73 -55q0 -57 -46 -82l-9 9h-9l-18 -18v18l9 10v9h-37v9l10 9v9zM104 356q59 369 200 409l27 28q173 -13 173 -28l64 19l72 -19l55 19q45 0 73 -109q-37 -106 -37 -164v-109q3 -64 19 -64 l-28 -100l9 -164l-9 -181q0 -25 46 -46l109 18q55 0 55 -63v-37q0 -33 -137 -54l-109 36l-209 -46q-64 27 -64 82q18 64 73 64l45 -9q40 1 91 36l-9 46v9l18 100v27l-27 27h-18q-91 -82 -200 -82q-237 67 -237 200q-18 0 -45 155zM113 738q36 0 36 -27h9v36l-9 9h-36v-18z M240 347q70 -209 155 -209l54 -9q173 74 173 291q-64 218 -173 218l-36 -27h-46l-9 9q-76 0 -118 -273zM861 980l13 13l-13 39l19 26l7 6h26q34 0 45 -26q-15 -71 -65 -71l-19 -13z" />
<glyph unicode="r" horiz-adv-x="1101" d="M-282 460l2 18l19 17l18 -1l17 -20l-1 -18l-29 -25zM-139 857v6q20 58 60 84l17 -1q33 -5 32 -19l-8 -38l25 -45l-1 -6q-16 -54 -53 -52l1 6l-6 -5h-6q-25 2 -61 70zM76 822l9 9l27 -2l17 -19l-1 -18l-29 -26q-18 1 -23 56zM85 249l2 28q6 87 88 94l116 -35l38 25l1 9 l3 191l23 71l8 136q5 73 -67 78l-37 2q-33 2 -93 -31l-27 2q-31 13 -49 85q42 116 125 110v-9l46 16l72 -23l90 -6q15 -1 76 -96q168 99 333 88q177 -81 169 -202q-3 -57 -91 -149l-91 6q-78 59 -71 168l-26 20q-49 3 -125 -101l-26 11q-85 -109 -93 -167l7 -28l-31 -71 q6 -127 55 -130l91 3l80 -24l10 9l9 -1q62 -23 60 -58q-98 -121 -153 -118l-62 23l-101 -3l-80 14l-220 -13l-18 1q-44 26 -41 75zM575 500l19 17l8 -10l-1 -27l-9 1zM671 448l3 37l18 -1l17 -20l-29 -25zM789 432l1 18l19 17q67 -15 70 -41q-14 -45 -30 -44q-56 28 -60 50z M808 21l1 18l29 26l34 -39l-39 -33zM1003 91l2 27l19 17l10 -1l33 -38l-38 -34zM1161 990l1 9q68 78 114 75l63 -4l51 -58q-1 -18 -37 -16q-3 -36 -30 -34l-44 30l-19 -17l-26 20q-2 -36 -29 -35l-18 1zM1261 110l20 26l2 27l-16 29l28 25l9 -10h9l-13 -63l-1 -9l17 -28 l-29 -26zM1317 161l1 10l19 16l17 -19v-9l-20 -17z" />
<glyph unicode="s" horiz-adv-x="1164" d="M-450 938v22l101 90q146 -19 146 -68q0 -22 -45 -22q0 -34 -22 -34h-11l-34 23l-45 -11l-11 11l-34 -34h-22zM-225 18l22 23l22 -23v-11l-22 -22zM-101 1462q27 78 64 88h26l25 -18l-6 -41v-6l32 -41q-21 -33 -45 -47h-19q-39 0 -77 65zM54 41l56 213v22l-22 124v56 l78 78h34q47 0 101 -191q124 -97 269 -145q108 0 179 56l23 -23h22q0 23 45 23l56 78q0 146 -146 202h-33l-90 -22l-56 22l-123 -11q-359 82 -359 269v89q0 66 45 135v22q-56 8 -56 34q0 90 112 90q33 0 33 -56h12q111 60 112 78l112 -11h123l157 -45l146 67 q123 -15 123 -89l-22 -191q33 -74 33 -157l-33 -22h-56q-24 0 -135 168q-95 71 -325 101q-190 -59 -190 -157v-11q38 -146 235 -146h45l89 22q26 -19 281 -44q145 -93 145 -225v-112q0 -31 -112 -224q0 -72 -347 -156q-71 40 -224 78l-56 44h-23q-112 -134 -168 -134 q-90 37 -90 101zM424 1576q34 56 79 56l45 -44l44 33h23q67 -34 67 -67q0 -48 -112 -56q0 22 -34 22l-11 12v11l11 11v11l-11 11l-67 -44zM671 265v11l33 23l12 -12v-11l-34 -22zM1052 1279l29 24h15l124 -94q-79 -41 -131 -41l-8 5l-14 -11v11l7 6v6l7 -6h15 q-29 38 -44 100z" />
<glyph unicode="t" horiz-adv-x="1325" d="M-1 1265v34h10l20 -23l-20 -22zM79 996v67q0 90 110 135q138 -34 300 -34h20l30 56v79q-25 0 -40 292q31 101 110 101q93 0 161 -180l-20 -146q0 -202 50 -202q136 0 180 45h60l110 23q70 -33 130 -169q0 -90 -150 -123l-140 11h-50l-30 22h-100q-70 -36 -70 -168v-281 q0 -44 100 -135v-11l-50 -101q10 -67 30 -67h100q80 14 80 78l-20 202q0 34 110 124h10q68 0 180 -169v-44l-90 -124l10 -11v-180q0 -70 -330 -179q-361 114 -361 325v483q0 60 50 168v12q0 78 -70 78h-80l-30 -22h-90l-120 -34q-69 32 -90 79zM229 344v12l10 11h10l10 -11 v-12l-10 -11h-10zM309 -250l20 22l20 -22v-12h-40v12z" />
<glyph unicode="u" horiz-adv-x="1206" d="M45 889q53 109 112 109l102 -29l102 9q48 -69 102 -69l10 -10v-50l-10 -10q-55 0 -65 -168q13 -143 75 -199l-65 -70v-29q25 -119 102 -119h9q110 32 186 148q47 75 47 110v188q0 54 -38 70h-65q-58 0 -121 79v30q79 119 121 119l93 -29l75 19q76 0 121 -119l-38 -129 l10 -59l-10 -60l10 -89q0 -91 -47 -199l37 -50q22 -20 112 -20q102 -72 102 -119q-60 -99 -111 -99q-119 0 -298 60h-9l-121 -50h-130q-195 70 -195 268v89l9 139l-9 100l9 109l-37 30l-47 -10h-46q-84 53 -84 109zM926 1137q22 61 53 69h20l21 -14l-5 -23v-14l26 -32 q-17 -27 -36 -37h-16q-32 0 -63 51zM1133 825l61 114q79 -21 79 -76q0 -26 -25 -26q0 -38 -12 -38h-6l-18 26l-24 -13l-6 13l-19 -38h-12z" />
<glyph unicode="v" horiz-adv-x="1311" d="M-241 832q26 81 62 92h24l25 -18l-6 -31v-18l30 -43q-20 -36 -43 -49h-18q-37 0 -74 67zM42 716v10q0 64 78 127l186 -20l39 10l49 -20l68 10q154 0 195 -88q-37 -137 -175 -137l-10 -29q82 -234 146 -234l30 -39l-30 -49q0 -86 49 -107l39 39v29l-19 29v10q0 19 58 19 q39 59 88 274l10 10v9q0 76 -127 98l-49 59q0 54 68 97h147l117 10v20l-19 78l39 39h19l195 -166v-39q-63 -118 -185 -118q-48 -28 -78 -185l-20 -49l10 -29l-10 -10l20 -19v-30q-59 -58 -147 -263l10 -68q-19 -176 -137 -176q0 -20 -58 -20q-117 29 -117 196 q-69 93 -69 214q-17 0 -29 88q-20 0 -20 68q-58 60 -58 166q-47 127 -117 127l-108 -49q-78 59 -78 108zM94 187l69 62q89 -11 89 -41q0 -14 -27 -14q0 -21 -14 -21h-7l-21 14l-27 -7l-7 7l-21 -21h-14zM698 1090q29 49 69 49l39 -39l39 29h19q59 -33 59 -58q0 -45 -108 -49 l-29 39l10 10v9l-10 10l-59 -39z" />
<glyph unicode="w" horiz-adv-x="1311" d="M86 779v12q0 93 161 160l79 -46l12 11h92l103 12q134 -30 172 -69h57l92 69l150 -12q63 0 149 35q102 -43 102 -115q-4 -60 -160 -138l-68 -276q0 -227 -139 -470h-22q-126 0 -126 206l-11 46l11 70q0 30 -58 56l-69 -206v-103q-50 -81 -126 -81q-91 31 -91 104l11 45 q-58 119 -58 322q-26 0 -45 264q-23 20 -195 35zM166 181v12l23 23l23 -23v-12l-23 -23zM452 675q21 -195 47 -241h34v12l-11 80q33 1 126 149l11 12h12q126 -36 126 -70v-114q7 -69 34 -69h35q34 87 34 218v23q-48 72 -171 116q-156 0 -277 -93v-23zM1324 170v23l23 23h23 l23 -23v-23l-23 -23h-23z" />
<glyph unicode="x" horiz-adv-x="936" d="M82 57v66q0 43 172 49l148 181v8q0 44 -139 197l-33 17l-41 -17q-107 13 -107 41v8q31 115 90 115q74 -13 74 -24l25 8l189 -25l320 41q73 -31 82 -57v-41q-8 -66 -66 -66l-74 8q-55 -7 -156 -172v-57q82 -107 148 -107q0 -90 148 -115l16 -25v-24q0 -28 -156 -58 l-123 25l-66 -17q-30 25 -57 25l-74 -25l-82 9l-49 -17h-41l-8 8l-74 -16q-48 16 -66 57zM427 181l33 -33h49l24 24v25q-32 49 -65 49q-38 -16 -41 -33v-32zM443 525q0 -24 33 -24q57 11 57 32v33l-24 25h-25l-41 -41v-25zM747 1157l49 41h8q62 -10 66 -33q-6 -114 -25 -114 q-98 29 -98 106zM961 903q0 101 47 101h14l34 -55q-69 -74 -88 -74zM977 632v8l8 8v9l8 -9h25l24 58q-33 0 -33 16v8l17 17h25l24 -25v-16q0 -46 -57 -90h-25zM1026 1354l25 17l16 -17l-16 -16h-9zM1051 1198v9l41 57h24v-8q0 -41 -41 -74h-8z" />
<glyph unicode="y" horiz-adv-x="1393" d="M80 948v12q0 58 57 102l80 -11h170v11l-11 57q59 57 102 57h12q79 0 136 -137l68 -68q85 80 125 80q212 11 342 45h57q77 0 125 -125q-50 -125 -114 -125l-125 11q-68 -147 -68 -273l-91 -204v-57l34 -46q0 -18 -80 -57l-125 -466l11 -45l-45 -46l-12 12h-11v-23 q-45 0 -45 -46h-12l-11 12l-182 -80h-23q-216 0 -307 216l-46 137v68q68 79 148 79l12 -34l11 12h80q91 -68 91 -114l-23 -114l34 -22h46q136 111 136 216v125l-171 364q-103 352 -159 352h-23l-68 -11q-125 40 -125 136zM534 760l125 -281q0 -89 62 -125q91 107 156 406v10 q-31 50 -166 94h-21q-49 -56 -135 -63zM854 -544q9 27 80 43v-7l8 7h24l49 -58v-43l-25 -22l8 -36v-7l-24 -22v-8h-8l-8 8l-8 -8l-48 8v22l16 14q0 33 -64 51v58zM877 1184l25 31l8 -10h9l24 31q25 0 25 -42h8l8 11h9l16 -21l41 21l25 -42v-21q0 -24 -107 -52q-77 32 -91 94 zM1592 -181l21 21h32l31 -31v-32l-21 -20h-42l-21 20v42z" />
<glyph unicode="z" horiz-adv-x="1086" d="M-342 -132l24 23h23l34 -34v-23l-23 -23h-34l-24 23v34zM68 -2v11q0 41 150 150l334 334l93 104v35q-19 46 -81 46h-69q-162 0 -162 -208q-33 -92 -103 -92h-35q-81 56 -81 127l58 207l-11 12v11q34 127 80 127l92 -23l93 11l126 -11l104 23l92 -23l81 23h11 q139 -28 139 -138v-12q0 -83 -150 -173q0 -37 -138 -115q-35 -85 -231 -242l-11 -58q0 -14 207 -57q161 49 161 138l-11 138q30 93 104 93h46q34 0 57 -116l-11 -184l34 -69q-92 -196 -172 -196h-12l-12 12l-11 -12h-46q-56 0 -115 35l-104 -23l-127 23h-138q-58 -3 -58 -23 q-173 0 -173 115zM246 -513l63 47h11q57 0 85 -39q-8 -101 -32 -101q-117 24 -117 86zM638 -247l34 23l23 -23l-23 -23h-11zM672 -455q39 81 58 81h34v-11q0 -58 -57 -104h-12q-23 0 -23 34zM747 -306q0 112 61 112h17l43 -61q-87 -82 -112 -82z" />
<glyph unicode="{" horiz-adv-x="876" d="M30 714q4 99 49 217q139 153 213 153l79 25l34 -5l54 5l5 -5l15 15h25q32 -40 74 -40q127 -58 192 -177q20 -26 20 -55q18 15 35 15q49 -11 49 -49h-5l10 -30l-59 -49l-5 -69l5 -25q0 -41 -65 -158q-75 -91 -177 -138l-119 -35l-34 5l-25 -5q-81 0 -227 94q0 16 -79 79 l-44 104q-15 55 -20 128zM84 685q9 -112 129 -242q59 -43 128 -64q0 -10 79 -15l108 15q22 21 79 34q158 116 158 276q0 114 -64 232q-110 112 -237 134h-10q-162 -7 -162 -45q0 -39 -10 -39l-20 15l-5 -5h-5l-15 14q-84 -30 -143 -167l-10 -60v-83zM129 606q0 21 84 88 q74 41 74 84v5l-65 183l5 5h10l183 -119q16 0 64 55q42 15 109 79h14l15 -15q-15 -29 -49 -193h-5q0 -26 163 -128l10 -15v-5l-5 -5v-5l-35 5q-19 -10 -163 -14q-21 0 -64 -124l5 -5l-30 -94q-21 0 -44 84q-45 113 -54 114l-5 5h-5l-138 -5q-74 0 -74 20zM257 650l10 -10h20 q36 0 39 15v20l-20 10l-49 -25v-10zM336 828l5 -25h15l10 10v5q-5 15 -30 15v-5zM371 709q28 -64 39 -64q79 0 79 54l10 40q-54 39 -74 39q-14 -69 -54 -69zM371 729h14l10 20v5q-21 -12 -24 -25zM390 1153l15 10l10 -10l-10 -9h-5zM415 591q12 -35 20 -35l5 5l5 15h4 q-6 25 -14 25h-15v-10h-5zM479 828q6 -25 15 -25h20q13 0 24 59l-5 5h-5zM548 670l5 -5h10l25 5v10q0 9 -15 9l-5 5v5q-20 -5 -20 -29zM647 324h5l-5 5v30q30 34 59 34q30 -53 30 -79q-8 0 -35 -44q-22 10 -24 20l4 5v5l-4 5l-5 -5h-10zM829 961l35 15h5l10 -10l20 -5l5 -5 v-5l24 10l15 -20v-5q0 -12 -59 -19q-41 0 -55 44z" />
<glyph unicode="|" horiz-adv-x="412" d="M112 75l10 182v599l-10 277l10 236v138q0 84 58 118h29q41 0 68 -256l-29 -118l29 -96l-20 -54l-9 -491v-32l9 -64l-9 -54q0 -259 29 -363q-29 -75 -87 -75q-27 0 -78 53z" />
<glyph unicode="}" horiz-adv-x="936" d="M-89 425q7 0 36 43q22 -10 24 -20l-5 -5l-1 -5l5 -5l5 5l10 -1l14 -25h-5l5 -5l-1 -30q-31 -33 -61 -32q-28 55 -26 80zM26 658l61 47l7 69l-4 25q2 42 71 155q79 89 183 132l119 29l35 -6l25 4q80 -3 223 -103q0 -15 76 -82l40 -105q12 -56 15 -129q-8 -99 -58 -215 q-145 -147 -218 -144l-80 -22l-35 6l-54 -2l-5 5l-15 -15l-25 1q-31 41 -72 43q-125 63 -186 185q-18 27 -17 55q-19 -14 -35 -14q-49 14 -48 52l5 -1zM143 748q-5 -114 55 -235q106 -115 231 -142h10q163 0 165 38q1 39 11 39l19 -16l5 5h5l14 -16q85 28 150 162l12 59 l3 84q-4 112 -118 247q-58 45 -126 69q0 10 -78 18l-109 -11q-23 -20 -81 -31q-162 -110 -168 -270zM169 801l1 5l5 5v5l34 -7q20 9 164 9q21 -1 69 120l-5 6l33 92q22 -1 41 -85q41 -115 50 -116l5 -5h5l138 -1q74 -3 73 -22q-1 -22 -87 -86q-76 -37 -77 -81l-1 -5l57 -185 l-5 -4h-10l-177 125q-16 1 -67 -51q-42 -14 -111 -75l-15 1l-14 15q16 28 57 190h4q2 27 -157 135zM321 751q-1 -10 14 -11l5 -5v-5q19 4 20 29l-4 5h-10l-25 -4v-9zM363 566l5 -5h4l51 37q-5 25 -14 26h-19q-14 1 -27 -58zM407 688q52 -42 72 -42q17 68 57 66 q-25 66 -36 66q-79 3 -82 -51zM411 1421q8 0 36 43q22 -10 24 -20l-5 -5v-5l5 -5l5 5l10 -1l13 -25h-5l5 -5l-1 -30q-31 -33 -61 -32q-27 55 -26 80zM463 849q5 -25 14 -26h14l1 10h5q-11 35 -19 35l-5 -5l-5 -14h-5zM475 270l10 10h5l9 -11l-15 -9zM510 -45q1 12 60 17 q42 -2 53 -47l-35 -13h-5l-10 10l-19 6l-5 5v5l-25 -9l-14 21v5zM510 669q22 11 26 24h-15l-11 -19v-5zM537 604q4 -15 29 -16v5l-4 25h-14l-11 -9v-5zM582 745l20 -10l50 22v10l-9 10l-20 1q-36 2 -40 -13z" />
<glyph unicode="~" horiz-adv-x="921" d="M-145 559l14 12l7 -1l11 -13l-13 -12h-7zM96 708l1 19q4 50 86 121l40 17l127 -3q43 -3 294 -175l57 -11l117 30l13 -1l12 -13q-12 -159 -164 -148h-7l-1 -19l-13 1q2 26 -93 33l-214 143l-74 31q-66 -6 -163 -39h-6zM268 350l47 28h6l12 -14v-6q-19 -31 -53 -28z M293 949l13 12l12 -20l-7 -6l-7 1zM347 996l1 7l6 6l7 -1l6 -7l-1 -6l-7 -6l-6 1zM356 938v7l7 5h6l6 -7v-6l-7 -6h-6zM400 1018v6l21 18l18 -20l-1 -13l-14 -12l-6 1zM402 526l27 17l18 -21l-7 -6v-6l4 -32l-21 -24h-7q-14 1 -14 72zM762 979l1 25q1 10 27 18l25 -15l19 5 l-1 -13l-13 -11l-6 6l-7 1l-40 -23zM916 987l13 12l19 -2l12 -13l-3 -38l-20 -18q-4 36 -21 59z" />
<glyph unicode="&#xa3;" horiz-adv-x="1287" d="M95 238l8 9l-8 8v18q17 253 177 253h42l33 -8q68 0 68 61v8q0 82 -59 114h-93q-84 37 -84 96q0 44 67 61l76 -8h25q34 11 34 52h8l-8 44v35q40 288 101 288q25 113 244 113l8 9h9q138 0 277 -175v-61q-42 -87 -101 -87h-25q-45 0 -76 140q0 37 -92 61h-25 q-100 -36 -143 -105l-26 -70v-122q0 -91 59 -122h169q101 -9 101 -88v-17l-43 -44q-243 0 -243 -52l-9 -9v-9l17 -113l-8 -105q172 -149 294 -149q0 -17 42 -17h101q67 39 67 78q-25 6 -25 70v18q0 17 25 17v18l-50 78v18q0 70 67 70t118 -149v-9q0 -259 -109 -305 q-95 -44 -211 -44q-158 0 -328 105h-17q-144 -96 -193 -96h-34q-171 0 -227 122zM230 325q25 -78 92 -78q51 41 51 70q-9 70 -85 70q-58 -29 -58 -62zM373 1505v17l50 35q44 0 67 -44q-6 -52 -16 -52l8 -9v-26l-17 -17q-92 27 -92 96zM591 998v26l9 -8h17q14 0 33 52l-25 26 l17 18h17l25 -27v-17q0 -46 -51 -87h-25zM633 1706l17 17h9l16 -17l-25 -18zM659 1557q31 65 50 70q17 0 17 -26q-22 -56 -42 -61h-9zM751 1548v70l34 35h33l43 -43v-9q-75 -61 -101 -61zM1298 1190q16 40 34 44h8q51 -6 51 -26v-35q0 -46 -26 -53h-59v18zM1424 -32l67 26 h17l17 -18q-14 -35 -59 -35h-17z" />
<glyph unicode="&#xa9;" horiz-adv-x="1240" d="M-352 875v6l23 22h5v-33l-11 -11zM-307 609v6l11 11l5 -6v-5l-11 -11zM-285 413l5 -5h11l-6 16zM-139 756l22 21l21 -21l-21 -22zM79 740v95q0 257 218 449q92 79 266 102l54 7l20 -7l28 7h13q138 -20 286 -143q177 -201 177 -327q14 0 14 -95q-9 -48 -20 -48l6 -34 q-80 -313 -156 -313q-146 -143 -232 -143l-88 -13l-34 6l-28 -6q-201 30 -313 102q-149 145 -211 361zM143 294l11 11l11 -11l-11 -11zM154 820q3 -95 116 -300q96 -136 306 -136q0 -14 34 -14h55q186 25 218 68q183 154 183 293l7 27v130q-8 80 -41 122l7 7v7 q-34 100 -129 184q-52 51 -245 122h-96q-204 -38 -204 -75q-204 -145 -204 -367zM330 846v7q51 245 143 245q13 25 40 35l48 -7l61 14h14l115 -29l28 8q38 0 81 -105q-5 -140 -54 -140q0 -12 -41 -28q-75 22 -75 77v6q2 49 14 49q0 36 -96 57h-20l-81 -63q-34 -111 -34 -210 q27 -12 54 -77l95 -49q41 0 171 140h6q95 0 95 -70q-107 -161 -258 -161q0 -14 -48 -14h-6q-99 8 -184 77q-62 96 -62 210zM1057 278q28 37 37 34q14 -33 25 -38l17 10l8 -3q25 -37 27 -66q-48 -30 -66 -22l-12 5l-10 14l-22 4q-11 40 -4 62z" />
<glyph unicode="&#xad;" d="M52 605q0 45 117 84q27 -13 171 -18l19 -13l63 7h10l71 -6l36 7q208 -5 208 -43l2 -45q-35 -53 -80 -57l-55 13l-9 -2v-5q45 0 45 -64l-18 -13q-33 0 -64 89q-62 6 -63 19l-108 -8h-28l-82 5l-98 -25q-135 24 -135 50z" />
<glyph unicode="&#xae;" horiz-adv-x="1303" d="M67 1511q53 31 72 22l13 -5l10 -16l24 -5q11 -43 3 -67q-31 -39 -41 -36q-15 36 -27 42l-18 -10l-8 3q-26 41 -28 72zM69 850q11 51 24 51l-7 37q95 335 177 333q160 151 253 149l95 12l37 -8l29 7q216 -38 335 -118q158 -160 219 -394l-2 -103q-7 -277 -246 -479 q-101 -82 -289 -104l-59 -6l-22 8l-29 -6h-15q-148 25 -305 161q-185 222 -182 357q-15 0 -13 103zM160 797q7 -85 40 -130l-7 -7l-1 -7q34 -106 133 -197q53 -55 257 -134l101 -3q217 36 218 74q219 148 225 382l9 71q-1 100 -116 318q-98 146 -321 151q0 14 -36 15l-57 1 q-198 -21 -233 -66q-198 -157 -201 -303l-8 -29zM351 555q19 47 41 47l52 -6q35 35 35 58l-6 145l6 35l-12 41l6 29l-6 58l12 52v35q0 23 -99 29l-29 47q0 32 93 58l41 -6h87l140 6q127 -39 127 -99q53 -50 53 -110q-24 -97 -93 -140q-12 0 -12 -29q12 -15 23 -151l-5 -6v-6 q11 -52 52 -52q39 29 58 29q27 0 58 -76q-16 -46 -99 -46q-145 25 -145 93q-12 0 -12 18l12 34l-17 35l5 47q0 87 -139 87h-6l-12 -23l-6 -105l6 -6v-6l-6 -23v-6q0 -23 93 -40q59 0 59 -70l-29 -29l-59 11l-35 -5h-34l-35 5q-38 -17 -70 -17q-74 0 -93 58zM538 989 q18 -107 73 -107l40 -6h14q140 32 140 113v47q0 24 -93 53h-54q-107 0 -107 -73zM1150 1402l12 11l12 -12l-13 -12zM1420 897l23 23l23 -24l-24 -23zM1560 83v11l23 24h12l23 -24v-11l-23 -24h-12zM1615 1268l6 -18l12 12l-6 5zM1634 1039v5l12 12l6 -6l-1 -6l-12 -12z M1662 733v35l13 11l17 -17v-6l-24 -23h-6z" />
<glyph unicode="&#xb4;" horiz-adv-x="517" d="M115 1307q-48 41 109 225q-10 11 19 58l10 12q60 55 151 1l-33 5q66 -56 -28 -166l-59 -46l-74 -86q-27 -33 -71 -23z" />
<glyph unicode="&#x2000;" horiz-adv-x="1110" />
<glyph unicode="&#x2001;" horiz-adv-x="2220" />
<glyph unicode="&#x2002;" horiz-adv-x="1110" />
<glyph unicode="&#x2003;" horiz-adv-x="2220" />
<glyph unicode="&#x2004;" horiz-adv-x="740" />
<glyph unicode="&#x2005;" horiz-adv-x="555" />
<glyph unicode="&#x2006;" horiz-adv-x="370" />
<glyph unicode="&#x2007;" horiz-adv-x="370" />
<glyph unicode="&#x2008;" horiz-adv-x="277" />
<glyph unicode="&#x2009;" horiz-adv-x="444" />
<glyph unicode="&#x200a;" horiz-adv-x="123" />
<glyph unicode="&#x2010;" d="M52 605q0 45 117 84q27 -13 171 -18l19 -13l63 7h10l71 -6l36 7q208 -5 208 -43l2 -45q-35 -53 -80 -57l-55 13l-9 -2v-5q45 0 45 -64l-18 -13q-33 0 -64 89q-62 6 -63 19l-108 -8h-28l-82 5l-98 -25q-135 24 -135 50z" />
<glyph unicode="&#x2011;" d="M52 605q0 45 117 84q27 -13 171 -18l19 -13l63 7h10l71 -6l36 7q208 -5 208 -43l2 -45q-35 -53 -80 -57l-55 13l-9 -2v-5q45 0 45 -64l-18 -13q-33 0 -64 89q-62 6 -63 19l-108 -8h-28l-82 5l-98 -25q-135 24 -135 50z" />
<glyph unicode="&#x2012;" d="M52 605q0 45 117 84q27 -13 171 -18l19 -13l63 7h10l71 -6l36 7q208 -5 208 -43l2 -45q-35 -53 -80 -57l-55 13l-9 -2v-5q45 0 45 -64l-18 -13q-33 0 -64 89q-62 6 -63 19l-108 -8h-28l-82 5l-98 -25q-135 24 -135 50z" />
<glyph unicode="&#x2013;" horiz-adv-x="1024" d="M204 512v204h616v-204h-616z" />
<glyph unicode="&#x2014;" horiz-adv-x="2048" d="M204 512v204h1640v-204h-1640z" />
<glyph unicode="&#x2018;" horiz-adv-x="510" d="M123 1447q-42 92 21 134q36 25 129 -76l41 -110l34 -38q16 -24 -23 -67q-57 -18 -92 33l-46 80q-16 -11 -64 44zM380 1l12 12h12l8 -8v-4l-8 -8h-16z" />
<glyph unicode="&#x2019;" horiz-adv-x="330" d="M62 1220l32 91q-20 5 -9 79q44 95 120 75q43 -12 27 -154l-59 -106l-7 -52q-7 -28 -69 -27q-52 32 -35 94zM335 885l13 13h13l9 -9v-4l-9 -9h-17z" />
<glyph unicode="&#x201c;" horiz-adv-x="644" d="M75 839q18 113 102 113q47 0 71 -153l-32 -129l8 -57q0 -32 -63 -48q-62 19 -62 89l7 104q-21 0 -31 81zM374 855v16q10 81 70 81h16q86 0 86 -145l-15 -73v-113q0 -43 -40 -64h-31q-63 0 -63 242q-15 2 -23 56zM454 196l23 24h24l15 -16v-8l-15 -16h-32z" />
<glyph unicode="&#x201d;" horiz-adv-x="644" d="M75 839q18 113 102 113q47 0 71 -153l-32 -129l8 -57q0 -32 -63 -48q-62 19 -62 89l7 104q-21 0 -31 81zM374 855v16q10 81 70 81h16q86 0 86 -145l-15 -73v-113q0 -43 -40 -64h-31q-63 0 -63 242q-15 2 -23 56zM454 196l23 24h24l15 -16v-8l-15 -16h-32z" />
<glyph unicode="&#x2026;" horiz-adv-x="1236" d="M787 468v4l8 8l8 -8l-12 -8zM807 444l24 32h12l12 -12v-16l-8 -8l-4 4h-4l-24 -8zM913 132v33q37 82 106 82h28q47 0 85 -98v-41q-55 -82 -120 -82q-99 47 -99 106zM971 400l16 -16h4l12 12v8l-12 12h-8l-12 -12v-4zM1199 220l8 8l8 -8l-8 -8zM1271 0v8h12v-8h-12z M1335 132v12q0 6 32 24h8l8 -8v-8q-20 -24 -44 -24zM375 468v4l8 8l8 -8l-12 -8zM395 444l24 32h12l12 -12v-16l-8 -8l-4 4h-4l-24 -8zM501 132v33q37 82 106 82h28q47 0 85 -98v-41q-55 -82 -120 -82q-99 47 -99 106zM559 400l16 -16h4l12 12v8l-12 12h-8l-12 -12v-4z M787 220l8 8l8 -8l-8 -8zM859 0v8h12v-8h-12zM923 132v12q0 6 32 24h8l8 -8v-8q-20 -24 -44 -24zM-37 468v4l8 8l8 -8l-12 -8zM-17 444l24 32h12l12 -12v-16l-8 -8l-4 4h-4l-24 -8zM89 132v33q37 82 106 82h28q47 0 85 -98v-41q-55 -82 -120 -82q-99 47 -99 106zM147 400 l16 -16h4l12 12v8l-12 12h-8l-12 -12v-4zM375 220l8 8l8 -8l-8 -8zM447 0v8h12v-8h-12zM511 132v12q0 6 32 24h8l8 -8v-8q-20 -24 -44 -24z" />
<glyph unicode="&#x202f;" horiz-adv-x="444" />
<glyph unicode="&#x205f;" horiz-adv-x="555" />
<glyph unicode="&#x20ac;" horiz-adv-x="1332" d="M-34 691q0 19 105 49l33 -25v-8q0 -30 -121 -40zM58 130v25l16 16h8l16 -16v-16l-24 -25zM58 617v41l16 16h8l24 -16l33 32l194 -8l8 8v24l-8 57l8 8l-8 8h-8l-146 -8q-45 0 -73 57v16q0 57 57 57h130l8 -8l8 8h8l41 -8q60 88 73 138l137 113l-24 17l-24 -9l-16 17h-25 l-32 -8q-51 16 -57 40v33l32 32h9l81 -65h40l25 16h16l65 -24q65 49 284 49q113 0 283 -146q25 -5 25 -65v-16q0 -22 -65 -33h-33q0 -24 -16 -24h-8q-89 146 -251 146l-41 8q-243 -71 -243 -146l-65 -65l8 -8v-8q24 0 24 24l8 8h17l97 -24l170 8h187q32 -13 32 -57v-16 q-30 -57 -65 -57l-316 8h-49l-73 -8l-48 8q-41 -5 -41 -24v-24q10 -61 33 -65l162 8l97 -8l219 8h16q49 0 49 -32q0 -98 -89 -98l-41 -8l-340 16l-49 -8v-8q0 -74 130 -178l113 -33q254 0 341 114q4 32 24 32q114 -15 114 -65v-16q-115 -133 -243 -170q-39 -25 -122 -25h-89 v-8l16 -48v-8q0 -17 -24 -17l8 -40l-8 -8h-9q-33 11 -48 40v8q0 17 24 17l-8 8v8l8 48q0 11 -178 57q-219 185 -219 292h-81l-81 14l-9 -30h-8l-32 30q-32 7 -97 51zM90 1014l16 17h16q49 -29 49 -73v-8l-16 -17h-16q-49 39 -49 81zM246 102q22 81 41 81l16 -16v-25 q0 -44 -33 -65zM397 1472v16q41 0 41 57l24 16h8l8 -8h9v8l-9 48l9 9h40q15 0 24 -73l17 -17l-17 -16l-24 8v-8l8 -49l-8 -8h-8q-32 14 -32 57h-9v-16l9 -24q-16 -37 -33 -41l-16 16v8l16 25v8h-16q0 -41 -24 -41zM512 1282q29 24 56 24l17 -24v-24l-17 -16h-24zM723 57v17 l16 16h16q0 -24 32 -24l9 -9v-16l-17 -16h-24zM909 1023v8l16 16h8l17 -16v-8l-17 -17h-8zM1031 1306l8 9h8l16 -17l-8 -8h-8zM1104 1274l48 16h9l32 -32v-33q-13 -32 -57 -32h-8q-20 0 -24 81zM1558 1509v8l16 17h8l17 -17v-8l-17 -16h-8zM1631 1404v8l16 16l8 -8v-8l-8 -8 h-16z" />
<glyph unicode="&#x2122;" horiz-adv-x="966" d="M60 1340v42l23 88l-4 19v8q0 34 77 34l30 -7h8l58 11l38 -4l46 4q65 0 65 -34v-20l-4 -4l16 -49q-3 -31 -8 -31q19 -40 19 -65q-7 -27 -31 -27h-7q-46 0 -46 50v61q0 58 -42 58h-4q-35 0 -35 -65l16 -23v-12l-12 -15l8 -100v-19l-4 -35l4 -27l-4 -11q8 -18 15 -19h16 l46 11l19 -7l19 7q31 -30 31 -42q0 -20 -50 -34l-15 7l-47 -7h-11l-50 4l-31 -4l-30 7q-20 -11 -39 -11q-32 12 -38 30v16q0 23 96 27q11 14 11 26v62l4 50q-4 47 -15 69l8 27l-4 19l7 27q-8 45 -23 45q-57 0 -57 -53l-4 -19l12 -27q0 -55 -35 -69l-15 -4q-27 7 -27 35z M468 1107q12 38 47 38q20 0 25 31v7l-6 34v32l6 34v10q-9 11 -9 22v3l9 25l-3 16l3 25l-3 34l3 41q-7 10 -53 13q-16 16 -16 28q8 32 53 32l32 -10l50 13q35 -1 35 -73q12 -10 12 -28l-3 -22l16 -28l-3 -32q0 -23 16 -31h6q12 0 22 63l13 15l-4 29q6 101 48 101l78 6 q57 0 57 -38v-3q0 -17 -19 -28h-32q-8 0 -12 -26q9 -10 9 -31l-3 -41l3 -19l-9 -28q12 -13 12 -116l-9 -32q0 -28 69 -28q13 -14 13 -25q0 -30 -29 -41q-172 0 -172 22v22q0 16 59 31q0 10 7 10l-4 3v3l4 3l-16 25v7q0 10 16 31q-7 8 -16 63q0 12 16 38v15l-13 19l3 16v41 l-6 6h-3q-5 0 -16 -66q-13 -13 -13 -35l4 -44q-19 -27 -19 -69q-10 -9 -51 -19h-6q-19 10 -19 22l3 29q-14 0 -22 81q-19 16 -19 54l-9 6h-3q-5 0 -13 -31l-6 -7v-3l6 -25l-3 -3l12 -31v-32l10 -31l-13 -32v-37q17 -10 51 -13l22 -19v-28q-10 -17 -29 -22l-15 3h-85l-32 -6 q-23 0 -34 31z" />
<glyph unicode="&#xe000;" horiz-adv-x="1370" d="M0 1370h1370v-1370h-1370v1370z" />
<glyph unicode="&#xfb01;" horiz-adv-x="1730" d="M659 53l30 32h15l111 -119v-8q0 -28 -74 -41q-60 0 -82 136zM910 178v40q39 64 96 64l111 -16h52q30 16 30 40l-7 64l7 56l-15 88l15 73v88q0 40 -30 48l-118 -16q-97 0 -134 80q0 96 126 96q39 -22 238 -32q81 -51 89 -96l-8 -209q-29 0 -29 -96v-24l37 -88l-8 -48 l23 -16h141q89 -15 89 -88q0 -74 -134 -88l-7 -8h-38l-59 16h-7l-23 -16h-44l-89 24h-82l-29 -16q-193 0 -193 80zM1125 1100q36 88 96 88h60q76 0 111 -152q0 -71 -104 -81q-156 16 -156 105zM1919 186v24l44 40l23 -32v-8l-38 -40h-14zM-403 864v7l28 28h7v-42l-14 -14z M-368 224v21l14 21l-7 34q45 35 77 35q61 -26 62 -42q-34 -37 -34 -55l20 -21v-14q-34 -53 -69 -70q-63 61 -63 91zM-347 523v7l14 14l7 -7v-7l-14 -14zM-319 272l7 -6h14l-7 20zM-222 1059l42 41h7q52 -8 56 -28q-5 -97 -21 -97l-28 21l-7 -7h-7q-13 1 -42 70zM-76 307v28 q0 28 83 28l14 -21v-7l-76 -42h-7zM-27 620v14q55 0 55 49q-28 0 -28 14l21 21h14l21 -21v-14q0 -39 -49 -77h-20zM0 -33h14l14 -14l-7 -7h-7l-14 14v7zM14 1232l21 14l14 -14l-14 -13h-7zM35 1107q24 49 35 49h7q14 0 14 -21q-12 -31 -42 -49q-14 0 -14 21zM49 606v7 q24 42 63 42l139 -21l14 21v70q49 146 167 146l41 7h42q188 -50 188 -167l-63 -63l-41 -7q-91 24 -91 91q0 48 -28 48h-7q-111 -26 -111 -83v-35q0 -23 195 -35l14 -21v-34q0 -24 -84 -35l-111 14l-14 -21l7 -42l-7 -49l7 -41l-7 -49l21 -83l-7 -56q0 -21 42 -42l118 28 q20 -14 84 -14l13 -28q0 -66 -111 -83h-21q0 -29 -34 -56l-14 -27q-28 0 -35 55h-7v-14h-14l-21 35l7 7l-35 -7l-69 7q-35 0 -35 -14l-49 7h-21l-41 -7q-70 16 -70 69q0 43 49 63l83 -21h28q56 0 56 49v21l-14 83l14 56l-14 49l7 97q-12 35 -35 35l-111 -28q-77 28 -77 76z M112 1107q5 77 28 77h34l35 -42q-70 -56 -90 -56zM633 961l49 21h7q11 0 21 -28l7 7h7l14 -14l35 14l20 -28v-7q0 -14 -90 -34q0 11 -56 27zM668 -151q11 34 91 34h7l34 -48v-28q0 -14 -55 -14q-11 -28 -21 -28q-7 35 -42 35l-14 21v28zM696 -165v-7h7l28 14l21 -7l-21 21 h-14zM703 -270l35 28h35l13 -14l-27 -28h-42zM731 509v14l21 21h7q37 0 48 -28v-14q0 -21 -27 -21q-49 10 -49 28zM759 -221l7 7h7l7 -7v-7l-7 -7h-7l-7 7v7zM995 342l21 14h7v-49l-14 -14z" />
<glyph unicode="&#xfb02;" horiz-adv-x="1850" d="M636 256v9q11 27 74 54h7l50 -45q23 0 23 45h8l16 -18v-27l-33 -55h-7l-33 18l-48 -36h-16zM774 137v10l16 36h15v-28l-24 -26zM790 1216v28l15 18l9 -9v-18l-16 -19h-8zM886 247q27 117 104 117l227 -36l31 46v171l-15 82l24 182v45l-9 54l17 55v109l-24 44l-210 -8 q-69 0 -89 127q0 39 129 72h65q59 -4 81 -27l40 9h17l48 -18l24 9q53 0 88 -72l-7 -218l7 -27q-16 -143 -40 -182q28 -50 49 -172q-33 -98 -33 -173v-72l33 -45l80 9l57 -27l96 18h41q56 -44 56 -100v-8q-23 -74 -112 -74q-81 0 -81 -26v-18h-8l8 -10v-8q-29 -110 -98 -110 q-60 25 -64 46v28l64 36v8q-37 7 -79 64l-41 18l-153 -28q-49 28 -114 38l-64 -20h-65q-80 14 -80 92zM910 717q0 51 65 92h32l33 -36q0 -74 -89 -92h-9zM1475 1044v36h24v-26l-17 -18zM1499 745l48 46h25l89 -74q0 -18 -33 -18l-8 -8v-28h32v-18l-24 -27q-20 0 -24 37 l-32 -28q-11 36 -49 36zM1547 1461l16 18h9l15 -18l-24 -18zM1580 1044v10l24 26q13 0 48 -72v-9l-15 -18h-9zM1596 1134v10q0 64 56 64h16l17 -18l-9 -37l16 -45l-24 -36h-7zM1733 881l24 18h9l24 -27v-18l-17 -19h-16q-18 0 -24 46zM1766 1190v26l15 19q61 -11 65 -37v-8 l-25 -28h-31zM1821 817v28l33 27q32 -14 32 -27v-36l-15 -18h-25zM1821 1316v27l25 28h16l40 -46v-18l-40 -18h-16zM1926 247v27l25 27l24 -27v-27l-16 -18h-16zM2000 709v18l24 26h32q29 0 56 -108l-32 -36l-17 18l17 28l-32 54l-41 -10zM2088 1597v10l16 18l-8 9v9 q0 27 48 27v18q22 0 33 64h32q16 0 16 -28q-16 -145 -96 -145h-25zM-403 864v7l28 28h7v-42l-14 -14zM-368 224v21l14 21l-7 34q45 35 77 35q61 -26 62 -42q-34 -37 -34 -55l20 -21v-14q-34 -53 -69 -70q-63 61 -63 91zM-347 523v7l14 14l7 -7v-7l-14 -14zM-319 272l7 -6h14 l-7 20zM-222 1059l42 41h7q52 -8 56 -28q-5 -97 -21 -97l-28 21l-7 -7h-7q-13 1 -42 70zM-76 307v28q0 28 83 28l14 -21v-7l-76 -42h-7zM-27 620v14q55 0 55 49q-28 0 -28 14l21 21h14l21 -21v-14q0 -39 -49 -77h-20zM0 -33h14l14 -14l-7 -7h-7l-14 14v7zM14 1232l21 14 l14 -14l-14 -13h-7zM35 1107q24 49 35 49h7q14 0 14 -21q-12 -31 -42 -49q-14 0 -14 21zM49 606v7q24 42 63 42l139 -21l14 21v70q49 146 167 146l41 7h42q188 -50 188 -167l-63 -63l-41 -7q-91 24 -91 91q0 48 -28 48h-7q-111 -26 -111 -83v-35q0 -23 195 -35l14 -21v-34 q0 -24 -84 -35l-111 14l-14 -21l7 -42l-7 -49l7 -41l-7 -49l21 -83l-7 -56q0 -21 42 -42l118 28q20 -14 84 -14l13 -28q0 -66 -111 -83h-21q0 -29 -34 -56l-14 -27q-28 0 -35 55h-7v-14h-14l-21 35l7 7l-35 -7l-69 7q-35 0 -35 -14l-49 7h-21l-41 -7q-70 16 -70 69 q0 43 49 63l83 -21h28q56 0 56 49v21l-14 83l14 56l-14 49l7 97q-12 35 -35 35l-111 -28q-77 28 -77 76zM112 1107q5 77 28 77h34l35 -42q-70 -56 -90 -56zM633 961l49 21h7q11 0 21 -28l7 7h7l14 -14l35 14l20 -28v-7q0 -14 -90 -34q0 11 -56 27zM668 -151q11 34 91 34h7 l34 -48v-28q0 -14 -55 -14q-11 -28 -21 -28q-7 35 -42 35l-14 21v28zM696 -165v-7h7l28 14l21 -7l-21 21h-14zM703 -270l35 28h35l13 -14l-27 -28h-42zM731 509v14l21 21h7q37 0 48 -28v-14q0 -21 -27 -21q-49 10 -49 28zM759 -221l7 7h7l7 -7v-7l-7 -7h-7l-7 7v7zM995 342 l21 14h7v-49l-14 -14z" />
<glyph unicode="&#xfb03;" horiz-adv-x="2554" d="M1483 53l30 32h15l111 -119v-8q0 -28 -74 -41q-60 0 -82 136zM1734 178v40q39 64 96 64l111 -16h52q30 16 30 40l-7 64l7 56l-15 88l15 73v88q0 40 -30 48l-118 -16q-97 0 -134 80q0 96 126 96q39 -22 238 -32q81 -51 89 -96l-8 -209q-29 0 -29 -96v-24l37 -88l-8 -48 l23 -16h141q89 -15 89 -88q0 -74 -134 -88l-7 -8h-38l-59 16h-7l-23 -16h-44l-89 24h-82l-29 -16q-193 0 -193 80zM1949 1100q36 88 96 88h60q76 0 111 -152q0 -71 -104 -81q-156 16 -156 105zM2743 186v24l44 40l23 -32v-8l-38 -40h-14zM421 864v7l28 28h7v-42l-14 -14z M456 224v21l14 21l-7 34q45 35 77 35q61 -26 62 -42q-34 -37 -34 -55l20 -21v-14q-34 -53 -69 -70q-63 61 -63 91zM477 523v7l14 14l7 -7v-7l-14 -14zM505 272l7 -6h14l-7 20zM602 1059l42 41h7q52 -8 56 -28q-5 -97 -21 -97l-28 21l-7 -7h-7q-13 1 -42 70zM748 307v28 q0 28 83 28l14 -21v-7l-76 -42h-7zM797 620v14q55 0 55 49q-28 0 -28 14l21 21h14l21 -21v-14q0 -39 -49 -77h-20zM824 -33h14l14 -14l-7 -7h-7l-14 14v7zM838 1232l21 14l14 -14l-14 -13h-7zM859 1107q24 49 35 49h7q14 0 14 -21q-12 -31 -42 -49q-14 0 -14 21zM873 606v7 q24 42 63 42l139 -21l14 21v70q49 146 167 146l41 7h42q188 -50 188 -167l-63 -63l-41 -7q-91 24 -91 91q0 48 -28 48h-7q-111 -26 -111 -83v-35q0 -23 195 -35l14 -21v-34q0 -24 -84 -35l-111 14l-14 -21l7 -42l-7 -49l7 -41l-7 -49l21 -83l-7 -56q0 -21 42 -42l118 28 q20 -14 84 -14l13 -28q0 -66 -111 -83h-21q0 -29 -34 -56l-14 -27q-28 0 -35 55h-7v-14h-14l-21 35l7 7l-35 -7l-69 7q-35 0 -35 -14l-49 7h-21l-41 -7q-70 16 -70 69q0 43 49 63l83 -21h28q56 0 56 49v21l-14 83l14 56l-14 49l7 97q-12 35 -35 35l-111 -28q-77 28 -77 76z M936 1107q5 77 28 77h34l35 -42q-70 -56 -90 -56zM1457 961l49 21h7q11 0 21 -28l7 7h7l14 -14l35 14l20 -28v-7q0 -14 -90 -34q0 11 -56 27zM1492 -151q11 34 91 34h7l34 -48v-28q0 -14 -55 -14q-11 -28 -21 -28q-7 35 -42 35l-14 21v28zM1520 -165v-7h7l28 14l21 -7 l-21 21h-14zM1527 -270l35 28h35l13 -14l-27 -28h-42zM1555 509v14l21 21h7q37 0 48 -28v-14q0 -21 -27 -21q-49 10 -49 28zM1583 -221l7 7h7l7 -7v-7l-7 -7h-7l-7 7v7zM1819 342l21 14h7v-49l-14 -14zM-403 864v7l28 28h7v-42l-14 -14zM-368 224v21l14 21l-7 34 q45 35 77 35q61 -26 62 -42q-34 -37 -34 -55l20 -21v-14q-34 -53 -69 -70q-63 61 -63 91zM-347 523v7l14 14l7 -7v-7l-14 -14zM-319 272l7 -6h14l-7 20zM-222 1059l42 41h7q52 -8 56 -28q-5 -97 -21 -97l-28 21l-7 -7h-7q-13 1 -42 70zM-76 307v28q0 28 83 28l14 -21v-7 l-76 -42h-7zM-27 620v14q55 0 55 49q-28 0 -28 14l21 21h14l21 -21v-14q0 -39 -49 -77h-20zM0 -33h14l14 -14l-7 -7h-7l-14 14v7zM14 1232l21 14l14 -14l-14 -13h-7zM35 1107q24 49 35 49h7q14 0 14 -21q-12 -31 -42 -49q-14 0 -14 21zM49 606v7q24 42 63 42l139 -21l14 21 v70q49 146 167 146l41 7h42q188 -50 188 -167l-63 -63l-41 -7q-91 24 -91 91q0 48 -28 48h-7q-111 -26 -111 -83v-35q0 -23 195 -35l14 -21v-34q0 -24 -84 -35l-111 14l-14 -21l7 -42l-7 -49l7 -41l-7 -49l21 -83l-7 -56q0 -21 42 -42l118 28q20 -14 84 -14l13 -28 q0 -66 -111 -83h-21q0 -29 -34 -56l-14 -27q-28 0 -35 55h-7v-14h-14l-21 35l7 7l-35 -7l-69 7q-35 0 -35 -14l-49 7h-21l-41 -7q-70 16 -70 69q0 43 49 63l83 -21h28q56 0 56 49v21l-14 83l14 56l-14 49l7 97q-12 35 -35 35l-111 -28q-77 28 -77 76zM112 1107q5 77 28 77 h34l35 -42q-70 -56 -90 -56zM633 961l49 21h7q11 0 21 -28l7 7h7l14 -14l35 14l20 -28v-7q0 -14 -90 -34q0 11 -56 27zM668 -151q11 34 91 34h7l34 -48v-28q0 -14 -55 -14q-11 -28 -21 -28q-7 35 -42 35l-14 21v28zM696 -165v-7h7l28 14l21 -7l-21 21h-14zM703 -270l35 28 h35l13 -14l-27 -28h-42zM731 509v14l21 21h7q37 0 48 -28v-14q0 -21 -27 -21q-49 10 -49 28zM759 -221l7 7h7l7 -7v-7l-7 -7h-7l-7 7v7zM995 342l21 14h7v-49l-14 -14z" />
<glyph unicode="&#xfb04;" horiz-adv-x="2674" d="M1460 256v9q11 27 74 54h7l50 -45q23 0 23 45h8l16 -18v-27l-33 -55h-7l-33 18l-48 -36h-16zM1598 137v10l16 36h15v-28l-24 -26zM1614 1216v28l15 18l9 -9v-18l-16 -19h-8zM1710 247q27 117 104 117l227 -36l31 46v171l-15 82l24 182v45l-9 54l17 55v109l-24 44l-210 -8 q-69 0 -89 127q0 39 129 72h65q59 -4 81 -27l40 9h17l48 -18l24 9q53 0 88 -72l-7 -218l7 -27q-16 -143 -40 -182q28 -50 49 -172q-33 -98 -33 -173v-72l33 -45l80 9l57 -27l96 18h41q56 -44 56 -100v-8q-23 -74 -112 -74q-81 0 -81 -26v-18h-8l8 -10v-8q-29 -110 -98 -110 q-60 25 -64 46v28l64 36v8q-37 7 -79 64l-41 18l-153 -28q-49 28 -114 38l-64 -20h-65q-80 14 -80 92zM1734 717q0 51 65 92h32l33 -36q0 -74 -89 -92h-9zM2299 1044v36h24v-26l-17 -18zM2323 745l48 46h25l89 -74q0 -18 -33 -18l-8 -8v-28h32v-18l-24 -27q-20 0 -24 37 l-32 -28q-11 36 -49 36zM2371 1461l16 18h9l15 -18l-24 -18zM2404 1044v10l24 26q13 0 48 -72v-9l-15 -18h-9zM2420 1134v10q0 64 56 64h16l17 -18l-9 -37l16 -45l-24 -36h-7zM2557 881l24 18h9l24 -27v-18l-17 -19h-16q-18 0 -24 46zM2590 1190v26l15 19q61 -11 65 -37v-8 l-25 -28h-31zM2645 817v28l33 27q32 -14 32 -27v-36l-15 -18h-25zM2645 1316v27l25 28h16l40 -46v-18l-40 -18h-16zM2750 247v27l25 27l24 -27v-27l-16 -18h-16zM2824 709v18l24 26h32q29 0 56 -108l-32 -36l-17 18l17 28l-32 54l-41 -10zM2912 1597v10l16 18l-8 9v9 q0 27 48 27v18q22 0 33 64h32q16 0 16 -28q-16 -145 -96 -145h-25zM421 864v7l28 28h7v-42l-14 -14zM456 224v21l14 21l-7 34q45 35 77 35q61 -26 62 -42q-34 -37 -34 -55l20 -21v-14q-34 -53 -69 -70q-63 61 -63 91zM477 523v7l14 14l7 -7v-7l-14 -14zM505 272l7 -6h14 l-7 20zM602 1059l42 41h7q52 -8 56 -28q-5 -97 -21 -97l-28 21l-7 -7h-7q-13 1 -42 70zM748 307v28q0 28 83 28l14 -21v-7l-76 -42h-7zM797 620v14q55 0 55 49q-28 0 -28 14l21 21h14l21 -21v-14q0 -39 -49 -77h-20zM824 -33h14l14 -14l-7 -7h-7l-14 14v7zM838 1232l21 14 l14 -14l-14 -13h-7zM859 1107q24 49 35 49h7q14 0 14 -21q-12 -31 -42 -49q-14 0 -14 21zM873 606v7q24 42 63 42l139 -21l14 21v70q49 146 167 146l41 7h42q188 -50 188 -167l-63 -63l-41 -7q-91 24 -91 91q0 48 -28 48h-7q-111 -26 -111 -83v-35q0 -23 195 -35l14 -21v-34 q0 -24 -84 -35l-111 14l-14 -21l7 -42l-7 -49l7 -41l-7 -49l21 -83l-7 -56q0 -21 42 -42l118 28q20 -14 84 -14l13 -28q0 -66 -111 -83h-21q0 -29 -34 -56l-14 -27q-28 0 -35 55h-7v-14h-14l-21 35l7 7l-35 -7l-69 7q-35 0 -35 -14l-49 7h-21l-41 -7q-70 16 -70 69 q0 43 49 63l83 -21h28q56 0 56 49v21l-14 83l14 56l-14 49l7 97q-12 35 -35 35l-111 -28q-77 28 -77 76zM936 1107q5 77 28 77h34l35 -42q-70 -56 -90 -56zM1457 961l49 21h7q11 0 21 -28l7 7h7l14 -14l35 14l20 -28v-7q0 -14 -90 -34q0 11 -56 27zM1492 -151q11 34 91 34h7 l34 -48v-28q0 -14 -55 -14q-11 -28 -21 -28q-7 35 -42 35l-14 21v28zM1520 -165v-7h7l28 14l21 -7l-21 21h-14zM1527 -270l35 28h35l13 -14l-27 -28h-42zM1555 509v14l21 21h7q37 0 48 -28v-14q0 -21 -27 -21q-49 10 -49 28zM1583 -221l7 7h7l7 -7v-7l-7 -7h-7l-7 7v7z M1819 342l21 14h7v-49l-14 -14zM-403 864v7l28 28h7v-42l-14 -14zM-368 224v21l14 21l-7 34q45 35 77 35q61 -26 62 -42q-34 -37 -34 -55l20 -21v-14q-34 -53 -69 -70q-63 61 -63 91zM-347 523v7l14 14l7 -7v-7l-14 -14zM-319 272l7 -6h14l-7 20zM-222 1059l42 41h7 q52 -8 56 -28q-5 -97 -21 -97l-28 21l-7 -7h-7q-13 1 -42 70zM-76 307v28q0 28 83 28l14 -21v-7l-76 -42h-7zM-27 620v14q55 0 55 49q-28 0 -28 14l21 21h14l21 -21v-14q0 -39 -49 -77h-20zM0 -33h14l14 -14l-7 -7h-7l-14 14v7zM14 1232l21 14l14 -14l-14 -13h-7zM35 1107 q24 49 35 49h7q14 0 14 -21q-12 -31 -42 -49q-14 0 -14 21zM49 606v7q24 42 63 42l139 -21l14 21v70q49 146 167 146l41 7h42q188 -50 188 -167l-63 -63l-41 -7q-91 24 -91 91q0 48 -28 48h-7q-111 -26 -111 -83v-35q0 -23 195 -35l14 -21v-34q0 -24 -84 -35l-111 14 l-14 -21l7 -42l-7 -49l7 -41l-7 -49l21 -83l-7 -56q0 -21 42 -42l118 28q20 -14 84 -14l13 -28q0 -66 -111 -83h-21q0 -29 -34 -56l-14 -27q-28 0 -35 55h-7v-14h-14l-21 35l7 7l-35 -7l-69 7q-35 0 -35 -14l-49 7h-21l-41 -7q-70 16 -70 69q0 43 49 63l83 -21h28 q56 0 56 49v21l-14 83l14 56l-14 49l7 97q-12 35 -35 35l-111 -28q-77 28 -77 76zM112 1107q5 77 28 77h34l35 -42q-70 -56 -90 -56zM633 961l49 21h7q11 0 21 -28l7 7h7l14 -14l35 14l20 -28v-7q0 -14 -90 -34q0 11 -56 27zM668 -151q11 34 91 34h7l34 -48v-28 q0 -14 -55 -14q-11 -28 -21 -28q-7 35 -42 35l-14 21v28zM696 -165v-7h7l28 14l21 -7l-21 21h-14zM703 -270l35 28h35l13 -14l-27 -28h-42zM731 509v14l21 21h7q37 0 48 -28v-14q0 -21 -27 -21q-49 10 -49 28zM759 -221l7 7h7l7 -7v-7l-7 -7h-7l-7 7v7zM995 342l21 14h7v-49 l-14 -14z" />
</font>
</defs>
</svg>
